<svg width="129" height="130" viewBox="0 0 129 130" fill="none" xmlns="http://www.w3.org/2000/svg">
<g filter="url(#filter0_dii_429_1701)">
<rect x="10" y="5.50012" width="109" height="109" rx="54.5" fill="#BF4546"/>
<path d="M69.9933 45.4511C72.1765 47.637 73.543 50.5063 73.8641 53.579C74.1852 56.6518 73.4414 59.7416 71.7572 62.3316C72.0512 62.5766 72.2963 62.8461 72.6393 63.0911C73.1293 63.4831 73.7908 63.9731 74.6237 64.5366C75.4567 65.1246 75.9957 65.4921 76.2407 65.6881C77.2697 66.4476 78.0293 67.0846 78.5438 67.5991C79.3278 68.3831 80.0137 69.1916 80.6017 70.0491C81.2142 70.9066 81.6797 71.7396 82.0472 72.5971C82.3902 73.4546 82.5617 74.2631 82.4883 75.0471C82.4393 75.8311 82.1452 76.4926 81.6062 77.0316C81.0672 77.5706 80.4058 77.8646 79.6217 77.9136C78.8622 77.9626 78.0293 77.8156 77.1963 77.4481C76.3388 77.1051 75.4813 76.6151 74.6483 76.0026C73.7908 75.4146 72.9823 74.7286 72.1982 73.9446C71.6838 73.4301 71.0468 72.6706 70.3118 71.6661C70.0668 71.3476 69.6993 70.8086 69.1602 70.0491C68.6213 69.2651 68.1803 68.6526 67.7882 68.1381C67.3962 67.6481 67.0778 67.2806 66.7103 66.9131C64.1673 68.2447 61.2657 68.7299 58.4278 68.298C55.59 67.8662 52.964 66.5398 50.9323 64.5121C45.6892 59.2446 45.6892 50.6941 50.9323 45.4511C52.1833 44.1986 53.6689 43.205 55.3042 42.527C56.9396 41.8491 58.6925 41.5001 60.4628 41.5001C62.233 41.5001 63.9859 41.8491 65.6213 42.527C67.2566 43.205 68.7422 44.1986 69.9933 45.4511ZM66.5387 61.0331C68.1393 59.4209 69.0375 57.2412 69.0375 54.9694C69.0375 52.6976 68.1393 50.5179 66.5387 48.9056C65.7433 48.1078 64.7982 47.4748 63.7577 47.0429C62.7172 46.611 61.6016 46.3887 60.475 46.3887C59.3484 46.3887 58.2328 46.611 57.1923 47.0429C56.1518 47.4748 55.2067 48.1078 54.4113 48.9056C53.6134 49.7011 52.9804 50.6462 52.5485 51.6867C52.1166 52.7272 51.8943 53.8428 51.8943 54.9694C51.8943 56.096 52.1166 57.2115 52.5485 58.2521C52.9804 59.2926 53.6134 60.2377 54.4113 61.0331C55.2067 61.8309 56.1518 62.4639 57.1923 62.8959C58.2328 63.3278 59.3484 63.5501 60.475 63.5501C61.6016 63.5501 62.7172 63.3278 63.7577 62.8959C64.7982 62.4639 65.7433 61.8309 66.5387 61.0331Z" fill="white"/>
</g>
<defs>
<filter id="filter0_dii_429_1701" x="0" y="0.500122" width="129" height="129" filterUnits="userSpaceOnUse" color-interpolation-filters="sRGB">
<feFlood flood-opacity="0" result="BackgroundImageFix"/>
<feColorMatrix in="SourceAlpha" type="matrix" values="0 0 0 0 0 0 0 0 0 0 0 0 0 0 0 0 0 0 127 0" result="hardAlpha"/>
<feOffset dy="5"/>
<feGaussianBlur stdDeviation="5"/>
<feComposite in2="hardAlpha" operator="out"/>
<feColorMatrix type="matrix" values="0 0 0 0 0 0 0 0 0 0 0 0 0 0 0 0 0 0 0.15 0"/>
<feBlend mode="normal" in2="BackgroundImageFix" result="effect1_dropShadow_429_1701"/>
<feBlend mode="normal" in="SourceGraphic" in2="effect1_dropShadow_429_1701" result="shape"/>
<feColorMatrix in="SourceAlpha" type="matrix" values="0 0 0 0 0 0 0 0 0 0 0 0 0 0 0 0 0 0 127 0" result="hardAlpha"/>
<feOffset dy="4"/>
<feGaussianBlur stdDeviation="2"/>
<feComposite in2="hardAlpha" operator="arithmetic" k2="-1" k3="1"/>
<feColorMatrix type="matrix" values="0 0 0 0 0.9375 0 0 0 0 0.621094 0 0 0 0 0.631783 0 0 0 0.5 0"/>
<feBlend mode="normal" in2="shape" result="effect2_innerShadow_429_1701"/>
<feColorMatrix in="SourceAlpha" type="matrix" values="0 0 0 0 0 0 0 0 0 0 0 0 0 0 0 0 0 0 127 0" result="hardAlpha"/>
<feOffset dy="-4"/>
<feGaussianBlur stdDeviation="2"/>
<feComposite in2="hardAlpha" operator="arithmetic" k2="-1" k3="1"/>
<feColorMatrix type="matrix" values="0 0 0 0 0.454167 0 0 0 0 0.213837 0 0 0 0 0.213837 0 0 0 0.5 0"/>
<feBlend mode="normal" in2="effect2_innerShadow_429_1701" result="effect3_innerShadow_429_1701"/>
</filter>
</defs>
</svg>
