<svg width="131" height="130" viewBox="0 0 131 130" fill="none" xmlns="http://www.w3.org/2000/svg">
<g filter="url(#filter0_dii_429_1706)">
<rect x="10.5" y="5.00012" width="110" height="110" rx="55" fill="#BF4546"/>
<path d="M50.1157 35.0001C48.0157 35.0001 46.2695 36.7463 46.2695 38.8463V75.3847C46.2695 77.4847 48.0157 79.2309 50.1157 79.2309H53.9618V85.0001L59.7311 81.154L65.5003 85.0001V71.2386C65.2349 71.3916 64.9521 71.5124 64.658 71.5982C64.4522 72.0418 64.1604 72.4402 63.7997 72.7703C63.4389 73.1004 63.0162 73.3556 62.5561 73.5213C62.1492 73.6541 61.7223 73.7153 61.2945 73.702C60.7561 73.702 60.2176 73.6328 59.7311 73.402C59.2387 73.617 58.7046 73.7195 58.1676 73.702C57.7368 73.702 57.3157 73.6694 56.9061 73.5213C55.978 73.1838 55.2215 72.4923 54.8022 71.5982C54.5089 71.5119 54.2268 71.3911 53.9618 71.2386V75.3847H50.1157V38.8463H80.8849V75.3847H71.2695C70.7595 75.3847 70.2704 75.5873 69.9097 75.948C69.5491 76.3086 69.3465 76.7978 69.3465 77.3078C69.3465 77.8178 69.5491 78.307 69.9097 78.6676C70.2704 79.0283 70.7595 79.2309 71.2695 79.2309H80.8849C82.9849 79.2309 84.7311 77.4847 84.7311 75.3847V38.8463C84.7311 36.7463 82.9849 35.0001 80.8849 35.0001H50.1157ZM55.5253 44.6155C55.0153 44.6632 54.5451 44.9115 54.2181 45.3059C53.8912 45.7003 53.7343 46.2084 53.782 46.7184C53.8297 47.2284 54.0781 47.6986 54.4724 48.0255C54.8668 48.3525 55.3749 48.5093 55.8849 48.4617H75.1157C75.6257 48.4617 76.1149 48.2591 76.4755 47.8984C76.8362 47.5378 77.0388 47.0486 77.0388 46.5386C77.0388 46.0286 76.8362 45.5394 76.4755 45.1788C76.1149 44.8181 75.6257 44.6155 75.1157 44.6155H55.8849C55.8247 44.6127 55.7644 44.6127 55.7041 44.6155C55.6446 44.6127 55.5849 44.6127 55.5253 44.6155ZM55.5253 52.3078C55.0153 52.3555 54.5451 52.6038 54.2181 52.9982C53.8912 53.3926 53.7343 53.9007 53.782 54.4107C53.8297 54.9207 54.0781 55.3909 54.4724 55.7179C54.8668 56.0448 55.3749 56.2017 55.8849 56.154H69.3465C69.8565 56.154 70.3456 55.9514 70.7063 55.5907C71.0669 55.2301 71.2695 54.7409 71.2695 54.2309C71.2695 53.7209 71.0669 53.2317 70.7063 52.8711C70.3456 52.5104 69.8565 52.3078 69.3465 52.3078H55.8849C55.8247 52.305 55.7644 52.305 55.7041 52.3078C55.6446 52.305 55.5849 52.305 55.5253 52.3078ZM59.7311 59.3386C59.3449 59.339 58.9687 59.4611 58.6559 59.6876C58.3431 59.9141 58.1097 60.2334 57.9888 60.6001C57.9099 60.627 57.8234 60.6309 57.7484 60.6617C57.4234 60.4664 57.045 60.3787 56.6672 60.4111C56.2894 60.4436 55.9315 60.5945 55.6445 60.8424C55.354 61.085 55.146 61.4117 55.0492 61.7776C54.9524 62.1434 54.9716 62.5303 55.1041 62.8847C55.0522 62.9636 55.0311 63.0424 54.983 63.1251C54.6073 63.1877 54.2606 63.3661 53.9913 63.6354C53.722 63.9047 53.5436 64.2514 53.4811 64.627C53.4193 64.9929 53.473 65.3688 53.6346 65.7027C53.7962 66.0367 54.0578 66.312 54.383 66.4905C54.3965 66.6117 54.358 66.7347 54.383 66.852C54.1508 67.1347 54.0093 67.4809 53.9771 67.8453C53.9448 68.2097 54.0233 68.5753 54.2022 68.8944C54.5753 69.5424 55.3176 69.904 56.0657 69.7963C56.1618 69.8867 56.2599 69.954 56.3657 70.0367C56.3849 70.7809 56.8599 71.4597 57.5676 71.7194C58.2676 71.9751 59.0599 71.729 59.5503 71.177C59.6215 71.1809 59.658 71.2386 59.7311 71.2386C59.8099 71.2386 59.8926 71.1809 59.9715 71.177C60.1375 71.3645 60.3411 71.5149 60.569 71.6186C60.7969 71.7223 61.0441 71.777 61.2945 71.779C61.5022 71.779 61.6907 71.7924 61.8945 71.7194C62.2404 71.5915 62.5399 71.3628 62.7542 71.0628C62.9685 70.7627 63.0877 70.4053 63.0965 70.0367C63.1984 69.9559 63.2984 69.8867 63.3965 69.7963C63.7615 69.8481 64.1337 69.7899 64.4656 69.6293C64.7975 69.4687 65.0741 69.2128 65.2599 68.8944C65.4393 68.5751 65.518 68.2091 65.4857 67.8443C65.4534 67.4795 65.3117 67.133 65.0791 66.8501C65.1061 66.7347 65.0618 66.6078 65.0791 66.4905C65.4055 66.3133 65.6681 66.0382 65.8299 65.7039C65.9917 65.3696 66.0446 64.993 65.9811 64.627C65.9188 64.2513 65.7405 63.9044 65.4711 63.6351C65.2018 63.3657 64.8549 63.1874 64.4791 63.1251C64.433 63.0405 64.4099 62.9655 64.358 62.8847C64.4916 62.5301 64.5113 62.1427 64.4144 61.7763C64.3176 61.4099 64.109 61.0828 63.8176 60.8405C63.5306 60.5926 63.1726 60.4419 62.7947 60.4098C62.4168 60.3776 62.0385 60.4658 61.7138 60.6617C61.6368 60.6309 61.5522 60.627 61.4734 60.602C61.3528 60.2349 61.1195 59.9152 60.8067 59.6884C60.4939 59.4615 60.1175 59.3391 59.7311 59.3386ZM59.7311 62.704C61.4349 62.704 62.7965 64.0655 62.7965 65.7694C62.7965 67.477 61.4368 68.8347 59.7311 68.8347C59.3279 68.837 58.9282 68.7593 58.5553 68.6061C58.1823 68.4528 57.8435 68.2271 57.5584 67.942C57.2733 67.6569 57.0476 67.3181 56.8943 66.9451C56.7411 66.5722 56.6634 66.1725 56.6657 65.7694C56.6657 64.0636 58.0272 62.704 59.7311 62.704Z" fill="white"/>
</g>
<defs>
<filter id="filter0_dii_429_1706" x="0.5" y="0.00012207" width="130" height="130" filterUnits="userSpaceOnUse" color-interpolation-filters="sRGB">
<feFlood flood-opacity="0" result="BackgroundImageFix"/>
<feColorMatrix in="SourceAlpha" type="matrix" values="0 0 0 0 0 0 0 0 0 0 0 0 0 0 0 0 0 0 127 0" result="hardAlpha"/>
<feOffset dy="5"/>
<feGaussianBlur stdDeviation="5"/>
<feComposite in2="hardAlpha" operator="out"/>
<feColorMatrix type="matrix" values="0 0 0 0 0 0 0 0 0 0 0 0 0 0 0 0 0 0 0.15 0"/>
<feBlend mode="normal" in2="BackgroundImageFix" result="effect1_dropShadow_429_1706"/>
<feBlend mode="normal" in="SourceGraphic" in2="effect1_dropShadow_429_1706" result="shape"/>
<feColorMatrix in="SourceAlpha" type="matrix" values="0 0 0 0 0 0 0 0 0 0 0 0 0 0 0 0 0 0 127 0" result="hardAlpha"/>
<feOffset dy="4"/>
<feGaussianBlur stdDeviation="2"/>
<feComposite in2="hardAlpha" operator="arithmetic" k2="-1" k3="1"/>
<feColorMatrix type="matrix" values="0 0 0 0 0.9375 0 0 0 0 0.621094 0 0 0 0 0.631783 0 0 0 0.5 0"/>
<feBlend mode="normal" in2="shape" result="effect2_innerShadow_429_1706"/>
<feColorMatrix in="SourceAlpha" type="matrix" values="0 0 0 0 0 0 0 0 0 0 0 0 0 0 0 0 0 0 127 0" result="hardAlpha"/>
<feOffset dy="-4"/>
<feGaussianBlur stdDeviation="2"/>
<feComposite in2="hardAlpha" operator="arithmetic" k2="-1" k3="1"/>
<feColorMatrix type="matrix" values="0 0 0 0 0.454167 0 0 0 0 0.213837 0 0 0 0 0.213837 0 0 0 0.5 0"/>
<feBlend mode="normal" in2="effect2_innerShadow_429_1706" result="effect3_innerShadow_429_1706"/>
</filter>
</defs>
</svg>
