<svg width="90" height="90" viewBox="0 0 90 90" fill="none" xmlns="http://www.w3.org/2000/svg">
<g filter="url(#filter0_f_23_3528)">
<circle cx="45" cy="45" r="40" fill="#391400" fill-opacity="0.5"/>
</g>
<circle cx="45" cy="42" r="40" fill="url(#paint0_linear_23_3528)"/>
<path d="M50.9933 26.951C53.1765 29.1369 54.543 32.0062 54.8641 35.0789C55.1852 38.1517 54.4414 41.2415 52.7572 43.8315C53.0512 44.0765 53.2963 44.346 53.6393 44.591C54.1293 44.983 54.7908 45.473 55.6237 46.0365C56.4567 46.6245 56.9957 46.992 57.2407 47.188C58.2697 47.9475 59.0293 48.5845 59.5438 49.099C60.3278 49.883 61.0137 50.6915 61.6017 51.549C62.2142 52.4065 62.6797 53.2395 63.0472 54.097C63.3902 54.9545 63.5617 55.763 63.4883 56.547C63.4393 57.331 63.1452 57.9925 62.6062 58.5315C62.0672 59.0705 61.4058 59.3645 60.6217 59.4135C59.8622 59.4625 59.0293 59.3155 58.1963 58.948C57.3388 58.605 56.4813 58.115 55.6483 57.5025C54.7908 56.9145 53.9823 56.2285 53.1982 55.4445C52.6838 54.93 52.0468 54.1705 51.3118 53.166C51.0668 52.8475 50.6993 52.3085 50.1602 51.549C49.6213 50.765 49.1803 50.1525 48.7882 49.638C48.3962 49.148 48.0778 48.7805 47.7103 48.413C45.1673 49.7446 42.2657 50.2297 39.4278 49.7979C36.59 49.366 33.964 48.0397 31.9323 46.012C26.6892 40.7445 26.6892 32.194 31.9323 26.951C33.1833 25.6985 34.6689 24.7048 36.3042 24.0269C37.9396 23.3489 39.6925 23 41.4628 23C43.233 23 44.9859 23.3489 46.6213 24.0269C48.2566 24.7048 49.7422 25.6985 50.9933 26.951ZM47.5387 42.533C49.1393 40.9207 50.0375 38.7411 50.0375 36.4693C50.0375 34.1974 49.1393 32.0178 47.5387 30.4055C46.7433 29.6077 45.7982 28.9747 44.7577 28.5428C43.7172 28.1109 42.6016 27.8886 41.475 27.8886C40.3484 27.8886 39.2328 28.1109 38.1923 28.5428C37.1518 28.9747 36.2067 29.6077 35.4113 30.4055C34.6134 31.201 33.9804 32.146 33.5485 33.1866C33.1166 34.2271 32.8943 35.3426 32.8943 36.4693C32.8943 37.5959 33.1166 38.7114 33.5485 39.7519C33.9804 40.7925 34.6134 41.7376 35.4113 42.533C36.2067 43.3308 37.1518 43.9638 38.1923 44.3957C39.2328 44.8276 40.3484 45.05 41.475 45.05C42.6016 45.05 43.7172 44.8276 44.7577 44.3957C45.7982 43.9638 46.7433 43.3308 47.5387 42.533Z" fill="white"/>
<defs>
<filter id="filter0_f_23_3528" x="0" y="0" width="90" height="90" filterUnits="userSpaceOnUse" color-interpolation-filters="sRGB">
<feFlood flood-opacity="0" result="BackgroundImageFix"/>
<feBlend mode="normal" in="SourceGraphic" in2="BackgroundImageFix" result="shape"/>
<feGaussianBlur stdDeviation="2.5" result="effect1_foregroundBlur_23_3528"/>
</filter>
<linearGradient id="paint0_linear_23_3528" x1="45" y1="82" x2="45" y2="-48.5" gradientUnits="userSpaceOnUse">
<stop stop-color="#A0171C"/>
<stop offset="1" stop-color="#B21E23" stop-opacity="0.48"/>
</linearGradient>
</defs>
</svg>
