<svg width="90" height="90" viewBox="0 0 90 90" fill="none" xmlns="http://www.w3.org/2000/svg">
<g filter="url(#filter0_f_23_3524)">
<circle cx="45" cy="45" r="40" fill="#391400" fill-opacity="0.5"/>
</g>
<circle cx="45" cy="42" r="40" fill="url(#paint0_linear_23_3524)"/>
<path d="M64.3408 33.2403L51.9433 31.4385L46.4013 20.2031C46.2499 19.8955 46.0009 19.6465 45.6933 19.4951C44.9218 19.1143 43.9843 19.4317 43.5986 20.2031L38.0566 31.4385L25.6591 33.2403C25.3173 33.2891 25.0048 33.4502 24.7655 33.6944C24.4763 33.9917 24.3169 34.3916 24.3224 34.8064C24.3279 35.2211 24.4978 35.6167 24.7948 35.9063L33.7646 44.6514L31.6454 57C31.5957 57.2873 31.6275 57.5827 31.7372 57.8528C31.8469 58.1229 32.03 58.3569 32.2659 58.5282C32.5018 58.6995 32.7809 58.8013 33.0717 58.8221C33.3625 58.8428 33.6533 58.7816 33.9111 58.6455L44.9999 52.8155L56.0888 58.6455C56.3915 58.8067 56.7431 58.8604 57.08 58.8018C57.9296 58.6553 58.5009 57.8496 58.3544 57L56.2353 44.6514L65.205 35.9063C65.4492 35.667 65.6103 35.3545 65.6591 35.0127C65.791 34.1582 65.1953 33.3672 64.3408 33.2403Z" fill="white"/>
<defs>
<filter id="filter0_f_23_3524" x="0" y="0" width="90" height="90" filterUnits="userSpaceOnUse" color-interpolation-filters="sRGB">
<feFlood flood-opacity="0" result="BackgroundImageFix"/>
<feBlend mode="normal" in="SourceGraphic" in2="BackgroundImageFix" result="shape"/>
<feGaussianBlur stdDeviation="2.5" result="effect1_foregroundBlur_23_3524"/>
</filter>
<linearGradient id="paint0_linear_23_3524" x1="45" y1="82" x2="45" y2="-48.5" gradientUnits="userSpaceOnUse">
<stop stop-color="#A0171C"/>
<stop offset="1" stop-color="#B21E23" stop-opacity="0.48"/>
</linearGradient>
</defs>
</svg>
