<svg width="119" height="118" viewBox="0 0 119 118" fill="none" xmlns="http://www.w3.org/2000/svg">
<g filter="url(#filter0_dii_427_1620)">
<rect x="10.4998" y="5.00012" width="98.0007" height="98" rx="49" fill="#BF4546"/>
<path d="M40.5043 72.231C40.5057 72.3334 40.5273 72.4346 40.5679 72.5287C40.6084 72.6228 40.6671 72.7079 40.7405 72.7794C40.814 72.8508 40.9008 72.907 40.996 72.9449C41.0912 72.9827 41.1929 73.0015 41.2953 73H77.7023C77.8048 73.0016 77.9067 72.983 78.002 72.9452C78.0973 72.9074 78.1842 72.8511 78.2577 72.7797C78.3313 72.7083 78.3901 72.6231 78.4307 72.5289C78.4712 72.4348 78.4929 72.3335 78.4943 72.231V71.313C78.5123 71.036 78.5493 69.656 77.6393 68.129C77.0653 67.166 76.2323 66.335 75.1633 65.657C73.8703 64.837 72.2253 64.244 70.2353 63.887C69.2251 63.7449 68.2231 63.5499 67.2333 63.303C64.6013 62.631 64.3713 62.036 64.3693 62.03C64.3541 61.9713 64.332 61.9145 64.3033 61.861C64.2813 61.751 64.2283 61.333 64.3303 60.214C64.5883 57.371 66.1133 55.691 67.3383 54.341C67.7243 53.916 68.0893 53.513 68.3703 53.119C69.5833 51.419 69.6953 49.484 69.7003 49.364C69.7049 49.1514 69.6755 48.9394 69.6133 48.736C69.4933 48.366 69.2703 48.136 69.1063 47.966C69.0675 47.9271 69.0298 47.8871 68.9933 47.846C68.9813 47.832 68.9493 47.794 68.9783 47.603C69.0764 46.9877 69.1441 46.368 69.1813 45.746C69.2373 44.744 69.2803 43.246 69.0213 41.787C68.9833 41.5083 68.9258 41.2327 68.8493 40.962C68.5763 39.958 68.1383 39.1 67.5293 38.392C67.4243 38.277 64.8763 35.592 57.4793 35.042C56.4563 34.966 55.4453 35.007 54.4493 35.058C54.1548 35.0646 53.8616 35.1007 53.5743 35.166C52.8103 35.363 52.6063 35.847 52.5533 36.118C52.4643 36.568 52.6203 36.916 52.7233 37.148C52.7383 37.181 52.7573 37.222 52.7243 37.33C52.5533 37.596 52.2823 37.836 52.0073 38.063C51.9273 38.13 50.0733 39.73 49.9713 41.819C49.6963 43.408 49.7163 45.883 50.0413 47.594C50.0613 47.689 50.0883 47.829 50.0433 47.924C49.6933 48.237 49.2973 48.592 49.2983 49.402C49.3023 49.484 49.4153 51.418 50.6283 53.119C50.9083 53.513 51.2733 53.915 51.6583 54.34L51.6603 54.341C52.8853 55.691 54.4103 57.371 54.6683 60.213C54.7693 61.333 54.7163 61.75 54.6953 61.861C54.6663 61.9145 54.6438 61.9712 54.6283 62.03C54.6273 62.036 54.3983 62.629 51.7783 63.3C50.2663 63.687 48.7783 63.885 48.7333 63.89C46.7993 64.217 45.1643 64.796 43.8733 65.611C42.8083 66.284 41.9733 67.118 41.3933 68.088C40.4653 69.638 40.4903 71.05 40.5033 71.308V72.231H40.5043Z" stroke="white" stroke-width="4" stroke-linejoin="round"/>
</g>
<defs>
<filter id="filter0_dii_427_1620" x="0.499756" y="0.00012207" width="118.001" height="118" filterUnits="userSpaceOnUse" color-interpolation-filters="sRGB">
<feFlood flood-opacity="0" result="BackgroundImageFix"/>
<feColorMatrix in="SourceAlpha" type="matrix" values="0 0 0 0 0 0 0 0 0 0 0 0 0 0 0 0 0 0 127 0" result="hardAlpha"/>
<feOffset dy="5"/>
<feGaussianBlur stdDeviation="5"/>
<feComposite in2="hardAlpha" operator="out"/>
<feColorMatrix type="matrix" values="0 0 0 0 0 0 0 0 0 0 0 0 0 0 0 0 0 0 0.15 0"/>
<feBlend mode="normal" in2="BackgroundImageFix" result="effect1_dropShadow_427_1620"/>
<feBlend mode="normal" in="SourceGraphic" in2="effect1_dropShadow_427_1620" result="shape"/>
<feColorMatrix in="SourceAlpha" type="matrix" values="0 0 0 0 0 0 0 0 0 0 0 0 0 0 0 0 0 0 127 0" result="hardAlpha"/>
<feOffset dy="4"/>
<feGaussianBlur stdDeviation="2"/>
<feComposite in2="hardAlpha" operator="arithmetic" k2="-1" k3="1"/>
<feColorMatrix type="matrix" values="0 0 0 0 0.9375 0 0 0 0 0.621094 0 0 0 0 0.631783 0 0 0 0.5 0"/>
<feBlend mode="normal" in2="shape" result="effect2_innerShadow_427_1620"/>
<feColorMatrix in="SourceAlpha" type="matrix" values="0 0 0 0 0 0 0 0 0 0 0 0 0 0 0 0 0 0 127 0" result="hardAlpha"/>
<feOffset dy="-4"/>
<feGaussianBlur stdDeviation="2"/>
<feComposite in2="hardAlpha" operator="arithmetic" k2="-1" k3="1"/>
<feColorMatrix type="matrix" values="0 0 0 0 0.454167 0 0 0 0 0.213837 0 0 0 0 0.213837 0 0 0 0.5 0"/>
<feBlend mode="normal" in2="effect2_innerShadow_427_1620" result="effect3_innerShadow_427_1620"/>
</filter>
</defs>
</svg>
