<svg width="90" height="90" viewBox="0 0 90 90" fill="none" xmlns="http://www.w3.org/2000/svg">
<g filter="url(#filter0_f_23_3537)">
<circle cx="45" cy="45" r="40" fill="#391400" fill-opacity="0.5"/>
</g>
<circle cx="45" cy="42" r="40" fill="url(#paint0_linear_23_3537)"/>
<path d="M26.0046 60.2309C26.006 60.3333 26.0276 60.4345 26.0681 60.5286C26.1087 60.6226 26.1673 60.7078 26.2408 60.7792C26.3142 60.8506 26.401 60.9069 26.4962 60.9447C26.5914 60.9826 26.6931 61.0013 26.7956 60.9999H63.2026C63.3051 61.0015 63.4069 60.9828 63.5022 60.945C63.5975 60.9072 63.6844 60.851 63.758 60.7796C63.8316 60.7082 63.8903 60.6229 63.9309 60.5288C63.9715 60.4346 63.9931 60.3334 63.9946 60.2309V59.3129C64.0126 59.0359 64.0496 57.6559 63.1396 56.1289C62.5656 55.1659 61.7326 54.3349 60.6636 53.6569C59.3706 52.8369 57.7256 52.2439 55.7356 51.8869C54.7254 51.7447 53.7234 51.5498 52.7336 51.3029C50.1016 50.6309 49.8716 50.0359 49.8696 50.0299C49.8544 49.9711 49.8322 49.9144 49.8036 49.8609C49.7816 49.7509 49.7286 49.3329 49.8306 48.2139C50.0886 45.3709 51.6136 43.6909 52.8386 42.3409C53.2246 41.9159 53.5896 41.5129 53.8706 41.1189C55.0836 39.4189 55.1956 37.4839 55.2006 37.3639C55.2051 37.1513 55.1758 36.9393 55.1136 36.7359C54.9936 36.3659 54.7706 36.1359 54.6066 35.9659C54.5678 35.927 54.5301 35.887 54.4936 35.8459C54.4816 35.8319 54.4496 35.7939 54.4786 35.6029C54.5766 34.9876 54.6444 34.3678 54.6816 33.7459C54.7376 32.7439 54.7806 31.2459 54.5216 29.7869C54.4835 29.5082 54.4261 29.2325 54.3496 28.9619C54.0766 27.9579 53.6386 27.0999 53.0296 26.3919C52.9246 26.2769 50.3766 23.5919 42.9796 23.0419C41.9566 22.9659 40.9456 23.0069 39.9496 23.0579C39.655 23.0644 39.3619 23.1006 39.0746 23.1659C38.3106 23.3629 38.1066 23.8469 38.0536 24.1179C37.9646 24.5679 38.1206 24.9159 38.2236 25.1479C38.2386 25.1809 38.2576 25.2219 38.2246 25.3299C38.0536 25.5959 37.7826 25.8359 37.5076 26.0629C37.4276 26.1299 35.5736 27.7299 35.4716 29.8189C35.1966 31.4079 35.2166 33.8829 35.5416 35.5939C35.5616 35.6889 35.5886 35.8289 35.5436 35.9239C35.1936 36.2369 34.7976 36.5919 34.7986 37.4019C34.8026 37.4839 34.9156 39.4179 36.1286 41.1189C36.4086 41.5129 36.7736 41.9149 37.1586 42.3399L37.1606 42.3409C38.3856 43.6909 39.9106 45.3709 40.1686 48.2129C40.2696 49.3329 40.2166 49.7499 40.1956 49.8609C40.1665 49.9143 40.144 49.9711 40.1286 50.0299C40.1276 50.0359 39.8986 50.6289 37.2786 51.2999C35.7666 51.6869 34.2786 51.8849 34.2336 51.8899C32.2996 52.2169 30.6646 52.7959 29.3736 53.6109C28.3086 54.2839 27.4736 55.1179 26.8936 56.0879C25.9656 57.6379 25.9906 59.0499 26.0036 59.3079V60.2309H26.0046Z" stroke="white" stroke-width="4" stroke-linejoin="round"/>
<defs>
<filter id="filter0_f_23_3537" x="0" y="0" width="90" height="90" filterUnits="userSpaceOnUse" color-interpolation-filters="sRGB">
<feFlood flood-opacity="0" result="BackgroundImageFix"/>
<feBlend mode="normal" in="SourceGraphic" in2="BackgroundImageFix" result="shape"/>
<feGaussianBlur stdDeviation="2.5" result="effect1_foregroundBlur_23_3537"/>
</filter>
<linearGradient id="paint0_linear_23_3537" x1="45" y1="82" x2="45" y2="-48.5" gradientUnits="userSpaceOnUse">
<stop stop-color="#A0171C"/>
<stop offset="1" stop-color="#B21E23" stop-opacity="0.48"/>
</linearGradient>
</defs>
</svg>
