<svg width="550" height="513" viewBox="0 0 550 513" fill="none" xmlns="http://www.w3.org/2000/svg">
<path d="M469.913 440.47C458.998 451.499 448.671 458.611 440.512 464.231C344.601 530.285 231.114 511.03 206.994 506.328C171.378 499.384 102.532 485.963 52.7573 429.779C-22.5475 344.778 -10.8213 210.861 47.59 122.461C58.2745 106.291 114.712 16.5432 229.422 2.15067C298.843 -6.55961 379.766 11.0082 438.368 58.1338C561.379 157.055 552.622 356.892 469.913 440.47Z" fill="#383A3C" fill-opacity="0.25"/>
<path d="M490.853 186.802C491.669 186.295 492.476 185.77 493.253 185.241C493.576 185.021 493.651 184.591 493.423 184.281C493.193 183.97 492.746 183.897 492.423 184.118C491.662 184.635 490.872 185.149 490.073 185.646C489.865 185.775 489.751 185.99 489.746 186.21C489.743 186.343 489.78 186.478 489.861 186.598C490.076 186.918 490.52 187.009 490.853 186.802Z" fill="#BF4546"/>
<path d="M446.526 195.822C446.132 195.785 445.781 196.062 445.742 196.44C445.741 196.458 445.739 196.476 445.739 196.493C445.731 196.85 446.011 197.157 446.386 197.193C448.115 197.355 449.87 197.455 451.603 197.491C451.835 197.496 452.066 197.5 452.298 197.502C452.692 197.506 453.015 197.205 453.023 196.828C453.023 196.826 453.023 196.823 453.023 196.821C453.028 196.44 452.71 196.129 452.314 196.125C452.087 196.122 451.86 196.118 451.634 196.114C449.937 196.079 448.219 195.981 446.526 195.822Z" fill="#BF4546"/>
<path d="M385.174 130.313C385.175 130.31 385.175 130.307 385.175 130.304C385.194 128.451 385.292 126.582 385.474 124.747C385.513 124.362 385.221 124.032 384.828 123.996C384.433 123.96 384.083 124.238 384.046 124.616C383.887 126.211 383.789 127.835 383.753 129.443C383.747 129.725 383.743 130.008 383.74 130.291C383.736 130.672 384.054 130.983 384.45 130.986C384.844 130.99 385.166 130.689 385.174 130.313Z" fill="#BF4546"/>
<path d="M461.087 196.264C461.087 196.299 461.088 196.333 461.093 196.368C461.144 196.745 461.503 197.012 461.896 196.963C463.841 196.723 465.804 196.398 467.73 195.999C468.118 195.918 468.36 195.553 468.28 195.18C468.196 194.808 467.814 194.572 467.427 194.652C465.541 195.044 463.618 195.361 461.713 195.597C461.356 195.641 461.095 195.929 461.087 196.264Z" fill="#BF4546"/>
<path d="M476.004 192.776C476.002 192.86 476.016 192.944 476.047 193.027C476.183 193.384 476.596 193.568 476.968 193.438C478.819 192.789 480.659 192.059 482.437 191.265C482.797 191.105 482.952 190.696 482.785 190.351C482.618 190.006 482.192 189.856 481.833 190.017C480.091 190.793 478.289 191.509 476.475 192.144C476.189 192.244 476.01 192.501 476.004 192.776Z" fill="#BF4546"/>
<path d="M399.436 172.006C399.749 171.771 399.804 171.338 399.56 171.039C398.373 169.581 397.24 168.059 396.192 166.513C395.975 166.195 395.531 166.104 395.199 166.311C394.992 166.441 394.878 166.655 394.873 166.875C394.87 167.008 394.908 167.144 394.989 167.264C396.06 168.843 397.217 170.398 398.429 171.887C398.673 172.187 399.124 172.24 399.436 172.006Z" fill="#BF4546"/>
<path d="M409.285 182.514C409.592 182.753 410.044 182.709 410.295 182.414C410.543 182.12 410.498 181.686 410.191 181.445C408.697 180.277 407.238 179.035 405.856 177.753C405.571 177.489 405.117 177.496 404.841 177.769C404.71 177.899 404.644 178.066 404.64 178.233C404.636 178.418 404.709 178.604 404.858 178.743C406.27 180.052 407.759 181.321 409.285 182.514Z" fill="#BF4546"/>
<path d="M386.201 145.626C386.589 145.545 386.837 145.179 386.749 144.806C386.337 142.999 386.001 141.155 385.749 139.324C385.697 138.947 385.337 138.682 384.944 138.731C384.588 138.776 384.328 139.064 384.321 139.399C384.32 139.433 384.322 139.469 384.327 139.504C384.584 141.373 384.927 143.256 385.347 145.101C385.432 145.472 385.815 145.707 386.201 145.626Z" fill="#BF4546"/>
<path d="M416.899 186.885C416.832 186.992 416.798 187.11 416.796 187.227C416.79 187.465 416.914 187.698 417.141 187.831C418.824 188.81 420.569 189.731 422.327 190.568C422.682 190.737 423.113 190.598 423.289 190.257C423.465 189.917 423.32 189.503 422.965 189.334C421.243 188.515 419.534 187.612 417.885 186.653C417.546 186.456 417.105 186.56 416.899 186.885Z" fill="#BF4546"/>
<path d="M430.761 193.217C430.738 193.284 430.725 193.353 430.724 193.421C430.717 193.714 430.909 193.991 431.215 194.088C433.079 194.686 434.993 195.214 436.904 195.656C437.289 195.746 437.676 195.518 437.77 195.148C437.862 194.777 437.626 194.407 437.241 194.317C435.37 193.884 433.495 193.367 431.668 192.782C431.293 192.661 430.887 192.856 430.761 193.217Z" fill="#BF4546"/>
<path d="M391.272 159.533C391.631 159.372 391.787 158.961 391.618 158.617C390.804 156.948 390.054 155.22 389.388 153.483C389.251 153.126 388.838 152.942 388.467 153.074C388.181 153.175 388.003 153.431 387.997 153.706C387.995 153.789 388.009 153.875 388.041 153.958C388.721 155.732 389.487 157.496 390.318 159.201C390.486 159.545 390.913 159.694 391.272 159.533Z" fill="#BF4546"/>
<path d="M387.024 115.798C387.247 114.906 387.488 114.019 387.742 113.162C387.848 112.796 387.629 112.414 387.247 112.311C386.866 112.207 386.47 112.419 386.361 112.785C386.102 113.661 385.855 114.567 385.628 115.476C385.616 115.526 385.61 115.575 385.609 115.623C385.602 115.94 385.824 116.23 386.159 116.307C386.544 116.395 386.932 116.168 387.024 115.798Z" fill="#BF4546"/>
<path d="M418.653 74.6961C419.46 74.2405 420.293 73.7923 421.13 73.364C421.479 73.1853 421.611 72.7695 421.425 72.4326C421.239 72.0973 420.804 71.9696 420.455 72.1487C419.6 72.5855 418.749 73.0434 417.925 73.5082C417.702 73.6342 417.577 73.8572 417.571 74.0883C417.569 74.2115 417.6 74.337 417.671 74.4512C417.871 74.779 418.311 74.8887 418.653 74.6961Z" fill="#BF4546"/>
<path d="M513.137 98.8583C513.481 98.6699 513.6 98.2493 513.406 97.9189C512.45 96.3067 511.409 94.7132 510.312 93.1822C510.088 92.8687 509.642 92.7891 509.315 93.0044C509.117 93.1352 509.009 93.344 509.004 93.5581C509.001 93.6972 509.042 93.8385 509.13 93.9623C510.203 95.4613 511.223 97.0217 512.159 98.6003C512.355 98.9309 512.792 99.0463 513.137 98.8583Z" fill="#BF4546"/>
<path d="M479.051 70.6278C479.417 70.7732 479.837 70.6062 479.988 70.2545C480.141 69.9032 479.966 69.5003 479.6 69.3549C477.812 68.6445 475.972 67.9988 474.13 67.4356C473.752 67.3203 473.349 67.5205 473.228 67.8827C473.206 67.9474 473.196 68.0128 473.195 68.0774C473.188 68.3746 473.384 68.6529 473.694 68.748C475.498 69.2994 477.3 69.9321 479.051 70.6278Z" fill="#BF4546"/>
<path d="M499.131 82.5948C499.127 82.7848 499.204 82.9756 499.361 83.1152C500.751 84.352 502.101 85.6595 503.376 87.001C503.643 87.2821 504.097 87.3021 504.39 87.0457C504.682 86.79 504.702 86.3539 504.437 86.073C503.135 84.703 501.756 83.3679 500.337 82.105C500.046 81.8465 499.592 81.8626 499.322 82.1417C499.198 82.2704 499.135 82.4324 499.131 82.5948Z" fill="#BF4546"/>
<path d="M492.154 77.5294C492.479 77.7476 492.926 77.6723 493.154 77.3608C493.382 77.0485 493.303 76.6196 492.978 76.4015C491.394 75.3358 489.745 74.3218 488.075 73.3868C487.732 73.1949 487.293 73.3063 487.094 73.6348C487.029 73.7391 486.998 73.8532 486.996 73.9662C486.99 74.2083 487.118 74.4461 487.351 74.5767C488.988 75.4924 490.603 76.4857 492.154 77.5294Z" fill="#BF4546"/>
<path d="M518.968 112.23C519.347 112.118 519.564 111.733 519.444 111.369C518.876 109.589 518.225 107.816 517.509 106.098C517.362 105.745 516.945 105.573 516.577 105.714C516.302 105.82 516.132 106.071 516.126 106.339C516.124 106.429 516.14 106.521 516.177 106.609C516.878 108.292 517.516 110.029 518.073 111.773C518.189 112.136 518.59 112.341 518.968 112.23Z" fill="#BF4546"/>
<path d="M449.774 65.7619C450.17 65.7429 450.475 65.4242 450.454 65.0392C450.435 64.6593 450.098 64.3669 449.702 64.386C447.773 64.4792 445.822 64.653 443.902 64.9026C443.547 64.9488 443.288 65.2363 443.281 65.5691C443.28 65.6048 443.282 65.6413 443.287 65.6773C443.34 66.0546 443.702 66.3186 444.095 66.2675C445.975 66.0232 447.886 65.8532 449.774 65.7619Z" fill="#BF4546"/>
<path d="M464.694 66.633C465.084 66.6978 465.456 66.4467 465.523 66.072C465.59 65.6976 465.329 65.3408 464.939 65.2757C463.032 64.9581 461.089 64.7151 459.164 64.5533C458.769 64.5203 458.421 64.8008 458.386 65.1794C458.385 65.1951 458.384 65.2103 458.384 65.2255C458.376 65.5852 458.66 65.8939 459.039 65.9258C460.924 66.084 462.826 66.322 464.694 66.633Z" fill="#BF4546"/>
<path d="M429.586 69.7313C431.36 69.105 433.187 68.5413 435.018 68.0556C435.4 67.9545 435.621 67.5744 435.518 67.2081C435.413 66.8416 435.018 66.6264 434.635 66.7277C432.766 67.2236 430.901 67.7989 429.091 68.4387C428.806 68.5396 428.627 68.7955 428.621 69.0704C428.619 69.1542 428.634 69.2395 428.665 69.323C428.803 69.6795 429.215 69.8628 429.586 69.7313Z" fill="#BF4546"/>
<path d="M520.991 140.986C521.384 141.041 521.747 140.779 521.803 140.403C522.081 138.564 522.279 136.692 522.393 134.84C522.423 134.454 522.115 134.135 521.719 134.112C521.323 134.09 520.984 134.38 520.96 134.759C520.849 136.572 520.654 138.405 520.384 140.205C520.379 140.234 520.377 140.262 520.376 140.291C520.369 140.633 520.628 140.935 520.991 140.986Z" fill="#BF4546"/>
<path d="M521.641 126.501C522.035 126.471 522.326 126.141 522.3 125.76C522.15 123.915 521.914 122.048 521.601 120.21C521.537 119.835 521.168 119.58 520.777 119.642C520.43 119.696 520.183 119.98 520.175 120.306C520.174 120.347 520.177 120.39 520.185 120.432C520.492 122.233 520.722 124.061 520.869 125.868C520.9 126.247 521.246 126.531 521.641 126.501Z" fill="#BF4546"/>
<path d="M518.941 151.972C519.248 151.089 519.538 150.195 519.802 149.316C519.912 148.949 519.692 148.569 519.311 148.463C518.93 148.358 518.533 148.569 518.423 148.934C518.165 149.795 517.881 150.671 517.58 151.535C517.556 151.603 517.544 151.672 517.543 151.739C517.536 152.033 517.727 152.309 518.033 152.407C518.409 152.527 518.815 152.333 518.941 151.972Z" fill="#BF4546"/>
<path d="M500.655 152.845C500.84 152.559 500.816 152.19 500.594 151.929L494.259 144.466C495.755 140.206 496.554 135.686 496.553 131.06L505.032 125.931C505.33 125.751 505.475 125.41 505.395 125.081L502.65 113.84C502.569 113.511 502.28 113.267 501.931 113.233L491.96 112.256C489.819 108.111 487.011 104.403 483.698 101.225L485.917 91.837C485.995 91.5081 485.847 91.1681 485.548 90.9902L475.325 84.9044C475.026 84.7264 474.642 84.7503 474.37 84.9635L466.595 91.0434C462.157 89.6076 457.448 88.8409 452.628 88.8418L447.284 80.7032C447.097 80.4178 446.742 80.2778 446.399 80.3547L434.687 82.9901C434.345 83.067 434.091 83.3443 434.055 83.68L433.037 93.2503C428.719 95.3055 424.856 98.0009 421.545 101.18L411.764 99.0507C411.422 98.9762 411.067 99.1184 410.882 99.4052L404.542 109.218C404.357 109.504 404.381 109.873 404.603 110.134L410.937 117.597C409.442 121.857 408.643 126.377 408.644 131.003L400.165 136.132C399.868 136.312 399.722 136.653 399.802 136.982L402.547 148.224C402.627 148.552 402.916 148.796 403.266 148.83L413.236 149.807C415.378 153.952 418.186 157.66 421.499 160.838L419.28 170.226C419.202 170.555 419.351 170.895 419.649 171.073L429.872 177.159C430.171 177.336 430.554 177.313 430.827 177.1L438.602 171.02C443.04 172.456 447.749 173.222 452.569 173.221L457.913 181.36C458.1 181.645 458.455 181.786 458.797 181.708L470.51 179.073C470.852 178.996 471.106 178.719 471.141 178.383L472.16 168.813C476.478 166.758 480.341 164.062 483.652 160.883L493.432 163.012C493.775 163.087 494.129 162.945 494.315 162.658L500.655 152.845Z" fill="#BF4546"/>
<path d="M440.838 130.804C440.862 129.733 441.046 128.661 441.394 127.612C442.345 124.739 444.405 122.394 447.194 121.008C449.983 119.623 453.168 119.363 456.161 120.276C459.154 121.19 461.597 123.167 463.041 125.844C464.484 128.521 464.755 131.578 463.804 134.451C462.852 137.324 460.792 139.669 458.002 141.054C455.213 142.44 452.029 142.7 449.036 141.786C446.043 140.873 443.6 138.896 442.156 136.218C441.24 134.519 440.796 132.665 440.838 130.804ZM462.206 131.217C462.24 129.696 461.877 128.183 461.128 126.794C459.95 124.607 457.954 122.991 455.508 122.245C453.064 121.499 450.463 121.711 448.184 122.843C445.905 123.975 444.222 125.891 443.445 128.238C442.666 130.585 442.888 133.082 444.068 135.269C445.247 137.456 447.243 139.071 449.688 139.817C452.133 140.564 454.734 140.351 457.013 139.219C459.292 138.087 460.975 136.172 461.752 133.825C462.036 132.968 462.186 132.092 462.206 131.217ZM462.085 126.319L462.084 126.326L462.085 126.319Z" fill="#FCD5CF"/>
<path d="M422.271 130.303C422.559 117.437 431.857 105.858 445.499 102.788C448.017 102.221 450.536 101.978 453.009 102.029C466.415 102.303 478.481 111.229 481.68 124.325C481.737 124.56 481.791 124.796 481.843 125.033C482.189 126.629 482.396 128.249 482.459 129.863C482.467 130.051 482.472 130.24 482.476 130.428L480.323 130.465C480.288 128.571 480.039 126.663 479.583 124.796C479.58 124.779 479.575 124.761 479.571 124.743C476.029 110.372 460.977 101.427 445.991 104.799C430.987 108.176 421.642 122.639 425.158 137.043C428.128 149.202 439.331 157.49 451.778 157.745C454.075 157.792 456.413 157.566 458.75 157.04C463.683 155.93 468.203 153.563 471.819 150.195L473.318 151.677C469.422 155.306 464.555 157.856 459.242 159.052C456.724 159.618 454.206 159.862 451.732 159.811C438.327 159.536 426.261 150.61 423.062 137.515C422.472 135.098 422.218 132.678 422.271 130.303Z" fill="#FCD5CF"/>
<path d="M367.92 73.3774C368.057 73.3945 368.183 73.474 368.25 73.6012C368.508 74.0913 368.777 74.5778 369.05 75.0476C369.167 75.247 369.093 75.4991 368.885 75.6105C368.677 75.7218 368.414 75.6507 368.298 75.4513C368.018 74.9719 367.743 74.4749 367.48 73.9743C367.373 73.7703 367.458 73.5213 367.67 73.4184C367.75 73.3796 367.837 73.367 367.92 73.3774Z" fill="#BF4546"/>
<path d="M418.563 18.185C418.593 18.1887 418.623 18.1955 418.653 18.2055C419.204 18.3943 419.752 18.5941 420.281 18.799C420.502 18.8849 420.609 19.126 420.519 19.3379C420.43 19.5502 420.179 19.6508 419.958 19.5669C419.44 19.366 418.904 19.1705 418.363 18.9855C418.138 18.9088 418.022 18.6717 418.102 18.4568C418.171 18.2696 418.366 18.1605 418.563 18.185Z" fill="#BF4546"/>
<path d="M442.366 39.1894C442.51 39.2073 442.64 39.2935 442.704 39.4295C442.941 39.9321 443.171 40.4499 443.388 40.9682C443.477 41.1801 443.37 41.4214 443.149 41.5064C442.927 41.5914 442.677 41.4889 442.588 41.277C442.375 40.7697 442.15 40.2629 441.918 39.7707C441.82 39.5624 441.917 39.3171 442.134 39.223C442.209 39.19 442.289 39.18 442.366 39.1894Z" fill="#BF4546"/>
<path d="M363.503 56.2926C363.482 56.2899 363.46 56.2889 363.438 56.2892C363.2 56.2942 363.011 56.4829 363.016 56.7118C363.041 57.8426 363.117 58.9895 363.241 60.12C363.267 60.3474 363.479 60.5103 363.716 60.4881C363.953 60.464 364.124 60.2601 364.099 60.0326C363.977 58.9255 363.902 57.8022 363.879 56.6943C363.874 56.4869 363.711 56.3185 363.503 56.2926Z" fill="#BF4546"/>
<path d="M399.845 16.5955C399.871 16.823 400.083 16.9892 400.321 16.9626C401.472 16.8426 402.642 16.7681 403.798 16.7417C404.036 16.7362 404.225 16.5464 404.219 16.3179C404.214 16.111 404.051 15.9432 403.843 15.9174C403.822 15.9148 403.8 15.9135 403.777 15.9141C402.597 15.9412 401.403 16.0171 400.227 16.1396C399.991 16.1639 399.82 16.3686 399.845 16.5955Z" fill="#BF4546"/>
<path d="M409.445 16.9914C409.447 16.9916 409.449 16.9919 409.451 16.9921C410.603 17.1222 411.76 17.299 412.891 17.521C413.129 17.5683 413.352 17.422 413.4 17.1985C413.448 16.9745 413.298 16.7557 413.064 16.71C412.082 16.5167 411.077 16.356 410.078 16.232C409.903 16.2102 409.727 16.1896 409.551 16.1698C409.314 16.1431 409.1 16.3059 409.073 16.5328C409.045 16.7583 409.212 16.9622 409.445 16.9914Z" fill="#BF4546"/>
<path d="M364.242 65.5832C364.526 66.6869 364.863 67.7891 365.243 68.8599C365.319 69.0769 365.564 69.192 365.79 69.1185C366.015 69.0451 366.136 68.8099 366.059 68.5937C365.688 67.5449 365.358 66.4653 365.079 65.3839C365.035 65.2134 364.887 65.0942 364.716 65.0729C364.664 65.0666 364.61 65.069 364.557 65.0819C364.326 65.1367 364.185 65.3612 364.242 65.5832Z" fill="#BF4546"/>
<path d="M364.715 47.9693C364.763 47.7454 364.614 47.5263 364.381 47.4796C364.37 47.4777 364.359 47.476 364.348 47.4745C364.127 47.447 363.917 47.5875 363.871 47.8006C363.659 48.7819 363.483 49.7821 363.35 50.7739C363.332 50.9066 363.315 51.0389 363.298 51.1719C363.27 51.3975 363.437 51.6021 363.671 51.6312C363.672 51.6314 363.674 51.6313 363.676 51.6315C363.912 51.6584 364.127 51.4965 364.155 51.2695C364.171 51.1398 364.188 51.0097 364.205 50.8801C364.336 49.9091 364.507 48.9298 364.715 47.9693Z" fill="#BF4546"/>
<path d="M382.571 22.4907C382.696 22.6855 382.963 22.7444 383.165 22.6235C384.149 22.0366 385.169 21.4847 386.199 20.983C386.411 20.8792 386.496 20.63 386.388 20.4263C386.321 20.2993 386.195 20.2202 386.059 20.203C385.976 20.1929 385.889 20.2058 385.809 20.2446C384.757 20.7572 383.714 21.321 382.709 21.9207C382.507 22.0414 382.445 22.2966 382.571 22.4907Z" fill="#BF4546"/>
<path d="M372.184 31.5502C372.122 31.5045 372.051 31.4777 371.978 31.4687C371.83 31.4502 371.677 31.5062 371.58 31.6278C370.862 32.5305 370.176 33.4719 369.542 34.4264C369.414 34.6192 369.473 34.8752 369.674 34.9979C369.875 35.1211 370.141 35.0641 370.27 34.8715C370.89 33.9364 371.562 33.0144 372.265 32.1302C372.41 31.9485 372.374 31.689 372.184 31.5502Z" fill="#BF4546"/>
<path d="M375.395 27.4637C375.226 27.6245 375.225 27.8865 375.393 28.0491C375.56 28.2106 375.833 28.2126 376.002 28.0518C376.825 27.2701 377.693 26.5134 378.58 25.803C378.763 25.6566 378.788 25.3955 378.635 25.2199C378.563 25.1363 378.463 25.0873 378.359 25.0744C378.245 25.0603 378.124 25.09 378.028 25.167C377.122 25.8924 376.236 26.6648 375.395 27.4637Z" fill="#BF4546"/>
<path d="M367.351 39.094C367.31 39.0763 367.268 39.065 367.226 39.0597C367.044 39.0371 366.86 39.1292 366.779 39.2982C366.287 40.3293 365.835 41.3933 365.437 42.4606C365.357 42.676 365.473 42.9128 365.698 42.9902C365.923 43.067 366.169 42.9556 366.249 42.7403C366.639 41.6951 367.081 40.6527 367.563 39.6425C367.662 39.4347 367.567 39.1895 367.351 39.094Z" fill="#BF4546"/>
<path d="M390.861 18.6099C390.939 18.8262 391.184 18.9419 391.409 18.8669C392.501 18.5077 393.625 18.1885 394.749 17.9182C394.98 17.8628 395.121 17.6377 395.063 17.4161C395.019 17.246 394.87 17.1273 394.7 17.106C394.648 17.0997 394.594 17.1023 394.54 17.1152C393.391 17.3911 392.244 17.717 391.129 18.084C390.904 18.1582 390.784 18.3935 390.861 18.6099Z" fill="#BF4546"/>
<path d="M420.799 92.412C420.894 92.6211 421.148 92.7168 421.367 92.6265C422.432 92.1815 423.491 91.6871 424.515 91.1568C424.724 91.0482 424.802 90.7971 424.689 90.5959C424.621 90.4741 424.498 90.3986 424.365 90.382C424.278 90.3713 424.188 90.3858 424.105 90.4285C423.103 90.9476 422.066 91.4316 421.023 91.8671C420.804 91.9585 420.704 92.2022 420.799 92.412Z" fill="#BF4546"/>
<path d="M440.567 74.6761C440.453 74.8768 440.53 75.1279 440.739 75.2375C440.948 75.3478 441.21 75.2732 441.324 75.0726C441.881 74.0926 442.402 73.0787 442.871 72.0583C442.967 71.8488 442.868 71.6049 442.65 71.5126C442.611 71.496 442.572 71.4857 442.531 71.4807C442.347 71.4577 442.161 71.5524 442.082 71.724C441.622 72.7231 441.113 73.7163 440.567 74.6761Z" fill="#BF4546"/>
<path d="M412.099 94.8966C412.144 95.1207 412.37 95.2699 412.605 95.2248C413.749 95.0136 414.895 94.7539 416.011 94.4538C416.24 94.3923 416.374 94.1642 416.31 93.9437C416.261 93.7793 416.116 93.6657 415.949 93.6449C415.894 93.6382 415.835 93.6414 415.778 93.6572C414.685 93.9509 413.563 94.2049 412.441 94.4121C412.208 94.4553 412.055 94.6721 412.099 94.8966Z" fill="#BF4546"/>
<path d="M431.825 85.4241C431.707 85.4097 431.583 85.4414 431.486 85.5222C430.627 86.2401 429.726 86.9307 428.809 87.5754C428.617 87.7105 428.575 87.9695 428.716 88.1542C428.856 88.3382 429.127 88.3779 429.318 88.2435C430.255 87.5852 431.175 86.88 432.052 86.1469C432.232 85.9969 432.251 85.7354 432.095 85.5628C432.023 85.4833 431.926 85.4367 431.825 85.4241Z" fill="#BF4546"/>
<path d="M435.427 81.7479C435.27 81.9202 435.289 82.1816 435.468 82.3323C435.648 82.4831 435.92 82.4655 436.077 82.2935C436.842 81.4535 437.579 80.5723 438.269 79.6745C438.41 79.4903 438.369 79.2312 438.177 79.0958C438.117 79.0523 438.048 79.0271 437.977 79.0184C437.827 78.9998 437.671 79.0578 437.574 79.1832C436.899 80.0628 436.177 80.9257 435.427 81.7479Z" fill="#BF4546"/>
<path d="M403.042 95.5117C403.036 95.74 403.223 95.928 403.461 95.9377C404.62 95.9699 405.797 95.955 406.962 95.8934C407.199 95.8804 407.382 95.6854 407.369 95.4572C407.357 95.2546 407.196 95.0946 406.994 95.0696C406.968 95.0662 406.941 95.0652 406.914 95.0666C405.774 95.1273 404.62 95.1415 403.486 95.11C403.248 95.1032 403.049 95.2832 403.042 95.5117Z" fill="#BF4546"/>
<path d="M444.306 46.3615C444.582 47.419 444.816 48.5031 445 49.5844C445.038 49.8103 445.261 49.9614 445.495 49.9262C445.73 49.8892 445.89 49.6764 445.851 49.4507C445.663 48.3467 445.424 47.2399 445.143 46.1605C445.098 45.9903 444.95 45.8716 444.779 45.8505C444.727 45.844 444.673 45.8467 444.619 45.8595C444.389 45.9152 444.248 46.1399 444.306 46.3615Z" fill="#BF4546"/>
<path d="M394.066 94.2075C394.007 94.4292 394.146 94.6544 394.377 94.7112C395.504 94.9886 396.656 95.2224 397.802 95.4066C398.04 95.4489 398.259 95.2929 398.298 95.067C398.338 94.8416 398.179 94.6282 397.944 94.5906C396.823 94.4101 395.694 94.1806 394.591 93.9093C394.574 93.9049 394.556 93.9018 394.538 93.8997C394.326 93.8733 394.121 94.0028 394.066 94.2075Z" fill="#BF4546"/>
<path d="M445.479 58.1959C445.465 58.4244 445.644 58.6201 445.885 58.6329C446.123 58.646 446.327 58.4715 446.34 58.2433C446.406 57.131 446.424 56.0007 446.392 54.8836C446.386 54.6769 446.223 54.5098 446.017 54.4842C445.995 54.4814 445.971 54.4803 445.949 54.4808C445.711 54.487 445.523 54.6775 445.529 54.9057C445.561 56.0001 445.544 57.1071 445.479 58.1959Z" fill="#BF4546"/>
<path d="M443.977 66.698C443.912 66.9178 444.044 67.1468 444.273 67.2097C444.502 67.2722 444.741 67.1454 444.806 66.9257C445.127 65.8525 445.403 64.7532 445.627 63.6596C445.673 63.4353 445.521 63.2176 445.287 63.1736C445.278 63.1719 445.269 63.1704 445.259 63.1692C445.036 63.1415 444.825 63.2845 444.781 63.4998C444.561 64.5709 444.291 65.6467 443.977 66.698Z" fill="#BF4546"/>
<path d="M387.593 91.5378C387.635 91.543 387.677 91.5544 387.718 91.5721C388.237 91.8006 388.764 92.0196 389.283 92.2231C389.503 92.3096 389.609 92.5514 389.519 92.7627C389.429 92.9744 389.178 93.0767 388.957 92.9896C388.427 92.7815 387.888 92.5576 387.359 92.3248C387.142 92.2294 387.047 91.9841 387.146 91.7763C387.227 91.607 387.411 91.5152 387.593 91.5378Z" fill="#BF4546"/>
<path d="M387.991 81.7806C388.157 81.9052 388.388 81.9148 388.565 81.8042L393.619 78.6509C396.175 79.7828 398.937 80.5318 401.818 80.8287L404.466 86.0222C404.558 86.2043 404.762 86.3095 404.971 86.2846L412.147 85.4329C412.356 85.408 412.527 85.2582 412.57 85.06L413.82 79.4038C416.538 78.4419 419.028 77.0698 421.219 75.3741L426.921 77.2501C427.121 77.3159 427.342 77.2529 427.472 77.0932L431.918 71.6205C432.048 71.4605 432.058 71.2388 431.943 71.069L428.658 66.2182C429.837 63.7649 430.617 61.1132 430.926 58.3486L436.337 55.8071C436.527 55.7179 436.637 55.523 436.611 55.3219L435.723 48.4342C435.697 48.2329 435.541 48.0698 435.335 48.0277L429.442 46.828C428.44 44.2192 427.01 41.8301 425.244 39.7266L427.198 34.2535C427.267 34.0617 427.201 33.8491 427.035 33.7245L421.333 29.4569C421.167 29.3321 420.936 29.3226 420.759 29.4332L415.705 32.5865C413.149 31.4544 410.386 30.7058 407.506 30.4086L404.858 25.2151C404.765 25.033 404.562 24.9274 404.353 24.9525L397.177 25.8043C396.967 25.8292 396.797 25.979 396.753 26.1773L395.504 31.8337C392.786 32.7953 390.296 34.1677 388.105 35.8634L382.403 33.987C382.203 33.9211 381.982 33.9844 381.852 34.1443L377.406 39.6168C377.276 39.7767 377.266 39.9983 377.381 40.1683L380.666 45.0192C379.487 47.4724 378.707 50.1242 378.397 52.8889L372.986 55.4303C372.797 55.5194 372.687 55.7143 372.713 55.9154L373.601 62.8028C373.627 63.0043 373.782 63.1673 373.989 63.2096L379.882 64.4093C380.884 67.0183 382.314 69.4073 384.08 71.5107L382.125 76.9837C382.057 77.1756 382.123 77.3882 382.289 77.5131L387.991 81.7806Z" fill="#BF4546"/>
<path d="M405.56 48.8876C406.225 48.9702 406.881 49.1451 407.511 49.4118C409.239 50.1423 410.566 51.4745 411.249 53.1637C411.933 54.8527 411.89 56.6957 411.129 58.3539C410.367 60.012 408.979 61.2861 407.22 61.9418C405.46 62.5977 403.54 62.5568 401.812 61.8263C400.085 61.0955 398.757 59.763 398.074 58.0738C397.391 56.3849 397.434 54.5419 398.195 52.8836C398.956 51.2256 400.345 49.9514 402.104 49.2957C403.221 48.8792 404.403 48.744 405.56 48.8876ZM403.928 61.1176C404.873 61.2351 405.839 61.1242 406.752 60.7841C408.189 60.2486 409.323 59.2076 409.945 57.853C410.567 56.4987 410.602 54.9928 410.044 53.6131C409.485 52.2333 408.401 51.1449 406.99 50.5481C405.579 49.9505 404.01 49.9171 402.572 50.4535C401.135 50.989 400.001 52.0299 399.379 53.3846C398.757 54.7389 398.722 56.2445 399.28 57.6244C399.839 59.0041 400.923 60.0932 402.334 60.6897C402.849 60.9075 403.385 61.0502 403.928 61.1176ZM406.986 61.3629L406.981 61.3623L406.986 61.3629Z" fill="#FCD5CF"/>
<path d="M407.065 38.2696C415.057 39.2623 421.668 45.3404 422.702 53.3629C422.893 54.8433 422.883 56.3037 422.692 57.7193C421.659 65.3908 415.326 71.7376 406.967 72.7305C406.817 72.7481 406.666 72.7639 406.516 72.7782C405.5 72.8742 404.478 72.8887 403.469 72.8213C403.351 72.8135 403.233 72.8047 403.116 72.7944L403.231 71.5577C404.413 71.6592 405.617 71.6391 406.808 71.4976C406.82 71.4967 406.831 71.4952 406.842 71.4938C416.017 70.3864 422.554 62.3284 421.418 53.5155C420.281 44.692 411.878 38.402 402.684 39.4923C394.923 40.414 389.043 46.3071 388.083 53.4298C387.906 54.7443 387.897 56.1001 388.074 57.4746C388.448 60.3755 389.631 63.12 391.495 65.4108L390.476 66.175C388.467 63.7069 387.193 60.7513 386.79 57.6273C386.599 56.1469 386.609 54.6864 386.8 53.2709C387.833 45.5993 394.166 39.2524 402.525 38.2596C404.068 38.0766 405.59 38.0865 407.065 38.2696Z" fill="#FCD5CF"/>
<path d="M41.2047 437.96C41.2047 442.249 44.8641 445.758 49.3369 445.758H489.092C493.565 445.758 497.224 442.249 497.224 437.96L500.883 195.392C500.883 191.103 495.619 182.73 485.971 183.359L56.1935 172.685C50.5815 172.546 45.1553 174.619 41.1813 178.421C37.2075 182.223 35.0327 187.421 35.1653 192.803L41.2047 437.96Z" fill="#383A3C"/>
<path d="M49.2332 430.479C49.2332 434.541 52.6952 437.864 56.9268 437.864H478.487C482.718 437.864 486.18 434.541 486.18 430.479L489.633 210.273C489.227 197.022 477.123 192.259 469.786 192.54L57.8835 181.933C53.9409 181.832 50.129 183.29 47.3367 185.963C44.5441 188.637 43.0083 192.296 43.1073 196.08L49.2332 430.479Z" fill="#EAD6D6" fill-opacity="0.5"/>
<path d="M481.625 325.866H481.614C480.985 325.857 480.488 325.366 480.497 324.767L480.77 306.909C480.779 306.317 481.282 305.843 481.897 305.843H481.914C482.537 305.852 483.034 306.343 483.025 306.941L482.751 324.8C482.742 325.392 482.24 325.866 481.625 325.866Z" fill="#FCD5CF"/>
<path d="M482.295 282.104H482.278C481.655 282.095 481.158 281.602 481.167 281.005L482.213 212.607C482.193 208.545 480.909 205.301 478.394 202.988C473.7 198.671 466.247 198.892 465.934 198.906L334.28 195.517C333.658 195.502 333.167 195.004 333.184 194.407C333.2 193.809 333.678 193.3 334.341 193.354L465.916 196.743C466.735 196.697 474.67 196.565 479.954 201.425C482.927 204.159 484.445 207.926 484.468 212.618L483.421 281.038C483.412 281.629 482.909 282.104 482.295 282.104Z" fill="#FCD5CF"/>
<path d="M6.5858 465.895H522.927C523.508 465.895 523.983 465.438 523.983 464.881V445.595C523.983 445.038 523.508 444.582 522.927 444.582H6.5858C6.00485 444.582 5.52966 445.038 5.52966 445.595V464.881C5.52966 465.438 6.00485 465.895 6.5858 465.895Z" fill="#383A3C"/>
<path d="M134.583 91.1678C134.583 76.3161 147.127 64.2764 162.6 64.2764H400.852C413.996 64.2764 424.835 74.1635 425.503 86.7637L443.089 418.316C443.612 428.176 435.526 436.493 425.242 436.672L152.175 441.436C142.512 441.604 134.583 434.132 134.583 424.855V91.1678Z" fill="#6A3E3E"/>
<path d="M192.084 435.799H192.076L161.521 435.42C151.304 435.293 142.992 427.211 142.992 417.404V373.124C142.992 372.778 143.284 372.498 143.645 372.498C144.005 372.498 144.297 372.778 144.297 373.124V417.404C144.297 426.529 152.031 434.049 161.538 434.168L192.092 434.547C192.452 434.551 192.741 434.835 192.736 435.181C192.731 435.524 192.44 435.799 192.084 435.799Z" fill="#BF4546"/>
<path d="M143.645 360.035C143.284 360.035 142.992 359.755 142.992 359.409V352.238C142.992 351.891 143.284 351.612 143.645 351.612C144.005 351.612 144.297 351.891 144.297 352.238V359.409C144.297 359.755 144.005 360.035 143.645 360.035Z" fill="#BF4546"/>
<path d="M154.103 69.3796C154.073 64.628 158.427 60.9503 163.333 61.5888C195.868 65.8239 307.749 78.9218 400.251 72.1061C404.47 71.7952 408.131 74.8631 408.355 78.9184L426.795 411.948C427.048 416.515 423.415 420.42 418.66 420.69C379.755 422.9 219.534 431.443 162.385 425.697C158.907 425.347 156.267 422.537 156.246 419.18L154.103 69.3796Z" fill="#383A3C" fill-opacity="0.25"/>
<path d="M157.935 77.7251C157.907 73.1524 162.096 69.6131 166.817 70.2277C198.128 74.3032 305.796 86.9079 394.814 80.3488C398.874 80.0498 402.397 83.0022 402.613 86.9047L420.359 407.394C420.603 411.789 417.107 415.547 412.53 415.807C375.09 417.933 220.902 426.154 165.906 420.625C162.558 420.289 160.018 417.584 159.998 414.353L157.935 77.7251Z" fill="white"/>
<path d="M186.92 102.434L190.245 171.144C190.356 173.429 192.279 175.246 194.661 175.311C207.919 175.67 249.229 176.637 272.555 175.47C275.193 175.338 277.281 173.289 277.368 170.754C277.813 157.869 278.786 120.364 275.727 104.686C275.233 102.153 272.965 100.298 270.282 100.208L191.922 97.5774C189.096 97.4825 186.788 99.7235 186.92 102.434Z" fill="#383A3C" fill-opacity="0.25"/>
<path d="M382.966 108.416C384.501 108.416 385.726 107.378 385.687 106.111C385.648 104.843 384.361 103.784 382.826 103.758L296.897 102.288C295.362 102.262 294.524 103.378 295.034 104.768L295.445 105.888C295.955 107.278 297.628 108.416 299.164 108.416H382.966Z" fill="#383A3C" fill-opacity="0.25"/>
<path d="M296.898 115.097C295.362 115.071 294.524 116.187 295.034 117.577L295.445 118.697C295.955 120.087 297.629 121.225 299.164 121.225H382.966C384.501 121.225 385.726 120.187 385.687 118.92C385.649 117.652 384.361 116.593 382.826 116.567L296.898 115.097Z" fill="#383A3C" fill-opacity="0.25"/>
<path d="M296.898 128.092C295.362 128.066 294.524 129.182 295.034 130.572L295.445 131.692C295.955 133.083 297.629 134.22 299.164 134.22H382.966C384.501 134.22 385.726 133.183 385.687 131.915C385.649 130.647 384.361 129.588 382.826 129.562L296.898 128.092Z" fill="#383A3C" fill-opacity="0.25"/>
<path d="M391.312 196.89C392.847 196.89 394.032 195.853 393.945 194.585C393.858 193.317 392.53 192.271 390.995 192.259L189.688 190.736C188.152 190.724 187.679 191.658 188.635 192.811L190.28 194.794C191.237 195.947 193.275 196.89 194.811 196.89H391.312Z" fill="#383A3C" fill-opacity="0.25"/>
<path d="M189.688 207.167C188.153 207.156 187.679 208.09 188.635 209.242L190.28 211.225C191.236 212.378 193.275 213.322 194.81 213.322H391.312C392.847 213.322 394.032 212.284 393.945 211.016C393.858 209.749 392.53 208.702 390.995 208.69L189.688 207.167Z" fill="#383A3C" fill-opacity="0.25"/>
<path d="M214.758 290.895H214.711L197.721 290.739C195.294 290.716 193.29 289.113 193.06 287.01L191.567 273.327C191.479 272.524 191.739 271.73 192.299 271.091C192.925 270.377 193.872 269.928 194.898 269.86C196.33 269.766 198.346 269.601 200.479 269.427C204.973 269.059 210.566 268.603 213.712 268.565C215.995 268.554 217.932 269.851 218.47 271.759C219.355 274.9 219.277 280.846 219.109 287.18C219.054 289.237 217.107 290.895 214.758 290.895ZM194.988 271.109C194.313 271.154 193.697 271.441 193.297 271.897C192.968 272.273 192.814 272.735 192.865 273.196L194.358 286.879C194.519 288.349 195.97 289.47 197.734 289.487L214.724 289.643H214.758C216.405 289.643 217.768 288.53 217.805 287.148C217.971 280.91 218.05 275.065 217.211 272.086C216.834 270.751 215.387 269.822 213.729 269.817C210.629 269.854 205.063 270.309 200.59 270.675C198.451 270.85 196.43 271.015 194.988 271.109Z" fill="#383A3C" fill-opacity="0.25"/>
<path d="M196.815 272.522C200.384 272.288 208.142 271.532 211.821 271.488C213.38 271.469 214.747 272.373 215.113 273.671C215.823 276.191 215.729 281.214 215.606 285.85C215.569 287.239 214.24 288.347 212.618 288.332L199.04 288.207C197.371 288.191 195.985 287.099 195.829 285.676L194.636 274.741C194.512 273.61 195.492 272.609 196.815 272.522Z" fill="#383A3C" fill-opacity="0.25"/>
<path d="M229.681 281.81C230.173 283.6 231.867 284.842 233.796 284.826L390.995 283.539C392.773 283.525 394.196 282.117 394.157 280.411C394.119 278.752 392.711 277.423 390.982 277.416L233.779 276.728C231.004 276.715 228.973 279.234 229.681 281.81Z" fill="#383A3C" fill-opacity="0.25"/>
<path d="M214.758 325.847H214.711L197.721 325.691C195.294 325.668 193.29 324.065 193.06 321.962L191.567 308.279C191.479 307.476 191.739 306.682 192.299 306.043C192.925 305.328 193.872 304.88 194.898 304.812C196.33 304.718 198.346 304.553 200.479 304.379C204.973 304.011 210.566 303.555 213.712 303.517C213.735 303.517 213.758 303.516 213.781 303.516C216.015 303.516 217.938 304.822 218.47 306.711C219.355 309.852 219.277 315.798 219.109 322.131C219.054 324.189 217.107 325.847 214.758 325.847ZM194.988 306.062C194.313 306.105 193.697 306.393 193.297 306.849C192.968 307.225 192.814 307.687 192.865 308.148L194.358 321.831C194.519 323.301 195.97 324.422 197.734 324.438L214.724 324.595H214.758C216.405 324.595 217.768 323.481 217.805 322.1C217.971 315.862 218.05 310.016 217.211 307.037C216.834 305.703 215.367 304.744 213.729 304.769C210.629 304.806 205.063 305.261 200.59 305.627C198.451 305.802 196.43 305.967 194.988 306.062Z" fill="#383A3C" fill-opacity="0.25"/>
<path d="M196.815 307.474C200.384 307.239 208.142 306.484 211.821 306.439C213.38 306.421 214.747 307.325 215.113 308.622C215.823 311.143 215.729 316.166 215.606 320.802C215.569 322.191 214.24 323.299 212.618 323.284L199.04 323.159C197.371 323.143 195.985 322.051 195.829 320.627L194.636 309.693C194.512 308.562 195.492 307.56 196.815 307.474Z" fill="#383A3C" fill-opacity="0.25"/>
<path d="M229.681 316.762C230.173 318.552 231.867 319.794 233.796 319.778L390.995 318.492C392.773 318.477 394.196 317.069 394.157 315.363C394.119 313.704 392.712 312.376 390.983 312.368L233.779 311.68C231.004 311.668 228.973 314.186 229.681 316.762Z" fill="#383A3C" fill-opacity="0.25"/>
<path d="M214.758 360.799H214.711L197.721 360.643C195.294 360.621 193.29 359.018 193.06 356.915L191.567 343.232C191.479 342.428 191.739 341.634 192.299 340.995C192.925 340.28 193.872 339.832 194.898 339.764C196.33 339.67 198.346 339.505 200.479 339.331C204.973 338.963 210.566 338.507 213.712 338.469C213.735 338.469 213.758 338.468 213.781 338.468C216.015 338.468 217.938 339.774 218.47 341.663C219.355 344.804 219.277 350.75 219.109 357.083C219.054 359.141 217.107 360.799 214.758 360.799ZM194.988 341.013C194.313 341.058 193.697 341.345 193.297 341.801C192.968 342.177 192.814 342.639 192.865 343.101L194.358 356.784C194.519 358.254 195.97 359.374 197.734 359.39L214.724 359.547H214.758C216.405 359.547 217.768 358.433 217.805 357.052C217.971 350.814 218.05 344.968 217.211 341.99C216.834 340.655 215.367 339.691 213.729 339.721C210.629 339.758 205.063 340.213 200.59 340.579C198.451 340.754 196.43 340.919 194.988 341.013Z" fill="#383A3C" fill-opacity="0.25"/>
<path d="M196.815 342.425C200.384 342.191 208.142 341.435 211.821 341.391C213.38 341.373 214.747 342.277 215.113 343.574C215.823 346.094 215.729 351.117 215.606 355.754C215.569 357.142 214.24 358.251 212.618 358.236L199.04 358.11C197.371 358.095 195.985 357.002 195.829 355.579L194.636 344.645C194.512 343.514 195.492 342.512 196.815 342.425Z" fill="#383A3C" fill-opacity="0.25"/>
<path d="M229.681 351.713C230.173 353.504 231.867 354.746 233.796 354.73L390.995 353.443C392.773 353.429 394.196 352.021 394.157 350.315C394.119 348.655 392.711 347.327 390.982 347.32L233.779 346.631C231.004 346.619 228.973 349.138 229.681 351.713Z" fill="#383A3C" fill-opacity="0.25"/>
<path d="M214.758 395.751H214.711L197.721 395.595C195.294 395.572 193.29 393.97 193.06 391.867L191.567 378.184C191.479 377.38 191.739 376.586 192.299 375.947C192.925 375.232 193.872 374.783 194.898 374.715C196.33 374.622 198.346 374.457 200.479 374.283C204.973 373.915 210.566 373.458 213.712 373.42C213.735 373.42 213.758 373.42 213.781 373.42C216.015 373.42 217.938 374.726 218.47 376.615C219.355 379.756 219.277 385.701 219.109 392.035C219.054 394.093 217.107 395.751 214.758 395.751ZM194.988 375.965C194.313 376.009 193.697 376.297 193.297 376.753C192.968 377.129 192.814 377.59 192.865 378.053L194.358 391.736C194.519 393.205 195.97 394.326 197.734 394.342L214.724 394.499H214.758C216.405 394.499 217.768 393.385 217.805 392.003C217.971 385.766 218.05 379.92 217.211 376.941C216.834 375.607 215.367 374.639 213.729 374.673C210.629 374.71 205.063 375.165 200.59 375.531C198.451 375.705 196.43 375.87 194.988 375.965Z" fill="#383A3C" fill-opacity="0.25"/>
<path d="M196.815 377.378C200.384 377.143 208.142 376.388 211.821 376.343C213.38 376.325 214.747 377.229 215.113 378.526C215.823 381.047 215.729 386.07 215.606 390.706C215.569 392.094 214.24 393.203 212.618 393.188L199.04 393.063C197.371 393.047 195.985 391.955 195.829 390.531L194.636 379.597C194.512 378.466 195.492 377.464 196.815 377.378Z" fill="#383A3C" fill-opacity="0.25"/>
<path d="M229.681 386.665C230.173 388.456 231.867 389.698 233.796 389.682L390.995 388.395C392.773 388.381 394.196 386.973 394.157 385.267C394.119 383.607 392.711 382.279 390.982 382.272L233.779 381.583C231.004 381.571 228.973 384.09 229.681 386.665Z" fill="#383A3C" fill-opacity="0.25"/>
<path d="M213.259 260.483H213.212L196.223 260.326C193.795 260.304 191.791 258.702 191.561 256.598L190.068 242.915C189.98 242.112 190.24 241.318 190.8 240.679C191.426 239.964 192.373 239.515 193.399 239.447C194.831 239.354 196.847 239.189 198.981 239.014C203.474 238.647 209.067 238.19 212.213 238.152C212.236 238.152 212.259 238.152 212.282 238.152C214.516 238.152 216.439 239.458 216.971 241.346C217.856 244.487 217.778 250.433 217.61 256.767C217.555 258.824 215.608 260.483 213.259 260.483ZM193.489 240.697C192.814 240.741 192.198 241.028 191.799 241.485C191.469 241.861 191.315 242.322 191.366 242.785L192.859 256.467C193.02 257.937 194.471 259.058 196.235 259.074L213.226 259.231H213.26C214.906 259.231 216.269 258.117 216.306 256.735C216.472 250.497 216.551 244.652 215.712 241.673C215.335 240.339 213.868 239.37 212.23 239.405C209.13 239.442 203.564 239.897 199.091 240.262C196.952 240.437 194.931 240.602 193.489 240.697Z" fill="#686868"/>
<path d="M195.316 242.109C198.885 241.875 206.643 241.119 210.322 241.075C211.881 241.057 213.248 241.961 213.614 243.258C214.324 245.778 214.23 250.802 214.107 255.438C214.07 256.826 212.741 257.935 211.119 257.92L197.541 257.794C195.872 257.779 194.486 256.686 194.33 255.263L193.137 244.329C193.013 243.198 193.993 242.196 195.316 242.109Z" fill="#383A3C" fill-opacity="0.25"/>
<path d="M228.182 251.398C228.674 253.188 230.368 254.43 232.297 254.414L389.496 253.128C391.275 253.113 392.697 251.705 392.658 249.999C392.62 248.34 391.213 247.012 389.484 247.004L232.28 246.316C229.505 246.304 227.474 248.822 228.182 251.398Z" fill="#383A3C" fill-opacity="0.25"/>
<path d="M296.503 19.0712C287.897 13.3245 280.414 13.4384 275.146 14.9303C270.341 16.2911 267.226 20.7444 267.683 25.5335L269.955 49.3334L296.987 51.6362C296.987 51.6362 313.38 30.3414 296.503 19.0712ZM284.615 38.2721C280.892 38.2721 277.874 35.3756 277.874 31.8023C277.874 28.229 280.892 25.3323 284.615 25.3323C288.338 25.3323 291.355 28.229 291.355 31.8023C291.355 35.3756 288.338 38.2721 284.615 38.2721Z" fill="#383A3C"/>
<path d="M272.655 39.3214C272.322 39.3214 272.037 39.0774 272.006 38.752L271.645 34.9617C271.611 34.6175 271.876 34.3131 272.234 34.2811C272.6 34.2482 272.911 34.5031 272.943 34.8481L273.305 38.6383C273.338 38.9826 273.074 39.287 272.715 39.3189C272.695 39.3207 272.675 39.3214 272.655 39.3214ZM271.946 31.8935C271.613 31.8935 271.328 31.6495 271.297 31.3242L271.022 28.4468C270.587 23.8848 273.577 19.6372 278.133 18.3463C281.36 17.4323 284.684 17.3014 288.013 17.957C288.366 18.0261 288.593 18.3574 288.521 18.6961C288.449 19.0342 288.107 19.2506 287.751 19.1834C284.633 18.5708 281.522 18.6925 278.502 19.5474C274.542 20.6692 271.943 24.3643 272.321 28.3331L272.596 31.2106C272.629 31.5548 272.365 31.8593 272.006 31.8912C271.986 31.893 271.966 31.8935 271.946 31.8935Z" fill="#BF4546"/>
<path d="M233.06 64.7143V52.7482C233.06 48.6177 236.627 45.3094 240.928 45.4507L326.879 48.2774C330.694 48.4027 333.783 51.2927 334.012 54.9496L334.73 66.4473L233.06 64.7143Z" fill="#383A3C"/>
<path d="M265.109 49.9595H261.413C261.053 49.9595 260.761 49.6794 260.761 49.3334C260.761 48.9873 261.053 48.7073 261.413 48.7073H265.109C265.47 48.7073 265.762 48.9873 265.762 49.3334C265.762 49.6794 265.47 49.9595 265.109 49.9595Z" fill="#BF4546"/>
<path d="M237.712 60.9567C237.352 60.9567 237.06 60.6766 237.06 60.3306V55.4899C237.06 51.7496 240.23 48.707 244.127 48.707H257.716C258.077 48.707 258.369 48.9871 258.369 49.3331C258.369 49.6793 258.077 49.9594 257.716 49.9594H244.127C240.95 49.9594 238.365 52.4405 238.365 55.4899V60.3306C238.365 60.6766 238.073 60.9567 237.712 60.9567Z" fill="#BF4546"/>
<path d="M198.039 67.7358C198.246 63.5922 201.806 60.3349 206.128 60.3348L356.431 60.3308C361.836 60.3306 366.456 64.0637 367.378 69.1752L367.505 69.8805C368.515 75.4793 364.024 80.6001 358.104 80.6001H203.903C200.36 80.6001 197.537 77.7568 197.707 74.3603L198.039 67.7358Z" fill="#656A6F"/>
<path d="M120.703 494.007L121.494 500.41C121.494 500.41 126.044 502.443 129.152 500.154L127.267 493.018L120.703 494.007Z" fill="#F8D1CF"/>
<path d="M121.298 373.635C120.956 375.307 119.463 457.073 128.568 493.715C128.717 494.313 128.401 494.929 127.808 495.162C126.412 495.709 123.674 496.502 120.392 496.608C119.376 496.641 118.465 496.007 118.178 495.071C115.576 486.569 103.104 443.974 101.476 403.285C99.6583 357.818 101.476 401.737 101.476 401.737L102.543 373.632L121.298 373.635Z" fill="#B0BEC5"/>
<path d="M121.51 497.152C121.51 497.152 120.525 502.505 120.042 507.804C119.853 509.875 121.517 511.673 123.681 511.76C131.032 512.053 146.757 512.625 152.4 512.383C153.248 512.347 153.803 511.513 153.489 510.756C153.226 510.121 152.718 509.608 152.072 509.323L126.097 497.864L121.51 497.152Z" fill="#383A3C"/>
<path d="M91.6302 499.945C91.6302 499.945 90.0623 502.647 88.5442 509.828C88.27 511.125 89.2138 512.366 90.586 512.495C93.0134 512.724 96.7504 513.019 99.7437 512.999C101.124 512.99 102.201 511.837 102.034 510.522C101.703 507.901 100.67 503.601 97.4789 500.249L91.6302 499.945Z" fill="#383A3C"/>
<path d="M90.2528 491.71L92.1022 501.392C92.1022 501.392 93.9306 502.698 97.5478 501.752L96.6652 491.334L90.2528 491.71Z" fill="#F8D1CF"/>
<path d="M85.2572 376.144C77.8099 419.284 86.8726 482.769 89.9292 495.194C90.1162 495.955 90.7558 496.538 91.5592 496.665C92.9235 496.883 95.1697 497.06 97.3841 496.442C98.147 496.23 98.6831 495.569 98.7141 494.807C99.1243 484.762 98.3863 423.091 105.325 398.719C105.677 397.484 106.463 396.407 107.55 395.665L121.019 386.474L122.051 371.619L85.2572 376.144Z" fill="#B0BEC5"/>
<path d="M131.558 294.574C128.225 294.829 125.647 295.723 123.618 297.932C120.129 301.73 119.945 309.019 123.824 313.555C126.577 316.774 131.1 318.284 134.239 318.149C134.239 318.149 134.376 318.143 138.849 317.808C149.573 315.51 158.213 311.676 165.176 307.02C158.932 301.291 155.484 293.584 153.862 288.99C146.243 292.061 138.421 294.048 131.558 294.574Z" fill="#B82C2F"/>
<path d="M132.711 294.401C110.393 294.047 85.7678 300.026 85.7678 300.026C79.1152 337.285 84.6043 380.261 84.6043 380.261C101.882 384.61 121.373 377.602 121.373 377.602C124.245 362.028 137.644 318.2 137.644 318.2C140.406 311.372 139.595 294.511 132.711 294.401Z" fill="#B82C2F"/>
<path d="M194.02 257.09C191.584 254.762 188.942 256.214 188.942 256.214C187.005 269.772 170.944 282.106 153.862 288.99C155.484 293.584 158.931 301.291 165.176 307.02C192.816 288.54 194.02 257.09 194.02 257.09Z" fill="#F8D1CF"/>
<path d="M193.555 257.782C193.854 258.457 191.316 259.763 189.473 257.058C189.281 255.697 187.827 249.926 188.566 248.734C192.499 242.389 200.531 234.148 200.531 234.148C202.156 235.416 201.073 236.91 201.073 236.91L197.242 241.563C198.288 243.025 199.506 244.229 200.203 246.051C200.731 247.431 200.647 248.965 200.032 250.322C199.414 251.684 198.563 253.459 197.731 254.864C196.156 257.522 193.555 257.782 193.555 257.782Z" fill="#F8D1CF"/>
<path d="M195.657 244.499L192.093 248.016L191.19 251.273L195.021 254.638C195.021 254.638 195.557 248.291 196.287 246.861C197.016 245.43 196.501 244.819 195.657 244.499Z" fill="#F8D1CF"/>
<path d="M93.3231 321.177L85.8115 300.063C85.8115 300.063 64.3082 312.681 60.0205 329.74C63.9409 330.2 71.051 331.513 77.8883 335.233C79.8358 327.174 93.3231 321.177 93.3231 321.177Z" fill="#B82C2F"/>
<path d="M110.542 341.513C110.542 341.513 86.5279 353.114 79.1828 341.921C77.6577 339.597 77.3782 337.344 77.8885 335.233C71.0512 331.513 63.9411 330.2 60.0207 329.74C58.7281 334.883 58.9972 340.429 61.895 346.155C74.4957 371.054 113.358 347.188 113.358 347.188L110.542 341.513Z" fill="#F8D1CF"/>
<path d="M106.928 357.426L121.832 315.247C122.001 314.768 122.45 314.434 122.976 314.4C125.3 314.248 132.035 313.831 139.801 313.56C149.154 313.234 160.004 313.121 166.442 313.941C167.358 314.057 167.866 315.016 167.418 315.791C163.383 322.76 146.806 351.101 138.756 360.264C138.489 360.567 138.092 360.734 137.679 360.711L108.09 359.079C107.229 359.031 106.652 358.21 106.928 357.426Z" fill="#383A3C"/>
<path d="M141.31 309.914L150.635 308.861C151.131 308.806 151.512 309.276 151.333 309.724L150.283 312.345C150.192 312.573 149.973 312.731 149.719 312.752L140.76 313.482C140.297 313.52 139.937 313.101 140.065 312.671L140.748 310.372C140.822 310.125 141.043 309.944 141.31 309.914Z" fill="#BF4546"/>
<path d="M134.007 317.11L134.96 313.336C135.056 312.957 135.399 312.683 135.804 312.663L154.579 311.706C155.211 311.674 155.687 312.25 155.51 312.833L154.083 317.526C153.969 317.902 153.611 318.16 153.204 318.161L134.902 318.2C134.306 318.201 133.867 317.666 134.007 317.11Z" fill="#BF4546"/>
<path d="M110.529 347.236C110.529 347.236 109.104 340.139 109.945 337.683C110.787 335.228 112.336 332.092 116.931 333.017C121.525 333.942 126.893 336.066 126.893 336.066C126.893 336.066 126.455 339.295 122.988 338.087L125.089 339.808C125.089 339.808 124.647 342.389 121.744 340.865L123.666 343.109C123.666 343.109 122.283 345.181 120.164 343.713C118.046 342.245 116.688 348.367 110.529 347.236Z" fill="#F8D1CF"/>
<path d="M110.105 277.01L103.004 296.722C102.886 297.048 103.026 297.41 103.341 297.577C105.276 298.604 112.251 301.574 120.655 296.459C121.53 295.927 122.126 295.057 122.259 294.07L124.559 277.01H110.105Z" fill="#F8D1CF"/>
<path d="M127.52 259.68C127.52 259.68 134.118 274.323 132.647 279.92C131.176 285.516 121.577 284.366 113.55 279.111L108.941 263.493L127.52 259.68Z" fill="#F8D1CF"/>
<path d="M114.545 271.692C114.899 271.573 115.059 271.181 114.879 270.865C114.333 269.904 113.321 267.952 113.085 266.292C113.085 266.292 111.76 265.325 116.809 264.569C121.858 263.812 129.393 262.615 131.284 258.687C133.129 254.858 129.981 244.628 122.973 252.046C122.707 252.328 122.233 252.298 122.017 251.978C121.086 250.599 118.576 247.69 114.642 249.033C110.961 250.29 110.351 252.758 110.295 254.022C110.278 254.393 109.909 254.655 109.535 254.556C107.766 254.089 103.478 253.474 101.111 257.564C99.1605 260.933 100.072 262.996 100.972 264.04C101.264 264.378 101.082 264.883 100.635 264.978C99.4252 265.233 97.8201 266.077 97.7506 268.744C97.6545 272.431 101.958 272.438 103.189 272.364C103.391 272.352 103.586 272.433 103.709 272.587C104.66 273.776 108.97 278.847 114.012 279.807C114.449 279.89 114.826 279.498 114.715 279.084L113.026 272.768C112.948 272.475 113.116 272.173 113.414 272.073L114.545 271.692Z" fill="#383A3C"/>
<path d="M115.358 272.633C115.358 272.633 110.128 268.561 109.467 271.6C108.806 274.638 114.079 276.429 116.843 275.491L115.358 272.633Z" fill="#F8D1CF"/>
<path d="M376.255 273.21C376.552 272.509 377.592 272.519 377.875 273.225C378.923 275.841 381.277 280.356 385.395 281.655C385.602 281.721 385.799 281.788 385.99 281.857C386.118 281.324 386.06 280.726 385.567 280.136C384.158 278.448 386.128 275.782 386.128 275.782C386.128 275.782 386.493 277.935 388.346 279.141C389.942 280.179 390.915 282.729 390.121 284.969C388.784 293.138 386.642 303.978 399.888 310.526C413.134 317.074 428.462 293.208 428.462 293.208L422.411 320.541C422.411 320.541 409.914 331.317 392.916 319.365C375.918 307.413 384.332 286.951 384.332 286.951C384.332 286.951 371.93 283.434 376.255 273.21Z" fill="#BD7354"/>
<path d="M433.082 253.551C433.082 253.551 430.958 237.669 449.137 243.428C449.137 243.428 458.288 242.809 457.964 251.018C457.964 251.018 463.424 255.206 458.492 261.9C458.492 261.9 476.376 257.021 482.51 272.216C488.643 287.41 480.96 294.796 473.509 296.238C473.509 296.238 479.113 299.588 475.719 305.736C472.326 311.884 457.812 315.147 450.237 306.638C450.237 306.638 426.278 307.552 428.289 291.545C428.289 291.545 417.932 283.749 430.767 271.506C443.602 259.263 433.082 253.551 433.082 253.551Z" fill="#453B34"/>
<path d="M429.872 290.269C433.62 289.19 444.533 287.199 454.913 296.393C456.673 297.953 457.393 300.322 456.765 302.541C453.977 312.394 446.621 341.502 453.071 354.096C453.071 354.096 441.705 366.123 429.304 356.43C429.304 356.43 423.741 333.155 416.453 322.937C411.422 315.883 424.476 296.447 427.779 291.752C428.279 291.041 429.016 290.515 429.872 290.269Z" fill="#B82C2F"/>
<path d="M440.22 270.695C440.22 270.695 445.763 285.745 446.18 292.384C446.18 292.384 440.054 295.058 434.281 290.545C434.281 290.545 433.676 275.513 432.8 272.821L440.22 270.695Z" fill="#B9613B"/>
<path d="M435.069 249.844C435.069 249.844 418.774 267.963 426.864 274.358C434.955 280.752 446.553 267.878 446.553 267.878C446.553 267.878 450.919 257.558 447.761 253.649C444.603 249.739 435.069 249.844 435.069 249.844Z" fill="#BD7354"/>
<path d="M442.195 245.8C442.195 245.8 435.418 246.723 434.213 249.521C433.008 252.32 443.087 255.903 445.97 256.289L447.19 268.118C447.19 268.118 455.135 257.793 453.007 251.237C450.88 244.68 442.195 245.8 442.195 245.8Z" fill="#BD7354"/>
<path d="M443.891 266.204C443.891 266.204 450.108 260.453 451.954 264.723C453.799 268.992 446.213 271.406 443.879 269.184L443.891 266.204Z" fill="#BD7354"/>
<path d="M414.828 405.298C414.871 406.354 412.938 414.735 411.886 419.206C411.463 421.005 411.758 422.887 412.712 424.488L449.14 483.337C449.581 484.048 449.901 484.819 450.096 485.626C450.764 488.388 452.148 495.156 451.426 501.313L449.541 505.07L457.692 503.293L459.465 482.285L457.157 480.935C455.164 479.768 453.612 478.024 452.723 475.952C449.429 468.272 441.25 448.723 439.141 439.195C436.745 428.367 424.218 419.573 424.218 419.573L426.418 414.579L414.828 405.298Z" fill="#BD7354"/>
<path d="M466.749 496.064C466.749 496.064 462.348 489.367 461.83 486.76C461.312 484.152 459.871 479.549 457.157 480.935C457.157 480.935 455.878 493.599 456.319 498.548C456.76 503.496 450.491 503.337 450.491 503.337C450.491 503.337 448.763 503.57 447.498 504.784C446.625 505.623 447.249 507.077 448.482 507.154C450.533 507.281 453.792 507.314 457.213 506.679C458.409 506.457 459.296 505.481 459.368 504.314L460.271 489.738L465.823 496.467L466.749 496.064Z" fill="#B82C2F"/>
<path d="M436.59 414.672C436.59 414.672 437.875 467.312 438.049 474.788C438.223 482.264 436.819 498.832 429.011 503.784L432.408 506.199C432.408 506.199 436.655 502.735 440.803 496.068C445.463 488.579 446.872 487.211 446.872 487.211L445.326 484.171C444.649 482.84 444.45 481.335 444.762 479.885C446.446 472.046 452.075 445.973 453.611 440.358C455.423 433.73 455.552 424.879 449.247 417.47C442.941 410.061 436.59 414.672 436.59 414.672Z" fill="#BD7354"/>
<path d="M443.801 508.571C444.043 508.573 444.248 508.406 444.282 508.176C444.543 506.421 445.624 499.386 446.51 497.564C447.524 495.478 450.836 486.696 446.508 485.95C446.508 485.95 435.748 501.039 433.683 503.073C431.617 505.108 429.011 503.784 429.011 503.784C429.011 503.784 426.998 504.355 425.481 506.216C424.759 507.102 425.431 508.403 426.603 508.413L433.85 508.48C435.955 508.499 437.848 507.271 438.631 505.396C439.906 502.338 442.098 497.852 444.652 495.862L443.325 508.059C443.295 508.331 443.516 508.568 443.801 508.571Z" fill="#B82C2F"/>
<path d="M427.589 350.754C427.589 350.754 429.222 355.75 426.713 363.98L411.149 416.147C410.905 416.967 411.366 417.825 412.202 418.113C416.857 419.717 432.161 424.25 453.052 422.867C454.104 422.798 454.986 422.083 455.215 421.095C456.592 415.148 461.288 394.856 462.255 390.687C465.94 374.8 470.054 357.668 451.955 347.308C443.613 350.737 435.833 352.759 427.589 350.754Z" fill="#383A3C"/>
<path d="M456.398 298.359C456.398 298.359 474.106 312.485 478.501 331.787C482.895 351.089 452.625 353.14 452.625 353.14C452.625 353.14 448.515 348.736 443.637 350.306C438.758 351.877 443.259 342.619 448.967 342.644C454.675 342.668 452.031 347 460.106 343.489C467.972 340.07 472.834 329.492 452.764 313.459C451.601 312.529 450.673 311.345 450.113 309.994C446.215 300.574 449.307 294.398 456.398 298.359Z" fill="#BD7354"/>
</svg>
