<svg width="448" height="421" viewBox="0 0 448 421" fill="none" xmlns="http://www.w3.org/2000/svg">
<g opacity="0.352003">
<path d="M411.354 137.063L369.47 144.689L374.632 149.499L254.379 267.758L277.491 292.043L398.214 174.371L403.493 179.064L411.354 137.063Z" fill="url(#paint0_linear_410_1005)"/>
</g>
<g opacity="0.76633">
<path d="M283.552 259.514L241.669 267.14L246.831 271.95L126.578 390.209L149.69 414.494L270.412 296.822L275.692 301.515L283.552 259.514Z" fill="url(#paint1_linear_410_1005)"/>
</g>
<g opacity="0.77">
<path d="M323.278 102.307L237.215 117.977L247.822 127.861L0.723877 370.861L48.215 420.763L296.278 178.968L307.126 188.611L323.278 102.307Z" fill="url(#paint2_linear_410_1005)"/>
</g>
<g opacity="0.77">
<path d="M314.371 14.9875L272.488 22.6134L277.65 27.4235L157.396 145.682L180.509 169.967L301.231 52.2953L306.51 56.9881L314.371 14.9875Z" fill="url(#paint3_linear_410_1005)"/>
</g>
<path d="M215.476 175.806L213.713 188.195L208.034 188.536C207.424 190.577 206.691 192.551 205.841 194.448L209.983 198.39L203.332 208.988L197.783 206.903C196.434 208.419 194.989 209.845 193.464 211.182L195.773 216.783L185.387 223.763L180.825 219.264C179.094 220.034 177.311 220.711 175.5 221.284L175.316 227.814L162.987 229.967L160.513 223.655C158.72 223.668 156.908 223.584 155.092 223.402L152.139 229.566L139.999 226.515L140.308 219.692C138.624 218.988 136.992 218.206 135.413 217.348L130.248 221.744L120.4 214.02L123.323 208.183C121.994 206.817 120.748 205.381 119.583 203.882L113.437 205.689L107.585 194.63L112.264 190.787C111.553 188.89 110.958 186.954 110.485 184.975L104.614 184.192L103.759 171.707L109.267 170.189C109.418 168.112 109.704 166.027 110.133 163.941L105.289 160.958L109.595 149.21L115.258 150.07C116.277 148.229 117.41 146.477 118.642 144.811L115.359 140.017L124.067 131.033L129.212 134.324C130.807 133.155 132.481 132.084 134.204 131.114L133.082 124.982L144.693 120.317L148.292 125.779C150.109 125.385 151.958 125.088 153.828 124.895L155.386 118.452L167.894 118.909L169.003 125.591C169.886 125.763 170.773 125.962 171.666 126.184C172.554 126.41 173.43 126.654 174.296 126.921L178.427 121.556L189.666 127.062L187.994 133.473C189.556 134.525 191.041 135.663 192.46 136.867L198.211 133.757L206.237 143.359L202.346 148.229C203.409 149.903 204.375 151.637 205.23 153.417L211.315 152.95L214.743 164.986L209.583 167.66C209.881 169.717 210.048 171.792 210.077 173.894L215.476 175.806ZM169.025 136.683C147.902 131.375 126.566 143.832 121.37 164.51C116.17 185.186 129.085 206.253 150.209 211.562C171.332 216.871 192.675 204.413 197.866 183.735C203.063 163.059 190.152 141.996 169.025 136.683Z" fill="#A5312A"/>
<path d="M224.631 195.572L233.27 193.424L237.79 201.925C239.94 201.824 242.075 201.926 244.176 202.219L249.104 193.716L257.663 196.177L257.297 206.766C258.848 207.661 260.338 208.676 261.756 209.794L271.23 204.343L277.415 210.757L271.234 220.65C271.979 221.912 272.669 223.23 273.282 224.596L285.081 224.616L287.228 233.258L276.807 238.795C276.904 240.29 276.916 241.774 276.843 243.239L286.937 249.091L284.476 257.648L273.549 257.267C272.817 258.921 271.972 260.513 271.023 262.033L276.308 271.216L269.898 277.397L261.567 272.192C259.846 273.431 258.008 274.519 256.062 275.437L256.04 285.062L247.399 287.209L242.88 278.71C240.73 278.809 238.595 278.709 236.494 278.416L231.565 286.919L223.008 284.458L223.378 273.864C221.827 272.969 220.336 271.954 218.918 270.836L209.442 276.287L203.263 269.876L209.442 259.984C208.695 258.717 208.012 257.399 207.396 256.037L195.596 256.017L193.45 247.376L203.87 241.831C203.771 240.34 203.76 238.853 203.831 237.391L193.741 231.535L196.202 222.978L207.127 223.36C207.859 221.706 208.702 220.117 209.65 218.597L204.369 209.41L210.783 203.225L219.113 208.437C220.835 207.199 222.676 206.106 224.623 205.189L224.631 195.572ZM214.61 246.707C218.255 261.377 232.724 270.404 246.928 266.878C261.137 263.346 269.696 248.592 266.05 233.921C262.407 219.25 247.938 210.223 233.729 213.754C219.531 217.28 210.97 232.04 214.61 246.707Z" fill="#D12F25"/>
<path d="M257.548 324.839L254.722 327.947L252.696 327.102C252.136 327.443 251.541 327.718 250.936 327.932L250.298 330.029L246.102 330.231L245.248 328.145C244.66 327.988 244.075 327.774 243.511 327.504L241.509 328.574L238.4 325.746L239.277 323.652C238.954 323.117 238.683 322.555 238.471 321.982L236.313 321.329L236.111 317.133L238.139 316.302C238.293 315.673 238.514 315.063 238.797 314.47L237.763 312.54L240.59 309.431L242.73 310.325C243.242 310.043 243.775 309.813 244.326 309.631L245.019 307.348L249.215 307.152L250.213 309.578C250.641 309.708 251.063 309.867 251.475 310.06L253.82 308.808L256.93 311.636L255.903 314.089C256.131 314.482 256.33 314.887 256.503 315.3L259.012 316.063L259.208 320.261L257.002 321.164C256.875 321.729 256.695 322.283 256.461 322.815L257.548 324.839ZM251.354 321.953C253.144 319.983 252.965 316.91 250.953 315.078C248.941 313.247 245.86 313.362 244.07 315.327C242.283 317.29 242.457 320.371 244.47 322.201C246.482 324.031 249.561 323.923 251.354 321.953Z" fill="#A73E4B"/>
<path d="M271.794 335.401L267.245 340.299L264.652 338.719C263.763 339.428 262.836 340.075 261.885 340.648L262.499 343.637L256.35 346.263L254.553 343.656C253.497 343.912 252.43 344.099 251.355 344.219L250.664 347.383L243.979 347.283L243.35 343.916C242.353 343.731 241.365 343.482 240.396 343.183L238.325 345.99L232.257 343.177L233.097 339.65C232.304 339.109 231.534 338.522 230.79 337.888L227.617 339.695L223.221 334.656L225.435 331.752C224.908 330.933 224.435 330.092 224.003 329.235L220.396 329.589L218.428 323.198L221.491 321.528C221.321 320.526 221.212 319.515 221.158 318.504L217.907 317.424L218.705 310.788L221.928 310.527C222.192 309.478 222.523 308.446 222.916 307.432L220.577 305.296L224.007 299.559L226.887 300.573C227.583 299.711 228.344 298.878 229.171 298.093L227.952 295.309L233.423 291.463L235.649 293.567C236.657 293.07 237.683 292.648 238.734 292.29L238.754 289.185L245.312 287.893L246.566 290.905C247.622 290.879 248.681 290.918 249.735 291.017L251.111 287.98L257.627 289.468L257.543 292.962C258.462 293.344 259.363 293.776 260.243 294.263L262.892 291.91L268.242 295.921L266.693 299.194C267.029 299.542 267.361 299.895 267.682 300.266C268.005 300.633 268.317 301.009 268.612 301.389L272.06 300.292L275.314 306.13L272.625 308.438C272.988 309.372 273.293 310.325 273.551 311.287L277.021 311.673L277.616 318.33L274.426 319.28C274.382 320.339 274.277 321.393 274.112 322.437L276.924 324.087L274.761 330.416L271.683 330.017C271.191 331.007 270.627 331.972 270.003 332.905L271.794 335.401ZM263.329 304.078C255.676 295.311 242.516 294.276 233.935 301.772C225.354 309.263 224.605 322.444 232.256 331.211C239.913 339.977 253.073 341.012 261.65 333.516C270.231 326.026 270.98 312.845 263.329 304.078Z" fill="#922C38"/>
<path d="M307.151 204.292L304.385 207.389L300.412 205.301C299.61 205.908 298.757 206.427 297.874 206.866L298.206 211.437L294.261 212.739L291.618 208.558C290.784 208.623 289.944 208.621 289.107 208.565L286.886 213.157L282.817 212.308L282.603 206.873C281.982 206.583 281.377 206.257 280.776 205.892L276.223 208.988L273.124 206.22L275.684 201.347C275.255 200.795 274.858 200.226 274.502 199.645L269.076 200.043L267.775 196.096L272.084 193.376C271.934 192.545 271.837 191.714 271.805 190.876L267.356 188.722L268.2 184.659L272.781 184.472C273.117 183.542 273.543 182.64 274.05 181.775L271.527 178.063L274.295 174.967L278.267 177.054C279.069 176.454 279.921 175.928 280.804 175.488L280.471 170.918L284.419 169.616L287.059 173.797C287.893 173.733 288.735 173.734 289.577 173.791L291.799 169.198L295.862 170.047L296.076 175.481C296.695 175.772 297.308 176.103 297.903 176.464L302.456 173.368L305.553 176.135L302.996 181.009C303.424 181.56 303.821 182.125 304.175 182.711L309.603 182.318L310.904 186.259L306.595 188.984C306.745 189.815 306.836 190.648 306.874 191.484L311.323 193.639L310.474 197.708L305.893 197.888C305.557 198.818 305.131 199.725 304.624 200.586L307.151 204.292ZM297.575 181.948C292.32 177.25 284.367 177.574 279.822 182.667C275.27 187.762 275.851 195.698 281.113 200.391C286.368 205.089 294.32 204.763 298.867 199.67C303.412 194.582 302.837 186.645 297.575 181.948Z" fill="#6D2029"/>
<path d="M142.425 160.617L145.288 157.609L149.194 159.821C150.014 159.239 150.883 158.747 151.779 158.336L151.591 153.757L155.575 152.579L158.085 156.841C158.921 156.803 159.76 156.831 160.595 156.913L162.959 152.393L166.999 153.37L167.043 158.808C167.654 159.118 168.249 159.463 168.838 159.847L173.486 156.895L176.496 159.759L173.785 164.549C174.196 165.114 174.575 165.696 174.913 166.288L180.348 166.06L181.525 170.046L177.133 172.629C177.257 173.465 177.327 174.298 177.333 175.137L181.712 177.43L180.741 181.464L176.156 181.507C175.792 182.426 175.337 183.314 174.803 184.162L177.209 187.952L174.345 190.96L170.44 188.749C169.619 189.324 168.751 189.822 167.855 190.234L168.044 194.813L164.058 195.99L161.55 191.729C160.714 191.767 159.873 191.738 159.034 191.656L156.669 196.176L152.634 195.2L152.591 189.762C151.981 189.451 151.379 189.102 150.795 188.723L146.147 191.673L143.139 188.811L145.848 184.02C145.437 183.455 145.058 182.878 144.723 182.282L139.285 182.504L138.108 178.524L142.501 175.936C142.377 175.1 142.312 174.265 142.301 173.427L137.921 171.135L138.898 167.094L143.482 167.058C143.847 166.138 144.302 165.245 144.835 164.401L142.425 160.617ZM151.296 183.252C156.4 188.112 164.359 188.037 169.062 183.09C173.772 178.14 173.441 170.19 168.329 165.334C163.223 160.474 155.265 160.55 150.561 165.497C145.858 170.44 146.183 178.391 151.296 183.252Z" fill="#D0021B"/>
<path d="M420.873 8.2508C419.562 9.31072 419.137 12.923 418.927 14.4487C418.718 15.9743 414.502 20.4004 414.502 20.4004L412.24 23.7909L420.056 31.3137L422.219 28.8008C425.99 28.9226 428.343 27.0709 430.009 25.2553C431.669 23.4465 432.649 21.6736 433.675 21.921C435.733 22.4161 441.3 16.7306 440.78 12.7352C440.264 8.73957 433.279 1.24131 431.75 0.839084C431.695 0.824594 431.631 0.819469 431.558 0.823241C429.648 0.922448 422.134 7.23052 420.873 8.2508Z" fill="#D78A6D"/>
<path d="M426.908 3.45664C423.014 6.23191 424.194 6.98862 423.88 8.5823C423.565 10.176 425.909 13.199 426.812 14.5598C427.716 15.921 427.787 14.8395 428.111 16.0434C428.437 17.2472 429.358 17.2035 429.848 18.2968C430.336 19.3902 431.954 19.5105 432.069 20.2705C432.182 21.03 433.253 21.7525 433.883 21.8861C434.109 21.9321 435.178 22.1162 438.503 18.9406C442.353 15.2528 441.201 12.914 441.201 12.914C439.241 7.17169 433.455 1.96306 432.453 1.10499C432.14 0.836029 431.861 0.694547 431.504 0.713093C430.726 0.75399 429.578 1.55458 426.908 3.45664Z" fill="#F09A79"/>
<path d="M423.547 3.84691C421.477 5.51532 419.192 7.89686 419.192 7.89686C419.192 7.89686 418.297 13.3655 417.962 14.6214C417.627 15.8778 412.777 23.0969 412.777 23.0969L416.9 28.2776C416.901 28.2827 423.506 25.2074 425.57 21.6688C425.57 21.6688 429.811 16.227 425.724 10.4918C425.724 10.4918 429.6 15.0619 431.633 14.9055C433.82 14.7393 434.148 13.3188 434.148 13.3188C434.148 13.3188 429.288 7.15063 428.573 5.5043C428.06 4.31869 426.716 3.08795 425.221 3.16559C424.672 3.19409 424.103 3.39847 423.547 3.84691Z" fill="#FFA481"/>
<path d="M366.728 60.4639C364.106 62.566 320.926 97.8946 320.926 97.8946L331.334 133.909C331.334 133.909 375.074 85.762 379.823 80.7773C384.572 75.7931 421.454 33.8106 421.454 33.8106L410.432 22.7345C410.432 22.7345 369.349 58.3606 366.728 60.4639Z" fill="#212121"/>
<path d="M411.665 23.6617L420.398 32.4916L422.55 29.751L413.846 21.264L411.665 23.6617Z" fill="white"/>
<path d="M328.731 68.3717C326.324 71.0211 325.558 73.6441 325.556 73.6418C338.901 94.8324 315.161 108.732 315.161 108.732L339.123 120.896C335.83 113.422 349.181 100.32 349.181 100.32L356.817 100.81C356.817 100.81 358.382 84.3439 356.039 74.125C353.736 64.0837 346.582 63.2987 346.582 63.2987C344.832 63.0293 343.222 62.9215 341.739 62.945C335.181 63.0493 331.136 65.7237 328.731 68.3717Z" fill="#FFA481"/>
<path d="M349.145 100.267L345.21 99.8223C345.21 99.8223 338.859 101.059 329.121 115.81L339.077 120.859C339.077 120.865 334.857 114.501 349.145 100.267Z" fill="#E39273"/>
<path d="M349.079 64.0546L353.435 67.7351C359.054 64.0102 356.393 56.453 356.393 56.453L349.079 64.0546Z" fill="#281B16"/>
<path d="M331.806 58.7706C316.121 62.3303 320.057 77.3794 320.057 77.3794L329.233 74.7809C329.902 68.3728 341.117 66.2117 348.196 65.4981C355.27 64.7838 356.365 56.4656 356.365 56.4656C356.365 56.4656 354.689 56.0487 350.865 56.1095C346.943 56.1717 340.759 56.7364 331.806 58.7706Z" fill="#3F2B24"/>
<path d="M319.962 71.3125C319.962 71.3125 317.355 76.0931 324.41 85.6442C329.873 93.0356 329.507 92.3397 331.383 83.0255C333.683 71.6319 329.315 67.8543 325.294 67.9173C322.902 67.9548 320.633 69.3514 319.962 71.3125Z" fill="#3F2B24"/>
<path d="M232.043 165.839L266.046 185.936C266.046 185.936 305.719 166.028 323.886 151.146C342.051 136.262 338.35 116.436 338.35 116.436L324.729 93.6133L311.478 92.7501C311.184 92.7457 310.892 92.7464 310.597 92.7514C273.463 93.3837 232.043 165.839 232.043 165.839Z" fill="#F3F3F3"/>
<path d="M323.671 93.5124L329.887 118.889L338.061 111.475L328.978 91.2294L323.671 93.5124Z" fill="white"/>
<path d="M338.076 111.434L338.229 122.368L341.918 115.645L342.183 109.274L338.076 111.434Z" fill="white"/>
<path d="M189.461 197.033C190.419 204.002 174.714 211.963 159.466 232.449C148.852 246.715 145.099 248.674 143.8 248.549L165.717 265.17C165.717 265.17 255.736 224.425 250.602 198.732L194.96 178.34C194.884 178.199 194.761 178.131 194.602 178.134C193.02 178.16 187.837 185.229 189.461 197.033Z" fill="#191919"/>
<path d="M191.272 192.544C195.529 200.123 217.695 210.424 234.876 212.259C239.451 212.748 242.608 213.177 244.787 213.538C220.193 211.208 155.917 254.795 155.917 254.795L172.225 266.836C209.033 248.887 290.865 234.175 302.495 224.829C314.12 215.485 306.576 203.772 300.316 200.107C294.181 196.514 219.533 158.838 219.533 158.838C182.554 164.314 187.097 185.113 191.272 192.544Z" fill="#242424"/>
<path d="M323.344 93.5867C323.344 93.5867 333.707 115.062 312.231 131.562C290.753 148.062 253.51 156.126 240.666 161.723C227.824 167.317 201.828 181.858 197.693 199.53C197.693 199.53 186.254 170.042 173.903 175.23C173.903 175.23 182.977 159.603 219.365 143.047C255.644 126.532 274.459 94.3967 280.693 90.9123C291.016 85.1496 314.953 88.8882 323.344 93.5867Z" fill="#202020"/>
<path d="M260.726 182.161L266.577 186.759C268.725 192.339 278.499 197.411 278.499 197.411L276.297 196.339C276.037 196.236 275.608 196.564 275.64 196.841L276.601 201.417L279.355 202.41C279.355 202.41 280.246 202.751 281.719 202.074C283.313 201.348 282.918 200.738 282.918 200.738C282.918 200.738 283.822 201.477 285.458 200.396C287.153 199.275 286.538 198.327 286.538 198.327C286.538 198.327 287.438 198.609 288.669 197.683C289.954 196.718 289.755 195.437 289.755 195.437C292.116 195.035 291.922 192.515 291.742 192.157C291.561 191.8 289.512 182.966 289.512 182.966C288.796 183.051 272.96 177.154 272.96 177.154L264.739 176.008L260.726 182.161Z" fill="#D0021B"/>
<path d="M270.514 173.438L272.674 175.685L262.951 184.997L260.184 182.881C260.183 182.876 269.391 174.102 270.514 173.438Z" fill="white"/>
<path d="M276.451 94.0473C254.432 102.228 223.791 114.461 210.413 124.605C197.037 134.749 258.782 184.471 258.782 184.471C258.782 184.471 270.61 173.101 271.546 172.971L240.375 133.611C240.375 133.611 291.829 129.326 303.709 119.778C313.706 111.747 315.253 97.76 305.898 90.3684C305.898 90.3684 303.279 88.1794 294.76 89.1936C290.372 89.7161 284.418 91.0878 276.451 94.0473Z" fill="#242424"/>
<path d="M337.518 110.907L339.727 119.607L335.727 122.917L332.298 117.407L337.518 110.907Z" fill="#530B13"/>
<path d="M333.955 120.333C333.955 120.333 325.328 167.746 278.183 148.707C246.729 135.889 240.959 137.392 240.959 137.392L232.65 144.4L240.994 150.968C240.994 150.968 246.955 149.435 258.851 152.114C266.898 154.223 293.396 163.846 308.512 158.74C321.152 154.483 332.442 144.176 338.053 121.031L333.955 120.333Z" fill="#D0021B"/>
<path d="M59.3541 200.874C40.3473 221.665 62.8479 273.679 109.617 317.055C156.38 360.427 209.693 378.741 228.699 357.95C231.045 355.38 240.414 342.872 241.527 339.426C221.19 369.626 162.953 343.925 119.797 303.893C78.8171 265.882 50.5546 215.548 70.8721 188.872C69.0185 190.016 60.8183 199.269 59.3541 200.874Z" fill="#7F7F7F"/>
<path d="M70.2859 189.485C86.7825 171.568 128.739 182.53 169.793 213.494L142.869 207.946L145.964 226.353L136.818 231.58L159.428 260.242L183.114 266.43L184.177 278.353L205.788 286.991L212.645 283.543L226.76 289.81L219.295 263.156C243.736 296.316 252.365 328.706 238.186 344.107C219.127 364.803 166.091 346.967 119.73 304.269C73.363 261.566 51.2275 210.182 70.2859 189.485Z" fill="#F6EAE2"/>
<path d="M84.9241 200.971C97.2296 187.608 125.356 192.315 155.015 210.454L142.87 207.947L145.963 226.352L136.803 231.72L159.413 260.38L183.113 266.431L184.161 278.491L205.775 287.13L212.645 283.544L226.197 289.56C226.387 289.669 226.546 289.732 226.76 289.811C233.659 306.948 233.972 322.046 225.903 330.809C209.412 348.718 166.991 332.228 128.059 296.374C89.1265 260.519 68.4322 218.875 84.9241 200.971Z" fill="#D01F2A"/>
<path d="M98.7974 210.003C106.642 201.49 124.01 203.641 143.88 213.882L146.037 226.336L136.461 231.755L159.07 260.415L182.771 266.466L183.819 278.528L205.741 287.013L212.65 283.549L214.312 284.289C220.809 298.429 221.873 310.925 215.677 317.653C203.278 331.116 167.825 317.541 135.544 287.815C103.269 258.086 86.3971 223.468 98.7974 210.003Z" fill="#94420B"/>
<path d="M112.211 221.415C117.763 215.385 130.836 217.643 145.977 225.992L146.034 226.348L136.527 231.744L159.138 260.405L182.838 266.457L183.886 278.517L201.984 285.747C204.659 293.375 204.605 299.657 201.197 303.36C192.533 312.763 165.597 302.048 141.023 279.415C116.451 256.788 103.549 230.823 112.211 221.415Z" fill="#D02129"/>
<path d="M124.851 233.34C127.189 230.803 132.042 230.982 138.235 233.329L159.535 260.33L178.543 265.186C180.519 267.66 182.268 270.082 183.757 272.413L184.281 278.443L187.762 279.837C190.004 285.112 190.306 289.345 188.173 291.663C182.835 297.456 164.34 289.097 146.852 272.995C129.367 256.885 119.518 239.133 124.851 233.34Z" fill="#E7631B"/>
<path d="M149.024 246.944L159.568 260.275L169.573 262.874C175.222 269.753 177.747 276.291 175.3 278.941C172.12 282.392 161.77 278.033 152.179 269.207C142.593 260.376 137.397 250.419 140.577 246.969C142.082 245.344 145.175 245.451 149.024 246.944Z" fill="#C31D25"/>
<path d="M291.79 296.451L286.97 287.168L274.449 290.231L291.79 296.451Z" fill="#F6EAE2"/>
<path d="M291.791 296.452L292.373 298.715L275.037 292.51L274.451 290.231L291.791 296.452Z" fill="#B1ACA8"/>
<path d="M263.084 268L249.415 291.428L216.672 268.737L263.084 268Z" fill="#F6EAE2"/>
<path d="M263.082 268.001L262.679 272.191L249.181 296.412L216.303 272.575L216.672 268.737L249.414 291.429L263.082 268.001Z" fill="#B1ACA8"/>
<path d="M150.667 175.63L174.128 185.923L156.519 226.198L150.667 175.63Z" fill="#F6EAE2"/>
<path d="M174.128 185.926L174.731 191.037L156.993 228.051L156.519 226.198L174.128 185.926Z" fill="#B1ACA8"/>
<path d="M189.76 152.014L191.318 143.036L181.034 138.554L189.76 152.014Z" fill="#F6EAE2"/>
<path d="M189.762 152.014L188.966 153.886L180.238 140.44L181.036 138.554L189.762 152.014Z" fill="#B1ACA8"/>
<path d="M299.401 256.034L286.862 271.023L265.255 260.377L299.401 256.034Z" fill="#C31D25"/>
<path d="M299.401 256.034L299.96 258.211L287.579 273.246L265.603 262.253L265.257 260.377L287.102 270.777L299.401 256.034Z" fill="#7E2024"/>
<path d="M256.869 234.683L256.58 252.673L242.781 244.046L256.869 234.683Z" fill="#C31D25"/>
<path d="M256.87 234.683L257.495 237.119L257.285 254.326L243.143 245.451L242.782 244.045L256.426 252.374L256.87 234.683Z" fill="#7E2024"/>
<path d="M224.139 242.444L175.198 252.778L201.745 276.59L224.139 242.444Z" fill="#C31D25"/>
<path d="M224.136 242.445L223.899 247.165L201.883 280.314L174.995 256.767L175.197 252.779L201.743 276.591L224.136 242.445Z" fill="#7E2024"/>
<path d="M171.257 253.041L171.74 256.063L151.805 269.12L151.319 266.39L171.257 253.041Z" fill="#7E2024"/>
<path d="M145.463 229.406L151.806 269.122L151.007 268.714L145.463 229.406Z" fill="#942C2F"/>
<path d="M151.376 266.383L171.261 253.037L155.434 222.915L145.464 229.411L151.376 266.383Z" fill="#C31D25"/>
<path d="M121.06 169.628L138.501 179.106L123.015 188.187L121.06 169.628Z" fill="#C31D25"/>
<path d="M138.5 179.106L138.339 181.179L122.913 190.13L120.933 171.259L121.06 169.628L123.307 188.003L138.5 179.106Z" fill="#7E2024"/>
<path d="M160.2 137.673L174.442 153.871L159.198 175.634L160.2 137.673Z" fill="#C31D25"/>
<defs>
<linearGradient id="paint0_linear_410_1005" x1="252.267" y1="210.271" x2="407.13" y2="47.8996" gradientUnits="userSpaceOnUse">
<stop stop-color="#FFC342"/>
<stop offset="0.24" stop-color="#FFC340"/>
<stop offset="0.99" stop-color="#FFC23E"/>
</linearGradient>
<linearGradient id="paint1_linear_410_1005" x1="124.466" y1="332.722" x2="279.329" y2="170.351" gradientUnits="userSpaceOnUse">
<stop stop-color="#FFC342"/>
<stop offset="0.24" stop-color="#FFC340"/>
<stop offset="0.99" stop-color="#FFC23E"/>
</linearGradient>
<linearGradient id="paint2_linear_410_1005" x1="-3.61541" y1="252.736" x2="314.599" y2="-80.9075" gradientUnits="userSpaceOnUse">
<stop stop-color="#FFC342"/>
<stop offset="0.24" stop-color="#FFC340"/>
<stop offset="0.99" stop-color="#FFC23E"/>
</linearGradient>
<linearGradient id="paint3_linear_410_1005" x1="155.285" y1="88.1953" x2="310.147" y2="-74.1758" gradientUnits="userSpaceOnUse">
<stop stop-color="#FFC342"/>
<stop offset="0.24" stop-color="#FFC340"/>
<stop offset="0.99" stop-color="#FFC23E"/>
</linearGradient>
</defs>
</svg>
