<svg width="279" height="482" viewBox="0 0 279 482" fill="none" xmlns="http://www.w3.org/2000/svg">
<path d="M260.045 479.54C227.155 484.344 193.746 480.666 160.553 479.454C125.586 478.156 90.4458 479.54 55.7383 475.083C46.8666 473.915 37.0425 471.794 32.0657 464.351C37.908 462.706 44.0535 463.225 50.1121 463.701C67.5525 465.086 85.036 465.909 102.52 466.211C106.198 466.255 109.877 466.298 113.512 465.779C117.493 465.216 121.345 464.004 125.283 463.139C136.016 460.759 147.137 461.148 158.13 461.581C178.21 462.403 198.29 463.528 218.37 464.913C228.151 465.606 237.975 466.082 247.755 467.077C251.001 467.423 253.77 468.029 256.28 470.366C256.973 470.929 262.123 479.238 260.045 479.54Z" fill="url(#paint0_linear_23_7025)"/>
<path d="M260.046 479.54C227.156 484.344 193.747 480.666 160.554 479.454C125.587 478.156 90.4463 479.54 55.7388 475.083C46.8671 473.915 37.043 471.794 32.0662 464.351C37.9085 462.706 44.0539 463.225 50.1126 463.701C67.553 465.086 85.0365 465.909 102.52 466.211C106.199 466.255 109.877 466.298 113.512 465.779C117.494 465.216 121.345 464.004 125.284 463.139C136.016 460.759 147.138 461.148 158.13 461.581C178.21 462.403 198.291 463.528 218.371 464.913C228.151 465.606 237.975 466.082 247.756 467.077C251.001 467.423 253.771 468.029 256.281 470.366C256.973 470.929 262.123 479.238 260.046 479.54Z" fill="url(#paint1_linear_23_7025)"/>
<path d="M196.647 143.327C197.209 142.418 197.858 141.38 198.897 141.207C199.33 141.12 199.763 141.207 200.152 140.99C200.672 140.731 200.844 140.168 201.061 139.649C201.71 138.048 203.008 136.663 204.653 136.143C206.297 135.624 208.288 136.1 209.283 137.528C210.062 138.653 210.149 140.082 210.105 141.423C209.716 148.78 204.912 155.748 198.161 158.734C197.252 159.123 196.301 159.469 195.349 159.253C193.704 158.863 190.804 154.925 190.804 153.367C190.848 150.727 195.262 145.621 196.647 143.327Z" fill="#D1AC9D"/>
<path d="M175.182 159.985C170.551 162.755 165.098 165.611 160.078 163.707C155.318 161.889 153.067 156.653 151.033 152.022C144.455 137.005 135.064 123.243 123.51 111.645C122.514 110.65 121.389 109.611 120.005 109.611C118.187 109.611 116.932 111.299 115.936 112.814C114.032 115.757 112.085 118.872 112.085 122.335C112.085 124.931 113.21 127.398 114.335 129.778C116.975 135.447 119.615 141.116 122.212 146.786C125.025 152.844 127.837 158.903 131.256 164.659C134.675 170.415 138.657 175.781 142.638 181.19C143.547 182.402 144.499 183.7 145.797 184.479C146.922 185.172 148.264 185.518 149.605 185.691C158.088 186.816 166.396 182.575 173.234 177.425C180.072 172.275 186.131 166 193.661 161.932C194.397 161.543 195.219 161.11 195.651 160.374C196.127 159.552 196.041 158.513 195.868 157.561C195.002 153.71 192.752 149.815 188.727 151.806C184.097 154.099 179.639 157.258 175.182 159.985Z" fill="#D1AC9D"/>
<path d="M131.689 201.269C132.036 203.043 135.498 209.578 134.849 211.266C134.07 213.43 128.833 210.011 126.799 211.093C122.948 213.127 119.053 215.117 114.985 216.589C106.979 219.532 98.4104 220.614 89.885 220.917C83.5234 221.133 76.9452 220.916 71.276 218.017C69.8479 217.281 68.4632 216.373 67.6409 214.988C66.8187 213.646 60.8033 230.827 60.6302 229.312C59.6781 221.263 70.5402 190.969 69.5881 182.92C69.415 181.578 69.2852 180.193 69.6314 178.938C70.3671 176.299 72.9636 174.697 75.4303 173.529C85.9897 168.552 91.832 170.197 103.517 170.024C111.306 169.894 115.288 162.667 121.822 167.297C126.193 170.413 125.501 172.62 125.501 177.683C125.631 182.833 130.737 196.119 131.689 201.269Z" fill="#333333"/>
<path d="M135.369 213.172C135.369 213.172 150.386 402.896 150.472 435.18L141.601 435.612C141.601 435.612 118.231 270.86 105.898 261.166C105.898 261.166 100.791 260.43 98.8003 261.166C96.8095 261.901 86.0768 425.269 89.3658 437.214H80.1485C80.1485 437.214 44.7047 220.053 67.771 207.763C67.771 207.763 78.9795 206.638 102.392 208.499C141.644 211.571 133.075 207.157 135.369 213.172Z" fill="#333333"/>
<path d="M120.309 47.3827C118.448 35.2221 106.33 26.9996 93.261 29.0336C80.1916 31.0243 71.1038 42.5358 72.9647 54.6964C73.2676 56.7304 73.9169 58.6346 74.7392 60.4089C74.8257 60.8849 74.912 61.361 74.9986 61.8803C75.6044 66.2945 76.4697 70.6654 78.0277 74.8632C81.0137 83.0424 86.5533 90.1829 95.5115 93.6882C98.4975 94.8567 101.83 95.5924 105.119 95.0731C109.533 94.3807 113.212 91.4812 115.852 88.1922C124.55 77.3299 123.252 63.2217 120.525 50.1523C120.482 49.2002 120.439 48.2915 120.309 47.3827Z" fill="#D1AC9D"/>
<path d="M46.2193 21.8489C46.7386 20.8102 48.3832 19.6417 50.1576 18.8195C49.1622 18.43 48.8593 16.7855 50.1576 16.396C50.2008 16.396 50.2442 16.396 50.2875 16.3527C48.9892 16.1363 48.0371 15.4872 48.0371 13.9292C48.0371 11.852 50.6334 10.9865 53.1867 10.5537C53.2732 10.4671 53.3601 10.3373 53.5332 10.2507C53.6198 10.2075 53.7061 10.1642 53.7926 10.1209C55.0909 6.48571 57.9473 3.32663 61.4959 1.42247C67.5113 -1.82325 72.9641 0.946457 77.1186 5.10098C76.9455 3.93252 76.686 2.76394 76.21 1.46566C75.9936 0.946341 76.8157 0.470365 77.1186 0.98968C78.4169 3.36988 79.1526 5.49046 79.2824 7.52444C79.4122 7.69755 79.5852 7.87063 79.7151 8.04374C79.8882 8.26012 79.8016 8.51975 79.6717 8.69285C80.0612 8.64958 80.4508 8.60626 80.8403 8.51971C81.4894 8.13022 82.0955 7.69747 82.6581 7.17816C83.2207 6.65884 83.8698 7.35123 83.74 7.9571C83.8265 7.9571 83.9128 7.91391 83.9994 7.91391C85.6871 7.52443 86.6393 9.90465 85.1246 10.5105C86.2065 10.8134 87.3753 11.2894 88.6735 12.0251C90.2315 12.8906 89.063 15.3141 87.5483 14.5784C87.5916 14.838 87.635 15.0978 87.635 15.3574C88.111 15.5738 88.5868 15.7902 89.0629 16.0499C89.1927 16.1364 89.2795 16.2662 89.2795 16.396C89.5824 15.8767 89.6687 15.3141 89.5389 14.7948C89.4523 14.4053 89.9718 14.0591 90.2314 14.4485C90.4478 14.7515 90.5775 15.0977 90.6641 15.4006C90.9237 15.1842 91.3998 15.4872 91.2267 15.8334C91.0536 16.2229 90.8372 16.5691 90.6208 16.872C90.4477 17.5211 90.0582 18.1271 89.5389 18.733C89.5821 18.733 89.6689 18.733 89.7121 18.733C89.842 18.3435 90.4478 18.1271 90.794 18.3435L91.2267 17.7376C91.3565 17.4346 91.703 17.3481 92.0059 17.4779C92.2223 17.4347 92.3949 17.4347 92.6113 17.3914C92.7844 17.1318 92.9147 16.8721 93.0878 16.6557C93.6071 16.0498 94.2991 15.5738 94.7751 14.9246C95.6406 13.7995 95.6842 12.5877 95.5543 11.2461C95.5111 10.5537 96.593 10.4672 96.6362 11.1596C96.7228 12.2848 96.8092 13.4532 96.463 14.5784C96.2033 15.4439 95.6409 16.0931 95.0784 16.7855C97.8048 15.5305 99.7521 15.3141 101.483 12.5012C102.089 11.4626 102.392 10.9865 103.344 10.2076C104.123 9.55841 107.715 7.82732 107.629 6.65886C107.585 6.26938 108.191 6.13951 108.321 6.48572C108.84 8.04367 108.58 8.51972 107.455 9.4718C106.72 10.0777 105.724 10.5969 104.989 11.3326C104.037 12.2847 103.561 13.3666 102.825 14.4485C101.916 15.7901 100.661 16.699 99.276 17.5213C100.444 17.3049 101.613 17.2615 102.868 17.4346C105.422 17.8241 107.974 18.733 110.528 19.2956C110.268 19.2523 116.414 21.0698 116.327 21.1996C116.803 20.7236 117.539 21.3295 117.149 21.8921L116.587 22.6278C116.457 22.8009 116.24 22.8441 116.024 22.8441C113.86 22.4114 112.173 21.1564 109.749 20.8102C106.46 20.3774 102.738 19.209 99.6226 19.6417C98.281 19.8149 97.0255 20.2908 95.857 20.8102C98.0208 20.2043 100.185 19.7716 102.435 20.3775C104.599 20.9401 106.287 21.9787 107.758 23.3203C109.965 24.5753 111.047 26.9987 112.995 28.5567C114.509 29.8117 115.548 30.2011 116.76 31.7591C117.712 33.0141 118.837 34.572 119.832 36.0867C121.26 38.0341 122.645 40.1114 123.511 42.3185C125.761 48.0309 124.722 53.3973 122.948 59.2828C122.861 59.5858 122.559 59.5858 122.385 59.456C122.256 59.7589 122.126 60.1051 121.909 60.4081C121.39 61.187 120.222 60.4513 120.352 59.6723C120.352 59.629 120.352 59.6291 120.352 59.5858C120.352 59.5425 120.395 59.4993 120.438 59.456C121.174 58.1577 120.655 56.816 121.044 55.4312C121.131 55.1283 121.217 54.8687 121.304 54.5657C120.871 54.4359 120.481 54.1329 120.438 53.527C120.222 51.6229 120.222 49.6322 120.049 47.728C119.4 48.2473 118.188 47.8579 118.448 46.8192C118.534 46.473 118.491 46.1269 118.62 45.7807C118.75 45.3046 119.14 44.9151 119.313 44.4391C119.443 44.1362 119.53 43.8332 119.573 43.487C119.443 43.8332 119.356 44.1794 119.14 44.5256C118.923 44.8718 118.577 44.8285 118.361 44.6554C117.669 45.2613 116.457 44.7853 116.37 43.8332C116.327 43.4437 116.284 43.0542 116.241 42.6648C115.894 43.2706 115.375 43.79 114.639 44.1795C113.86 44.5689 113.168 43.8332 113.038 43.1407C112.778 42.0156 112.562 40.9769 112.259 40.0248C112.043 40.4576 111.35 40.4144 111.264 39.8518C111.047 38.2939 110.658 36.9523 110.052 35.7405C109.706 35.3078 109.273 34.9183 108.797 34.5288C110.052 36.13 110.658 38.0774 109.922 40.5875C109.749 41.1068 108.927 40.9769 109.057 40.4143C109.143 40.0681 109.186 39.7652 109.186 39.4622C108.581 39.8084 107.715 39.6354 107.412 38.8564C107.282 38.4669 107.022 38.0775 106.763 37.688C106.979 38.467 107.153 39.3757 107.153 40.4143C107.153 41.0635 106.2 41.1501 106.157 40.5009C106.07 39.7653 105.941 39.1161 105.724 38.5535C105.594 38.5535 105.465 38.5102 105.335 38.4236C104.339 37.5148 103.43 36.5195 102.435 35.7838C103.474 37.0389 104.34 38.4237 104.902 39.8518C105.162 40.501 104.21 40.8038 103.907 40.198C103.474 39.2892 102.868 38.4669 102.262 37.7312C102.609 38.6833 102.781 39.7653 102.608 40.9337C102.565 41.3665 101.872 41.3232 101.872 40.8904C101.829 39.0295 100.791 37.4283 99.3193 36.0435C100.315 37.2985 100.964 38.7265 101.224 40.4143C101.44 41.9723 98.9732 42.1454 98.8001 40.6308C98.6269 38.9863 97.9777 37.7745 97.0256 36.8224C98.0642 38.5102 98.4969 40.5442 98.6268 42.4916C98.6701 43.184 97.6747 43.2705 97.5449 42.5781C97.3285 41.3231 96.939 40.2412 96.4196 39.3757C96.4629 39.5921 96.4197 39.895 96.463 40.1547C96.5928 40.4143 96.6797 40.5874 96.8095 40.8471C97.199 41.8857 96.2466 42.5349 95.4244 42.3618C95.3378 43.3572 93.5635 43.66 93.2606 42.5781C92.9576 41.4529 92.3517 40.5875 91.5294 39.8085C91.616 39.9383 91.7461 40.0248 91.8326 40.1547C92.2221 40.674 92.0056 41.1933 91.6594 41.5395C91.6594 41.5828 91.7027 41.6261 91.7027 41.7127C91.7027 41.756 91.7027 41.7992 91.7027 41.8425C91.746 41.8425 91.7893 41.8858 91.7893 41.8858C92.1355 42.0156 92.2652 42.405 92.222 42.7079C92.1787 42.9676 92.1786 43.184 92.1353 43.4437C92.0921 44.0496 91.1404 44.0928 90.9673 43.5302C90.924 43.4004 90.8373 43.2706 90.794 43.1841C90.5777 43.2273 90.3612 43.1841 90.1448 43.0975C90.1015 43.0975 90.0581 43.0542 90.0148 43.0109C90.2745 43.4004 90.491 43.8332 90.6641 44.3093C90.8372 44.6988 90.2745 44.9151 90.0582 44.6121C88.933 43.184 87.548 42.1021 86.1632 41.0202C87.2018 42.232 88.5004 43.9631 89.6688 44.4391C90.0583 44.6122 89.9716 45.3046 89.4955 45.3046C88.9762 45.3046 88.5437 45.0882 88.1543 44.8286C88.2841 45.2613 88.1973 45.6507 87.9377 45.9537C88.1108 46.2133 88.2838 46.4298 88.4136 46.7327C89.0628 48.0743 86.8556 48.8966 86.2065 47.555C85.5141 46.1702 83.8265 45.8672 82.5714 45.0882C83.0475 46.0836 83.307 47.0789 83.5234 48.1175C84.3889 49.6322 85.2548 50.9738 85.5578 50.8007C86.0338 50.5843 86.3366 51.2767 85.9471 51.5797C85.7307 51.7528 85.5143 51.9259 85.2979 52.099C85.168 52.2288 84.9084 52.2288 84.7786 52.1423C84.6055 52.0557 84.4324 51.9258 84.2593 51.796C84.5189 52.6615 84.8653 53.5703 85.4711 54.3926C85.5577 54.5224 85.6873 54.6523 85.7305 54.8254C85.7305 54.8687 85.7306 54.8686 85.7738 54.9119C86.1633 55.9938 85.0815 56.7295 84.216 56.4266C84.1727 56.643 84.0859 56.8161 83.9561 56.9892C84.5619 58.0711 83.0042 59.1097 82.0522 58.3308C82.5282 60.0618 82.4417 62.0093 82.7014 63.7836C82.9611 65.3848 80.4945 65.6012 80.1482 64.0433C79.9751 64.0433 79.8016 63.9567 79.7151 63.7403C79.4554 63.1344 79.0659 62.6584 78.6332 62.2256C78.763 62.5718 78.8932 62.918 79.023 63.2642C79.2827 63.7835 79.5854 64.2596 79.8883 64.7789C80.0614 65.0818 80.0615 65.4281 79.975 65.6878C80.1481 66.0773 80.2778 66.4667 80.4509 66.8995C80.7539 67.7218 79.5853 68.1111 79.1958 67.3322C79.0227 66.986 78.8929 66.683 78.7198 66.3801C78.59 66.3368 78.4603 66.2503 78.3305 66.1637C78.2872 66.1205 78.2871 66.0772 78.2438 66.0772C78.5035 66.4667 78.72 66.8561 78.9797 67.2023C79.3259 67.7649 79.196 68.3276 78.8497 68.717C78.7632 68.8469 78.6764 68.9334 78.5898 68.9767C78.3735 69.1065 78.1575 69.1931 77.9411 69.1931C78.1142 69.7125 78.3306 70.2317 78.5037 70.751C78.5037 70.751 78.5037 70.7511 78.5037 70.7943C78.5903 70.9242 78.6332 71.0107 78.6332 71.1405C78.8495 71.7896 79.1093 72.4388 79.3257 73.1312C79.5421 73.8236 79.0663 74.5594 78.4604 74.6892C78.5902 74.819 78.7632 74.9055 78.8931 75.0353C79.5855 75.6412 79.369 76.5068 78.8064 76.9828C79.369 77.5021 79.9318 78.0647 80.5809 78.584C80.9271 78.887 80.7537 79.4495 80.2777 79.4928C80.1911 79.4928 80.0615 79.4928 79.975 79.5361C80.5376 80.142 81.1865 80.3584 81.8789 80.7478C82.9175 81.397 83.1343 82.6952 83.394 83.8204C83.6969 85.2485 81.3599 85.465 81.1002 83.9936C81.0569 83.8204 81.0135 83.5608 80.9702 83.3444C80.6673 83.6907 80.1911 83.8205 79.6717 83.5176C76.8155 81.7433 72.8773 80.2286 70.9732 77.2858C70.4538 76.4635 70.2807 75.2951 69.8913 74.4729C69.1988 72.9582 68.5933 72.3522 67.5114 70.9674C66.1265 69.193 65.6074 67.9381 65.5208 65.6445C65.4343 63.221 65.0443 60.7542 65.0443 58.3308C65.0443 56.5564 65.6074 54.7389 65.5208 52.9645C65.4776 51.32 65.0444 49.8918 65.0877 48.2473C63.1402 52.1422 59.8514 54.306 61.4526 59.3693C61.669 59.9752 60.6738 60.3648 60.5006 59.7156C59.2024 55.6477 60.1974 53.3972 62.3179 49.8918C63.7028 47.5982 64.3522 45.218 65.3476 42.7513C65.3476 42.7513 65.3476 42.7512 65.3476 42.7079C64.9581 42.7512 64.5252 42.8379 64.1357 42.9244C63.0538 44.5256 61.8856 46.0836 60.5873 47.5117C59.3323 48.8965 57.8176 49.5457 57.2982 51.4498C56.952 52.575 57.1251 53.9165 56.2163 54.7821C55.2643 55.6476 53.7064 54.3494 54.6585 53.4838C55.6105 52.575 55.2206 50.5844 55.8265 49.4592C56.3458 48.4638 57.3413 48.031 58.1636 47.4252C59.6349 46.3 61.0196 44.9151 62.3179 43.4004C61.5822 43.6168 60.847 43.8332 60.068 44.1361C57.7311 45.0449 55.524 46.0835 53.1006 46.6461C52.1485 46.8625 51.5854 45.4777 52.5807 45.1747C56.1727 44.1794 59.3752 41.7993 62.9672 40.8039C63.3999 40.6741 63.7895 40.5875 64.179 40.5009C64.1357 40.4144 64.049 40.2845 64.0057 40.198C63.3566 40.5442 62.6213 40.8039 61.7125 40.8904C61.3663 40.9337 61.1064 40.8039 60.9333 40.6308C59.7648 41.0203 58.726 41.1933 57.5143 40.674C56.3026 40.1546 57.2117 38.4237 58.3801 38.8564C59.1158 39.1161 59.9379 39.1161 60.8467 38.9863C60.8899 38.943 60.9334 38.8997 61.0199 38.8564C60.5006 38.943 60.0245 38.6833 59.8081 38.2938C59.7648 38.3371 59.6781 38.337 59.6348 38.3803C58.2932 38.8996 57.3416 36.9956 58.5101 36.1733C59.4622 35.5242 60.1975 34.8317 60.8033 34.1393H60.76C59.9378 34.9616 59.0722 35.5674 57.471 35.1346C57.0382 35.0048 56.7789 34.7019 56.6923 34.3557C56.1297 34.2691 55.6537 33.9229 55.6104 33.1872C55.5671 32.5381 55.5238 31.8024 55.5238 31.0667C54.312 31.7159 52.9703 32.2785 51.5422 32.6679C49.9842 33.1007 49.0325 31.2398 50.2442 30.2012C50.9799 29.5953 51.9319 29.4221 52.8407 29.2058C53.3167 28.9894 53.8358 28.7298 54.2686 28.4701C54.0522 28.3836 53.7495 28.2971 53.4466 28.2105C52.9706 28.0807 52.4947 27.9941 51.9753 27.821C51.759 27.7345 51.6288 27.5613 51.6288 27.3449C51.4124 27.1285 51.2394 26.9121 51.1961 26.6525C50.3739 26.8256 49.2919 26.2197 49.5083 25.1378C49.5949 24.4886 49.8112 23.9261 50.0276 23.4068C49.3784 23.6231 48.7295 23.8395 48.0804 23.9694C46.8254 24.0127 45.6567 23.0173 46.2193 21.8489ZM100.488 22.3249C101.483 22.3681 102.608 22.3249 103.69 22.3249C102.089 21.8488 100.401 21.7623 98.8001 22.195C99.3626 22.2816 99.9253 22.3249 100.488 22.3249ZM88.6735 16.872H88.6302C88.2407 16.6123 87.8945 16.4393 87.505 16.2229C87.4184 16.4825 87.2888 16.7855 87.1157 17.0451C86.9858 17.2615 86.8128 17.478 86.6397 17.6511C87.3754 17.5212 88.0677 17.2182 88.6735 16.872Z" fill="#282828"/>
<path d="M88.9325 93.8598C85.8599 92.3451 82.9603 90.2679 79.628 89.4023C79.4549 92.3451 81.7486 94.8551 82.4411 97.7546C83.0902 100.438 82.3113 103.208 81.4458 105.804C79.1089 112.988 76.1229 119.955 72.3146 126.447C68.8525 132.332 64.6982 137.828 61.7554 144.017C56.2593 155.615 60.7167 173.099 60.0243 185.909C65.3472 187.899 71.7522 185.346 77.3781 185.909C82.7011 186.428 81.9217 185.822 87.2447 185.432C98.0205 184.697 99.1028 186.038 109.879 185.303C115.591 184.913 121.39 184.48 126.929 182.966C127.535 182.793 128.184 182.576 128.574 182.1C129.05 181.494 128.963 180.629 128.834 179.893C126.497 163.535 133.896 145.099 131.56 128.74C131.213 126.36 130.867 123.937 129.526 121.946C128.184 119.912 126.02 118.657 124.116 117.186C121.044 114.849 118.49 111.906 116.499 108.617C115.504 106.929 114.639 105.155 113.99 103.294C113.427 101.779 113.384 98.5336 112.475 97.3652C110.917 95.3312 104.685 97.3652 101.743 97.2353C97.3285 96.9757 92.9139 95.8505 88.9325 93.8598Z" fill="#333333"/>
<path d="M89.0193 434.966C89.5386 434.966 90.1444 434.966 90.5339 435.312C91.0099 435.702 91.0533 436.351 91.1398 436.957C91.5293 441.241 92.2216 445.482 93.217 449.68C93.5632 451.108 93.9527 452.623 94.8615 453.791C96.8089 456.302 100.401 456.691 103.56 456.648C106.719 456.648 110.225 456.518 112.691 458.509C115.418 460.716 115.894 464.611 115.851 468.116C115.851 469.155 115.721 470.366 114.812 470.929C114.336 471.232 113.687 471.232 113.124 471.275C108.191 471.318 103.301 471.405 98.3671 471.448C95.5542 471.491 92.6545 471.491 90.0579 470.366C86.7689 468.895 84.4756 465.692 83.3504 462.317C82.2252 458.941 81.9651 455.263 81.792 451.671C81.0563 458.119 81.1866 464.654 82.2685 471.059C81.403 471.059 80.4937 471.059 79.6282 471.102C78.2866 462.533 77.4212 453.921 77.0317 445.266C76.9451 442.929 75.6037 437.044 77.7243 435.399C79.715 433.668 86.466 434.923 89.0193 434.966Z" fill="#682D2C"/>
<path d="M148.697 429.424C149.433 429.424 150.212 429.424 150.818 429.857C151.467 430.29 151.726 431.112 151.986 431.848C155.275 441.368 161.896 449.721 170.422 455.087C171.331 455.65 172.283 456.212 172.932 457.035C173.927 458.29 174.1 460.021 174.274 461.622C174.533 464.521 174.62 467.897 172.456 469.844C171.114 471.013 169.253 471.359 167.479 471.532C164.103 471.878 160.728 471.922 157.352 471.619C154.453 471.359 151.467 470.796 149.13 469.065C146.36 467.031 144.889 463.656 144.153 460.323C143.417 456.991 143.331 453.486 142.638 450.154C142.335 449.678 141.557 449.851 141.254 450.283C140.951 450.716 140.95 451.322 140.994 451.885C141.253 457.251 141.859 462.617 142.768 467.897C141.557 468.373 140.302 468.633 139.047 468.762C138.744 460.15 138.397 451.538 138.094 442.926C138.008 440.243 136.363 432.757 137.661 430.506C138.873 428.342 146.187 429.468 148.697 429.424Z" fill="#682D2C"/>
<path d="M92.8715 155.397C92.7416 167.384 91.7896 179.329 91.2703 191.316C89.7123 226.586 91.8764 262.592 103.95 295.785C87.0727 300.199 69.286 304.613 52.4516 300.069C51.3264 299.766 50.1143 299.377 49.4219 298.425C48.7728 297.56 48.6432 296.391 48.6432 295.266C48.4268 289.424 49.0757 283.538 49.4652 277.696C51.0232 255.495 49.2054 233.251 49.3353 211.007C49.4651 183.57 52.4948 156.176 58.3804 129.345C61.453 115.366 65.8239 100.652 76.8161 91.4345C78.201 90.266 79.7588 89.1841 81.5331 88.9677C92.3089 87.6261 93.0013 146.958 92.8715 155.397Z" fill="#A78E41"/>
<path d="M123.857 165.394C125.112 175.174 125.372 185.085 125.805 194.908C126.93 220.701 131.993 245.758 135.629 271.334C136.105 274.84 137.23 278.994 140.649 279.903C142.51 280.379 144.5 279.643 146.404 279.816C148.179 279.946 150.256 280.812 151.597 279.643C152.333 278.994 152.593 277.956 152.722 276.96C153.372 272.503 153.025 267.959 152.722 263.458C151.251 242.729 149.78 221.999 146.231 201.53C144.716 192.788 142.812 184.089 140.908 175.391C136.797 156.695 134.676 135.793 130.608 117.098C129.613 112.597 126.627 110.174 124.204 106.235C122.343 103.206 114.639 95.849 113.341 102.687C112.259 108.399 116.284 118.136 117.669 123.762C120.914 137.351 122.04 151.502 123.857 165.394Z" fill="#A78E41"/>
<path d="M67.3812 220.746C68.29 220.703 69.2853 220.66 70.0643 221.179C70.9298 221.698 71.3626 222.737 71.6655 223.732C74.089 231.263 73.6995 239.355 73.2667 247.231C72.9638 252.944 72.6175 258.873 69.9777 263.936C69.3285 265.191 68.5064 266.446 67.3379 267.312C65.7799 268.48 63.7458 268.826 61.7984 269.086C50.0273 270.731 38.1264 270.73 26.2254 270.774C21.3785 270.774 16.4883 270.774 11.6413 270.298C8.22252 269.952 4.45734 269.216 2.29352 266.533C0.216263 263.979 0.0869141 260.387 0.0869141 257.098C0.0436401 249.482 0.0435562 241.822 0.000282288 234.205C0.000282288 229.445 0.129745 224.165 3.41875 220.66C5.71239 218.236 9.13155 217.198 12.4205 217.111C16.4885 217.025 19.7773 218.453 23.5423 219.361C28.0863 220.487 33.4092 220.314 38.0831 220.573C47.8202 221.093 57.6008 221.179 67.3812 220.746Z" fill="#F2F2F2"/>
<path d="M38.7748 220.224C37.3034 220.484 36.1782 221.522 35.5724 222.647C34.9665 223.773 34.7936 225.028 34.6637 226.283C34.4906 227.451 32.2836 228.273 30.8987 228.317C29.5572 228.36 28.8647 227.018 28.6916 225.936C28.4319 223.902 28.8643 221.825 29.9029 220.007C30.5521 218.882 31.461 217.844 32.1534 216.719C33.7546 214.122 34.0575 211.093 34.7932 208.236C35.702 204.861 42.3666 204.947 40.852 208.842C39.4238 212.737 37.9958 216.069 38.7748 220.224Z" fill="#D1AC9D"/>
<path d="M38.5587 214.429C38.2557 214.429 36.5682 214.169 36.0922 213.91C35.8325 213.78 34.0581 213.304 33.8417 213.174C34.7072 204.995 37.6935 197.205 38.9052 189.112C41.4153 171.888 43.9685 154.448 49.6377 138.349C53.0565 128.655 57.5141 119.611 62.2745 110.826C64.0921 107.493 66.0391 104.075 68.8088 101.911C71.5784 99.7469 75.4301 99.141 78.07 101.478C80.6233 103.772 81.4022 108.186 80.7531 111.994C80.1039 115.802 78.3298 119.178 76.642 122.467C68.2464 138.825 61.0625 156.049 53.8787 173.23C50.4598 181.366 47.0411 189.545 44.2714 198.027C42.8433 202.139 41.1985 210.231 38.5587 214.429Z" fill="#D1AC9D"/>
<path opacity="0.59" d="M223.261 50.0202C223.261 50.0202 223.261 54.2661 223.218 58.0944C222.915 83.2917 223.045 108.419 223.564 133.617C223.694 140.855 223.91 148.164 224.127 155.403C224.256 159.231 223.867 172.874 223.867 172.874C221.833 175.519 214.043 173.709 211.404 173.848C207.119 174.057 202.792 174.266 198.507 174.405C177.129 175.38 155.75 176.354 134.328 177.329C130.78 177.468 127.188 177.677 123.639 177.816C122.384 177.886 120.004 178.651 119.182 176.911C118.013 174.545 118.014 159.44 118.014 156.447C118.014 123.872 119.182 95.7511 118.533 63.1757C118.36 55.6583 117.753 47.7232 118.143 40.2754C120.74 39.5098 123.942 40.554 126.625 40.8324C145.84 42.6422 165.011 44.4517 184.226 46.3311C192.275 47.0968 200.282 47.8625 208.331 48.6282C212.183 48.9762 216.207 48.9066 220.016 49.7419C221.227 49.8811 222.785 49.3937 223.261 50.0202Z" fill="#E0DCD3"/>
<g opacity="0.59">
<path opacity="0.59" d="M264.114 52.4649C270.995 53.0218 278.309 53.6483 278.309 53.3698C278.309 72.7202 277.573 90.748 277.573 110.098C277.573 126.456 277.573 142.743 277.573 159.101C277.573 165.156 278.741 169.542 274.544 169.959C272.769 170.168 270.952 170.098 269.134 170.168C258.402 170.655 247.669 171.142 236.893 171.63C234.686 171.699 229.32 172.465 227.113 172.743C226.594 172.813 225.901 172.883 225.858 167.314C225.641 151.166 225.771 135.087 225.338 119.008C224.906 102.511 224.733 85.9452 224.819 69.4487C224.862 62.4882 224.949 55.5973 225.079 48.6367C234.21 49.6808 243.341 50.5856 252.429 51.4209C253.425 51.4905 258.618 51.9777 264.114 52.4649Z" fill="#74716F"/>
</g>
<path opacity="0.32" d="M263.378 90.8074C269.177 90.9466 274.803 91.0162 274.803 91.0162C274.803 94.8445 274.717 98.3249 274.717 102.153C274.717 105.355 274.717 108.557 274.717 111.759C274.717 112.942 275.669 113.777 272.164 113.917C270.649 113.986 269.134 113.916 267.619 113.986C258.575 114.056 249.486 114.195 240.442 114.264C238.581 114.264 234.037 114.404 232.176 114.473C231.743 114.473 231.18 114.473 231.094 113.429C230.921 110.227 231.138 107.165 231.051 103.963C230.878 99.3688 230.965 97.6983 231.051 94.4268C231.094 93.0347 230.921 91.4338 231.051 90.1113C238.754 90.3201 245.851 90.4593 253.555 90.6681C254.334 90.6681 258.705 90.7378 263.378 90.8074Z" fill="#E0DCD3"/>
<g opacity="0.59">
<g opacity="0.59">
<path opacity="0.59" d="M220.098 50.8894C220.098 50.8894 220.098 54.9265 220.098 58.546C219.969 82.4207 220.272 106.504 220.921 130.727C221.137 137.757 221.354 144.787 221.614 151.817C221.743 155.576 221.484 168.801 221.484 168.801C219.493 171.377 211.789 169.428 209.236 169.497C205.038 169.637 200.841 169.706 196.643 169.845C175.914 170.402 155.444 170.959 135.19 171.516C131.815 171.585 128.483 171.725 125.151 171.794C123.982 171.794 121.775 172.49 120.996 170.82C119.958 168.523 120 154.323 120 151.4C120.217 120.773 121.429 94.5321 120.996 64.3929C120.91 57.5019 120.347 50.1237 120.78 43.3024C123.203 42.5367 126.146 43.4415 128.57 43.6503C146.356 45.0425 164.359 46.4346 182.492 47.8267C190.152 48.4532 197.855 49.0101 205.558 49.6365C209.279 49.915 213.174 49.7756 216.896 50.5412C218.108 50.75 219.622 50.3325 220.098 50.8894Z" fill="#9A9290"/>
<path opacity="0.59" d="M126.236 64.8402C132.381 75.2114 138.7 85.0954 145.451 94.2137C148.351 98.1117 151.336 101.94 154.322 105.629C154.409 105.56 154.539 105.49 154.626 105.42C166.916 102.079 178.947 98.8077 190.675 95.6754C193.011 95.049 195.738 94.9099 197.772 92.9609C200.498 90.3855 199.287 84.1209 198.075 80.5014C195.305 72.4272 191.28 65.1187 187.429 58.1581C187.212 57.7405 187.558 57.2531 187.818 57.6012C192.189 64.3529 196.43 72.0793 199.416 80.3623C200.542 83.4946 201.061 86.9052 200.585 90.3159C200.109 93.7961 198.205 95.6755 196.214 96.65C193.358 98.0421 190.242 98.5292 187.256 99.3645C183.794 100.339 180.288 101.383 176.783 102.358C170.075 104.307 163.281 106.186 156.4 108.135C159.646 112.102 162.934 115.931 166.267 119.689C173.234 127.624 180.202 135.211 187.083 142.798C193.358 149.759 200.196 156.72 204.004 167.369C204.264 168.065 203.658 168.901 203.268 168.274C197.729 159.434 191.41 152.265 184.746 145.304C177.735 137.926 170.638 130.548 163.627 122.682C149.562 107.021 135.108 89.6894 123.38 68.599C121.909 65.7451 124.548 61.9864 126.236 64.8402Z" fill="#9A9290"/>
<path opacity="0.59" d="M123.942 123.514C127.361 122.54 130.996 122.47 134.415 122.192C138.007 121.913 141.555 121.774 145.104 121.844C148.609 121.913 152.071 122.261 155.49 121.844C158.476 121.426 161.246 119.547 164.232 120.591C164.665 120.73 164.578 121.844 164.145 121.774C161.073 121.496 158.087 123.584 155.058 124.21C151.812 124.906 148.436 124.767 145.147 125.046C141.815 125.254 138.483 125.533 135.151 125.811C131.559 126.159 127.923 126.995 124.288 127.064C122.86 127.203 122.557 123.932 123.942 123.514Z" fill="#9A9290"/>
<path opacity="0.59" d="M146.359 141.26C147.787 140.773 149.215 140.077 150.644 139.868C154.971 139.242 159.256 142.931 161.809 148.221C164.362 153.511 165.358 160.263 165.488 166.875C161.549 167.432 157.611 167.919 153.63 168.476C146.706 169.381 139.565 170.355 132.554 168.406C129.915 167.71 127.188 166.458 125.197 163.673C121.562 158.453 121.692 149.891 122.038 142.304C126.322 142.374 130.607 142.374 134.848 142.443C138.742 142.443 142.637 142.513 146.359 141.26Z" fill="#9A9290"/>
<path opacity="0.59" d="M162.891 49.8074C166.266 55.3759 169.771 60.6659 173.45 65.6775C175.484 68.4617 177.561 71.0372 179.639 73.6126C180.591 74.7959 181.543 76.0487 182.711 76.7448C184.053 77.58 185.784 76.188 187.039 75.4919C196.733 70.4107 206.253 65.6776 215.601 60.9444C215.861 60.8052 215.947 61.4316 215.731 61.5708C205.907 67.1392 195.911 72.9862 185.611 78.4154C183.49 79.5291 181.802 78.6241 179.985 76.5359C177.907 74.1694 175.917 71.594 173.926 69.0186C169.728 63.5198 165.703 57.5337 161.895 51.1996C161.203 50.2252 162.242 48.7634 162.891 49.8074Z" fill="#9A9290"/>
<path opacity="0.59" d="M142.075 47.291C145.321 51.2586 148.35 55.8525 151.423 60.0984C154.798 64.762 158.13 69.4256 161.462 74.0892C163.02 76.247 164.622 78.4742 166.179 80.6319C167.391 82.3025 168.343 83.6948 169.988 82.9987C171.07 82.5811 172.152 82.0938 173.234 81.6065C177.301 79.7968 181.326 78.0566 185.351 76.3861C185.741 76.2469 185.871 77.1518 185.524 77.291C181.37 79.4488 177.172 81.4673 172.931 83.5555C171.676 84.1819 169.469 86.0612 168.084 85.2259C166.18 84.0426 164.665 81.2585 163.15 79.1703C159.645 74.3675 156.096 69.4951 152.505 64.6228C148.783 59.4719 144.758 54.5299 141.209 48.9615C140.56 47.987 141.382 46.3862 142.075 47.291Z" fill="#9A9290"/>
<path opacity="0.59" d="M158.693 69.2878C160.164 68.0349 161.722 66.9908 163.237 65.9467C163.54 65.7379 163.799 66.4338 163.496 66.7123C162.025 67.9652 160.597 69.2879 159.083 70.4015C158.65 70.68 158.26 69.6359 158.693 69.2878Z" fill="#9A9290"/>
<path opacity="0.59" d="M190.154 97.4149C197.425 108.134 204.392 118.993 212.572 127.345C212.961 127.763 212.614 128.738 212.182 128.389C208.244 124.84 204.349 120.803 200.757 116.278C196.646 111.058 192.751 105.211 188.813 99.5032C187.904 98.1111 189.245 96.0924 190.154 97.4149Z" fill="#9A9290"/>
<path opacity="0.59" d="M174.273 127.623C179.899 122.75 185.784 118.644 191.453 114.398C196.949 110.291 202.402 106.254 207.812 102.287C208.115 102.078 208.374 102.774 208.071 103.052C202.791 107.368 197.469 111.683 192.059 116.069C186.477 120.593 180.85 125.465 174.965 129.572C174.186 130.129 173.45 128.319 174.273 127.623Z" fill="#9A9290"/>
<path opacity="0.59" d="M173.97 100.757C176.35 103.541 178.601 106.673 180.764 109.805C182.712 112.729 185.395 116.07 186.477 120.037C186.563 120.455 186.347 120.803 186.087 120.594C183.794 118.715 181.933 114.956 179.985 112.242C177.692 108.97 175.225 106.047 172.801 102.915C172.022 101.94 173.104 99.7823 173.97 100.757Z" fill="#9A9290"/>
<path opacity="0.59" d="M121.821 138.965C126.625 139.174 131.299 139.8 136.059 139.661C140.993 139.452 145.84 138.826 150.643 138.199C160.034 136.877 169.209 135.624 178.34 136.877C178.903 136.946 178.903 138.199 178.34 138.199C169.209 138.547 160.034 139.8 150.643 141.331C145.84 142.097 140.993 142.793 136.059 143.141C131.342 143.489 126.236 143.768 121.518 142.376C120.22 141.958 120.566 138.965 121.821 138.965Z" fill="#9A9290"/>
<path opacity="0.59" d="M187.341 80.3652C188.423 78.8338 189.592 78.4859 191.323 79.3211C193.66 80.4348 194.223 84.1933 193.747 87.1864C193.53 88.5089 193.14 89.553 192.708 90.7363C192.621 91.0147 192.491 91.2932 192.405 91.6412C192.145 92.4069 191.842 93.1029 191.54 93.7293C191.453 93.9381 191.366 94.1469 191.236 94.3557C191.063 94.7734 190.803 95.3302 190.63 95.8871C190.544 96.0959 190.458 96.2352 190.414 96.444C190.371 96.5136 190.371 96.5137 190.328 96.5137C190.284 96.5137 190.284 96.5137 190.284 96.5137C190.284 96.5137 190.241 96.5136 190.241 96.444C189.549 95.4695 188.943 94.0078 188.467 92.8941L188.337 92.5461C188.207 92.1981 188.034 91.8501 187.861 91.5021C187.038 89.6923 186.13 87.6041 186.087 85.5159C186 83.3581 186.433 81.6181 187.341 80.3652ZM191.366 87.3952C191.842 86.9079 192.102 86.2816 192.145 85.3768C192.188 84.4719 191.972 83.4973 191.54 82.662C191.107 81.8964 190.587 81.4788 190.024 81.4092C190.024 81.4092 190.024 81.4092 189.981 81.4092C188.856 81.2004 188.077 82.9405 187.947 84.611C187.817 85.8639 188.034 87.3952 189.029 87.8825C189.678 88.1609 190.631 88.1608 191.366 87.3952Z" fill="#9A9290"/>
<path opacity="0.59" d="M148.739 122.054C149.908 120.383 151.206 120.035 153.024 120.801C155.577 121.914 156.139 125.812 155.577 128.945C155.36 130.337 154.928 131.45 154.452 132.703C154.322 132.982 154.235 133.33 154.106 133.608C153.803 134.443 153.457 135.14 153.154 135.836C153.067 136.044 152.937 136.253 152.85 136.462C152.634 136.88 152.374 137.506 152.158 138.063C152.071 138.272 151.985 138.481 151.898 138.62C151.855 138.689 151.812 138.689 151.812 138.689C151.768 138.689 151.768 138.689 151.725 138.689C151.725 138.689 151.682 138.689 151.682 138.62C150.946 137.645 150.297 136.114 149.821 135L149.691 134.652C149.561 134.304 149.388 133.956 149.215 133.608C148.35 131.729 147.354 129.641 147.354 127.413C147.311 125.255 147.787 123.446 148.739 122.054ZM153.067 129.293C153.543 128.805 153.846 128.04 153.932 127.135C154.019 126.23 153.759 125.186 153.283 124.351C152.85 123.585 152.288 123.167 151.682 123.098C151.682 123.098 151.682 123.098 151.638 123.098C150.427 122.958 149.562 124.768 149.389 126.508C149.259 127.831 149.475 129.432 150.557 129.849C151.249 130.128 152.288 130.058 153.067 129.293Z" fill="#9A9290"/>
<path opacity="0.59" d="M179.725 161.311C178.167 163.747 175.874 164.652 173.71 165.348C172.239 165.835 170.767 166.253 169.296 166.671C168.56 166.879 167.781 167.088 167.089 166.74C166.223 166.392 165.574 165.348 165.011 164.304C161.766 158.527 159.472 151.566 158.303 144.118C159.905 143.701 161.592 143.353 163.02 144.536C164.362 145.58 165.184 147.807 166.439 149.199C168.387 151.357 170.983 151.218 173.363 151.079C175.744 150.94 178.34 151.218 179.985 153.793C180.374 154.42 180.72 155.255 180.85 156.091C181.196 157.97 180.634 159.988 179.725 161.311Z" fill="#9A9290"/>
<path opacity="0.59" d="M197.425 123.304C195.824 120.937 194.266 118.571 192.622 116.274C193.66 115.508 194.699 114.742 195.781 114.046C196.127 113.837 196.473 113.629 196.819 113.768C197.122 113.837 197.382 114.116 197.598 114.394C198.983 115.925 200.368 117.596 201.709 119.197C200.325 120.589 198.897 121.912 197.425 123.304Z" fill="#9A9290"/>
<path opacity="0.59" d="M201.839 129.365C203.57 128.6 205.041 126.929 206.599 125.537C207.725 127.068 208.807 128.6 209.888 130.131C208.33 131.245 206.729 132.358 205.128 133.403C204.825 132.985 204.522 132.637 204.349 132.428C203.483 131.454 202.618 130.409 201.839 129.365Z" fill="#9A9290"/>
<path opacity="0.59" d="M201.709 128.457C201.536 128.527 201.493 128.736 201.493 128.944C200.281 127.344 199.069 125.673 197.901 123.933C199.329 122.541 200.8 121.218 202.229 119.826C203.57 121.497 204.869 123.167 206.124 124.907C204.695 126.23 203.31 127.692 201.709 128.457Z" fill="#9A9290"/>
<path opacity="0.59" d="M186.952 133.323C185.567 131.095 184.312 128.799 183.144 126.293C184.269 124.692 185.481 123.23 186.693 121.838C188.424 124.065 190.111 126.362 191.799 128.59C190.198 130.121 188.596 131.722 186.952 133.323Z" fill="#9A9290"/>
<path opacity="0.59" d="M192.275 129.289C194.266 132.004 196.256 134.649 198.247 137.294C196.819 138.059 195.348 138.755 193.876 139.382C193.27 139.66 192.665 139.869 192.059 139.73C191.366 139.521 190.717 138.825 190.154 138.059C189.159 136.806 188.207 135.414 187.298 134.022C189.029 132.421 190.674 130.82 192.275 129.289Z" fill="#9A9290"/>
<path opacity="0.59" d="M192.319 128.116C190.631 125.819 188.9 123.523 187.169 121.295C188.727 119.625 190.372 118.093 192.016 116.701C193.661 118.998 195.262 121.434 196.863 123.731C195.392 125.193 193.877 126.655 192.319 128.116Z" fill="#9A9290"/>
<path opacity="0.59" d="M197.381 124.42C197.814 125.046 198.203 125.673 198.636 126.23C200.021 128.179 201.406 130.058 202.878 131.798C203.44 132.425 204.003 133.051 204.565 133.678C202.705 134.861 200.843 135.905 198.939 136.879C196.905 134.165 194.871 131.45 192.837 128.666C194.352 127.274 195.867 125.882 197.381 124.42Z" fill="#9A9290"/>
<path opacity="0.59" d="M142.897 80.913C145.45 83.558 147.83 86.6207 150.21 89.4745C150.557 89.8922 150.859 89.0569 150.513 88.6393C148.219 85.9247 145.926 83.0011 143.546 80.4257L147.96 77.5024C150.383 80.0778 152.807 82.7923 154.365 86.551C154.581 87.1078 155.144 86.6206 154.927 86.1334C153.369 82.4443 151.033 79.7296 148.653 77.1542L151.336 75.4141L158.563 84.602C154.452 87.7343 149.951 89.6834 145.666 92.5372L138.309 83.9756L142.897 80.913Z" fill="#9A9290"/>
<path opacity="0.59" d="M159.039 85.2266L161.938 88.9156C160.293 89.8901 158.736 91.4912 157.307 93.0226C155.317 95.1107 153.196 96.99 151.032 98.7997L146.185 93.1617C150.469 90.3775 154.971 88.4284 159.039 85.2266Z" fill="#9A9290"/>
<path opacity="0.59" d="M156.919 94.6991C158.65 92.8894 160.511 90.7316 162.545 89.6875L168.647 97.4833L154.279 102.634L151.639 99.5714C153.457 97.9704 155.231 96.4392 156.919 94.6991Z" fill="#9A9290"/>
</g>
<g opacity="0.59">
<g opacity="0.59">
<path opacity="0.59" d="M185.87 99.9809C185.914 99.9809 185.957 99.9809 186 99.9809C186.649 99.9113 187.298 99.772 187.948 99.7024C188.813 99.6328 189.463 98.4495 189.419 97.0573C189.376 95.6652 188.64 94.6212 187.775 94.6908C187.082 94.7604 186.39 94.8301 185.74 94.9693C184.875 95.1085 184.269 96.3613 184.356 97.6838C184.399 99.0063 185.048 99.9809 185.87 99.9809Z" fill="#9A9290"/>
</g>
<g opacity="0.59">
<path opacity="0.59" d="M166.785 125.118C167.261 125.118 167.694 124.77 167.997 124.144C168.516 123.1 168.43 121.499 167.738 120.594L160.294 110.989C159.212 109.596 158.996 108.9 158.996 108.552C158.996 108.274 159.472 107.439 161.289 106.882L178.643 101.661C179.768 101.313 180.85 100.965 181.975 100.687C182.841 100.478 183.403 99.1555 183.274 97.833C183.144 96.4409 182.365 95.4665 181.499 95.7449C180.374 96.0233 179.249 96.3714 178.123 96.7195L160.77 101.94C157.784 102.845 156.182 104.863 155.966 107.996C155.966 108.065 155.966 108.483 155.966 108.552C155.966 111.685 157.611 113.842 158.433 114.886L165.876 124.492C166.093 124.91 166.439 125.118 166.785 125.118Z" fill="#9A9290"/>
</g>
<g opacity="0.59">
<path opacity="0.59" d="M178.08 139.722C178.729 139.722 179.292 139.096 179.552 138.121C179.768 137.077 179.595 135.964 179.076 135.268L177.475 133.18C176.782 132.344 175.83 132.483 175.267 133.597C175.008 134.084 174.921 134.711 174.921 135.337C174.661 135.755 174.488 136.381 174.445 137.077C174.402 138.47 175.094 139.583 175.959 139.653C176.652 139.653 177.301 139.722 177.994 139.792C178.037 139.722 178.08 139.722 178.08 139.722Z" fill="#9A9290"/>
</g>
<g opacity="0.59">
<path opacity="0.59" d="M160.727 140.494C160.77 140.494 160.813 140.494 160.9 140.494C164.838 139.867 168.776 139.589 172.714 139.519C173.58 139.519 174.273 138.406 174.273 137.014C174.273 135.621 173.58 134.508 172.714 134.508C168.69 134.508 164.622 134.856 160.641 135.482C159.775 135.621 159.169 136.874 159.255 138.197C159.255 139.519 159.905 140.494 160.727 140.494Z" fill="#9A9290"/>
</g>
<g opacity="0.59">
<path opacity="0.59" d="M156.876 141.19C156.963 141.19 157.006 141.19 157.092 141.19C157.785 141.051 158.477 140.912 159.169 140.773C160.035 140.634 160.641 139.381 160.555 137.989C160.468 136.597 159.689 135.622 158.823 135.761C158.131 135.9 157.395 136.04 156.703 136.179C155.837 136.388 155.231 137.641 155.361 138.963C155.448 140.286 156.14 141.19 156.876 141.19Z" fill="#9A9290"/>
</g>
</g>
</g>
<g opacity="0.18">
<g opacity="0.18">
<path opacity="0.18" d="M230.573 148.806C230.617 148.806 230.617 148.875 230.66 148.875C230.703 148.875 230.703 148.875 230.703 148.875V148.806C230.703 148.736 230.703 148.736 230.66 148.736C230.617 148.736 230.617 148.736 230.573 148.736H230.531C230.531 148.736 230.487 148.736 230.487 148.806C230.531 148.736 230.573 148.806 230.573 148.806ZM230.66 151.451C230.703 151.451 230.703 151.451 230.66 151.451C230.703 151.451 230.703 151.451 230.66 151.451C230.703 151.52 230.703 151.521 230.703 151.521C230.703 151.521 230.703 151.521 230.747 151.521H230.79C230.79 151.521 230.833 151.52 230.833 151.451L230.877 151.381C230.877 151.381 230.877 151.381 230.877 151.312C230.877 151.312 230.877 151.312 230.877 151.242C230.877 151.103 230.833 150.964 230.833 150.894C230.833 150.755 230.833 150.616 230.833 150.546C230.833 150.407 230.833 150.268 230.833 150.198C230.833 150.059 230.833 149.919 230.79 149.85C230.79 149.78 230.747 149.78 230.747 149.78C230.703 149.78 230.703 149.78 230.66 149.78H230.617L230.573 149.85V149.92C230.573 149.989 230.573 149.989 230.573 150.059C230.573 150.128 230.573 150.198 230.573 150.337C230.573 150.476 230.574 150.616 230.617 150.755C230.66 150.964 230.66 151.172 230.66 151.451C230.66 151.381 230.66 151.381 230.66 151.451Z" fill="#E0DCD3"/>
<path opacity="0.18" d="M231.699 151.527C231.742 151.527 231.742 151.596 231.785 151.596C231.785 151.596 231.829 151.596 231.829 151.527V151.457L231.742 151.039L231.613 150.134V150.065C231.613 150.065 231.613 149.995 231.569 149.926C231.526 149.856 231.526 149.856 231.526 149.856H231.483C231.439 149.856 231.439 149.856 231.396 149.926C231.396 149.995 231.353 149.995 231.353 150.065C231.353 150.065 231.353 150.134 231.309 150.134C231.266 150.134 231.266 150.204 231.266 150.274C231.266 150.343 231.223 150.413 231.223 150.413C231.223 150.483 231.223 150.483 231.179 150.483C231.179 150.413 231.179 150.413 231.179 150.413V150.343C231.179 150.274 231.179 150.204 231.179 150.134C231.179 150.065 231.179 149.995 231.179 149.926C231.179 149.856 231.179 149.856 231.136 149.786C231.093 149.717 231.093 149.717 231.05 149.717H231.007C231.007 149.717 231.007 149.717 231.007 149.786V149.856V149.926C231.007 149.926 231.007 149.995 231.007 150.065C231.007 150.134 231.007 150.204 231.007 150.343C231.007 150.413 231.007 150.552 231.007 150.691C231.007 150.831 231.007 150.9 231.007 151.039C231.007 151.109 231.007 151.248 231.007 151.318C231.007 151.387 231.007 151.457 231.007 151.457V151.527C231.007 151.527 231.007 151.526 231.05 151.596H231.093H231.136C231.179 151.596 231.179 151.596 231.179 151.596C231.179 151.596 231.179 151.527 231.223 151.527L231.439 150.552C231.439 150.482 231.483 150.413 231.483 150.483L231.526 150.552C231.526 150.622 231.569 150.691 231.569 150.761C231.569 150.83 231.613 150.97 231.613 151.039C231.613 151.109 231.655 151.248 231.655 151.318C231.655 151.387 231.699 151.457 231.699 151.527C231.655 151.457 231.612 151.457 231.699 151.527Z" fill="#E0DCD3"/>
</g>
<path opacity="0.18" d="M233.95 151.442C233.993 151.511 234.036 151.511 234.08 151.511C234.166 151.511 234.252 151.442 234.339 151.372C234.469 151.233 234.599 151.024 234.685 150.815C234.772 150.606 234.815 150.328 234.815 150.049C234.815 150.049 234.815 149.98 234.815 149.91C234.815 149.841 234.815 149.771 234.815 149.771C234.772 149.632 234.729 149.493 234.685 149.354C234.642 149.214 234.555 149.214 234.426 149.214C234.382 149.214 234.339 149.214 234.339 149.214C234.296 149.214 234.253 149.214 234.253 149.214H234.209C234.296 149.005 234.339 148.866 234.426 148.727C234.512 148.588 234.556 148.379 234.599 148.17V148.101C234.599 147.961 234.555 147.822 234.426 147.822C234.382 147.822 234.339 147.822 234.296 147.822C234.21 147.822 234.166 147.892 234.08 147.892C233.993 147.961 233.906 147.961 233.863 148.031C233.776 148.101 233.69 148.101 233.647 148.17C233.56 148.24 233.517 148.309 233.474 148.379C233.43 148.449 233.43 148.518 233.43 148.588C233.43 148.657 233.43 148.727 233.474 148.727C233.517 148.727 233.56 148.797 233.604 148.797C233.647 148.797 233.69 148.797 233.734 148.727C233.777 148.658 233.82 148.657 233.863 148.588C233.906 148.518 233.95 148.518 233.993 148.449C234.036 148.379 234.123 148.379 234.166 148.379H234.209C234.166 148.449 234.123 148.588 234.08 148.727C234.036 148.866 233.95 149.006 233.906 149.145C233.82 149.284 233.777 149.423 233.734 149.493C233.69 149.632 233.647 149.702 233.647 149.771C233.647 149.841 233.647 149.91 233.69 149.91C233.733 149.98 233.734 149.98 233.777 149.98C233.863 149.98 233.906 149.98 233.95 149.91C233.993 149.841 234.08 149.841 234.123 149.771C234.166 149.702 234.21 149.701 234.296 149.632C234.339 149.562 234.426 149.562 234.469 149.562C234.469 149.562 234.469 149.562 234.512 149.562H234.556L234.599 149.632C234.599 149.632 234.599 149.702 234.599 149.771C234.599 149.841 234.599 149.841 234.599 149.91C234.599 149.98 234.599 149.98 234.599 149.98C234.599 150.119 234.599 150.258 234.556 150.398C234.512 150.537 234.469 150.676 234.382 150.746C234.382 150.746 234.382 150.746 234.339 150.815L234.296 150.885L234.253 150.954C234.253 150.954 234.209 150.954 234.209 151.024C234.209 151.024 234.209 151.024 234.166 151.024H234.123C234.08 151.024 234.08 151.094 234.08 151.094V151.163C233.906 151.372 233.95 151.372 233.95 151.442Z" fill="#E0DCD3"/>
<path opacity="0.18" d="M235.378 151.445C235.422 151.515 235.421 151.515 235.464 151.515C235.464 151.515 235.508 151.515 235.551 151.515C235.594 151.515 235.594 151.445 235.594 151.445C235.594 151.445 235.638 151.376 235.681 151.306C235.724 151.237 235.768 151.167 235.768 151.097C235.768 151.028 235.854 150.958 235.854 150.958C235.897 150.888 235.898 150.888 235.941 150.819C235.984 150.749 236.027 150.68 236.027 150.61C236.07 150.54 236.114 150.471 236.114 150.401C236.157 150.332 236.157 150.262 236.2 150.123C236.2 150.053 236.244 149.984 236.244 149.844C236.244 149.775 236.244 149.705 236.2 149.705C236.157 149.636 236.157 149.635 236.114 149.635C236.07 149.635 236.027 149.566 236.027 149.566C235.984 149.566 235.941 149.566 235.941 149.566C235.811 149.566 235.724 149.636 235.594 149.705C235.508 149.775 235.378 149.844 235.292 149.984V149.844L235.378 149.009C235.465 148.939 235.551 148.94 235.594 148.94C235.638 148.94 235.768 148.87 235.854 148.87H235.898L236.417 148.731C236.503 148.731 236.503 148.661 236.503 148.522C236.503 148.452 236.503 148.383 236.46 148.313C236.417 148.243 236.373 148.244 236.33 148.244C236.33 148.244 236.33 148.244 236.287 148.244C236.244 148.244 236.244 148.244 236.244 148.244L235.681 148.383C235.638 148.383 235.594 148.383 235.551 148.383C235.508 148.383 235.465 148.383 235.378 148.383H235.335C235.292 148.313 235.292 148.313 235.248 148.244C235.248 148.244 235.205 148.174 235.162 148.174C235.118 148.174 235.075 148.174 235.032 148.244L234.988 148.313C234.988 148.383 234.988 148.383 234.988 148.452C234.988 148.522 234.988 148.591 234.945 148.591L234.859 149.635C234.859 149.705 234.859 149.775 234.859 149.844C234.859 149.914 234.859 149.984 234.859 150.123C234.859 150.192 234.859 150.192 234.859 150.262C234.859 150.332 234.858 150.332 234.902 150.401C234.902 150.471 234.945 150.471 234.945 150.471C234.945 150.471 234.988 150.54 235.032 150.54C235.075 150.54 235.118 150.54 235.118 150.54C235.118 150.54 235.162 150.541 235.205 150.471C235.205 150.471 235.248 150.401 235.292 150.401C235.335 150.332 235.335 150.332 235.378 150.262C235.422 150.192 235.421 150.192 235.464 150.123C235.508 150.053 235.551 150.053 235.594 149.984C235.638 149.914 235.724 149.914 235.768 149.914C235.768 149.984 235.724 150.053 235.724 150.123C235.681 150.192 235.681 150.262 235.638 150.332C235.638 150.332 235.638 150.401 235.594 150.401C235.594 150.471 235.551 150.471 235.508 150.54C235.464 150.61 235.464 150.61 235.421 150.68C235.378 150.749 235.378 150.749 235.378 150.819L235.335 150.889L235.292 150.958L235.248 151.028C235.248 151.097 235.248 151.097 235.248 151.167C235.335 151.376 235.378 151.376 235.378 151.445Z" fill="#E0DCD3"/>
<g opacity="0.18">
<path opacity="0.18" d="M238.408 150.114C238.408 150.184 238.408 150.184 238.408 150.253C238.408 150.323 238.408 150.393 238.408 150.462C238.408 150.532 238.408 150.601 238.408 150.741C238.408 150.81 238.408 150.88 238.408 151.019C238.408 151.089 238.408 151.158 238.408 151.228C238.408 151.298 238.408 151.297 238.408 151.367C238.408 151.437 238.408 151.437 238.451 151.506C238.494 151.576 238.494 151.576 238.538 151.576C238.538 151.576 238.538 151.576 238.581 151.576C238.581 151.576 238.581 151.576 238.624 151.576C238.624 151.576 238.624 151.576 238.667 151.576C238.71 151.576 238.667 151.576 238.667 151.506L238.711 151.228L238.84 150.532L238.927 150.253C238.927 150.253 238.927 150.253 238.927 150.323C238.927 150.393 238.927 150.462 238.927 150.532C238.927 150.601 238.927 150.741 238.927 150.81C238.927 150.88 238.927 150.95 238.927 151.019C238.927 151.089 238.927 151.158 238.927 151.158C238.927 151.228 238.927 151.228 238.927 151.298C238.927 151.367 238.927 151.367 238.97 151.367C239.014 151.367 239.014 151.437 239.014 151.437C239.057 151.437 239.057 151.437 239.1 151.437H239.144C239.144 151.437 239.187 151.437 239.187 151.367C239.187 151.228 239.23 151.089 239.23 151.019C239.23 150.88 239.273 150.81 239.273 150.671C239.273 150.602 239.316 150.462 239.316 150.393C239.316 150.323 239.316 150.253 239.36 150.253L239.49 151.228C239.49 151.298 239.533 151.297 239.533 151.367C239.576 151.367 239.576 151.437 239.62 151.437C239.62 151.437 239.663 151.437 239.663 151.367L239.706 151.298L239.576 150.114C239.576 150.045 239.576 149.975 239.576 149.975C239.576 149.975 239.576 149.836 239.533 149.836C239.533 149.766 239.49 149.766 239.49 149.697C239.446 149.697 239.446 149.627 239.403 149.627H239.36C239.36 149.627 239.316 149.627 239.316 149.697C239.316 149.697 239.316 149.697 239.316 149.766C239.316 149.836 239.316 149.836 239.316 149.836V149.905C239.316 149.905 239.316 149.906 239.316 149.975C239.316 149.975 239.316 150.045 239.273 150.114C239.23 150.184 239.23 150.253 239.23 150.323C239.23 150.393 239.187 150.462 239.187 150.532C239.187 150.601 239.187 150.602 239.187 150.671V150.602C239.187 150.602 239.187 150.532 239.187 150.462C239.187 150.393 239.187 150.393 239.187 150.323C239.187 150.253 239.187 150.253 239.187 150.253C239.187 150.184 239.187 150.184 239.187 150.114C239.187 150.045 239.187 150.045 239.187 149.975C239.187 149.975 239.187 149.905 239.144 149.905C239.144 149.905 239.1 149.905 239.057 149.836C239.014 149.836 239.014 149.836 238.97 149.836L238.927 149.905L238.711 150.602C238.711 150.602 238.711 150.601 238.711 150.532C238.711 150.462 238.711 150.462 238.711 150.462C238.711 150.393 238.711 150.393 238.711 150.323V150.253V150.184C238.711 150.114 238.711 150.114 238.711 150.045V149.975L238.667 149.905H238.624C238.581 149.905 238.581 149.905 238.538 149.905C238.494 149.905 238.494 149.975 238.494 150.045C238.494 150.114 238.494 150.184 238.494 150.253C238.494 150.323 238.408 150.045 238.408 150.114Z" fill="#E0DCD3"/>
<path opacity="0.18" d="M239.922 148.451C239.965 148.451 239.965 148.52 240.009 148.52C240.052 148.52 240.052 148.52 240.052 148.52V148.451C240.052 148.381 240.052 148.381 240.009 148.312C239.965 148.312 239.965 148.242 239.922 148.242H239.879C239.879 148.242 239.835 148.242 239.835 148.312C239.879 148.312 239.879 148.381 239.922 148.451ZM240.009 151.374C240.052 151.444 240.052 151.444 240.052 151.444C240.052 151.444 240.052 151.444 240.095 151.444H240.138C240.138 151.444 240.182 151.444 240.182 151.374L240.225 151.305V151.235V151.166C240.225 151.026 240.182 150.887 240.182 150.748C240.182 150.609 240.182 150.469 240.182 150.33C240.182 150.191 240.182 150.052 240.182 149.913C240.182 149.773 240.182 149.634 240.138 149.495C240.138 149.425 240.095 149.425 240.095 149.425C240.052 149.425 240.052 149.425 240.009 149.425H239.965L239.922 149.495V149.565C239.922 149.634 239.922 149.634 239.922 149.774C239.922 149.843 239.922 149.982 239.965 150.121C240.008 150.261 239.965 150.4 240.009 150.609C239.965 150.818 240.009 151.026 240.009 151.374C240.009 151.305 240.009 151.374 240.009 151.374Z" fill="#E0DCD3"/>
<path opacity="0.18" d="M241.134 151.444C241.177 151.444 241.177 151.514 241.22 151.514C241.264 151.514 241.264 151.514 241.264 151.444V151.375L241.134 150.888L241.004 149.843C241.004 149.843 241.004 149.774 240.96 149.704C240.96 149.635 240.917 149.635 240.917 149.565C240.917 149.496 240.874 149.495 240.874 149.495C240.874 149.495 240.831 149.426 240.788 149.495C240.744 149.495 240.701 149.496 240.701 149.565C240.658 149.635 240.658 149.635 240.658 149.704C240.658 149.704 240.658 149.774 240.614 149.843C240.614 149.913 240.571 149.983 240.571 149.983C240.571 150.052 240.528 150.122 240.528 150.192C240.528 150.261 240.528 150.261 240.484 150.331C240.484 150.261 240.484 150.261 240.484 150.192C240.484 150.192 240.484 150.122 240.484 150.052C240.484 149.983 240.484 149.913 240.484 149.843C240.484 149.774 240.484 149.704 240.484 149.635C240.484 149.565 240.484 149.565 240.441 149.495C240.398 149.426 240.398 149.426 240.355 149.426C240.311 149.426 240.311 149.426 240.311 149.426C240.311 149.426 240.312 149.495 240.268 149.495V149.565V149.635C240.268 149.635 240.268 149.704 240.268 149.774C240.268 149.844 240.268 149.983 240.268 150.052C240.268 150.191 240.268 150.261 240.268 150.4C240.268 150.54 240.268 150.679 240.268 150.748C240.268 150.888 240.268 150.957 240.268 151.027C240.268 151.096 240.268 151.166 240.268 151.236V151.305C240.268 151.305 240.268 151.375 240.311 151.375H240.355H240.398C240.441 151.375 240.441 151.375 240.441 151.375L240.484 151.305L240.701 150.192C240.701 150.122 240.744 150.052 240.744 150.052C240.744 150.052 240.788 150.122 240.788 150.192C240.788 150.261 240.83 150.331 240.83 150.47C240.83 150.54 240.874 150.679 240.874 150.818C240.874 150.957 240.917 151.027 240.917 151.096C240.917 151.166 240.96 151.305 240.96 151.305C241.09 151.375 241.09 151.444 241.134 151.444Z" fill="#E0DCD3"/>
</g>
</g>
<path opacity="0.21" d="M263.509 146.142C263.768 146.282 263.941 146.699 264.244 146.699C264.59 146.699 264.893 146.421 265.153 146.142C265.11 145.725 265.066 145.307 265.066 144.889C264.98 144.889 264.85 144.889 264.763 144.82C264.33 144.681 263.984 144.124 263.855 143.428C263.768 143.08 263.811 142.662 263.941 142.314C264.071 142.036 264.331 141.896 264.547 141.827C264.72 141.757 264.937 141.688 265.11 141.757C265.759 141.897 266.191 143.219 265.932 144.193C265.845 144.402 265.716 144.541 265.586 144.611C265.672 144.959 265.759 145.377 265.802 145.725C265.932 145.655 266.105 145.586 266.235 145.516C266.451 145.446 266.667 145.516 266.884 145.586C267.36 145.655 267.49 146.63 267.49 147.256C267.533 147.952 266.884 147.952 266.84 147.256C266.84 146.838 266.797 146.63 266.581 146.351C266.408 146.142 266.105 146.212 265.845 146.282C266.105 148.022 266.235 149.901 266.711 151.502C266.927 152.129 266.321 152.685 266.148 152.059C265.889 151.224 265.716 150.388 265.542 149.483C265.542 149.553 265.499 149.623 265.499 149.692C265.283 150.597 265.066 151.502 264.763 152.337C264.59 152.825 264.071 152.476 264.201 151.989C264.504 150.806 265.023 149.692 265.412 148.509C265.326 147.882 265.24 147.186 265.153 146.56C264.893 146.978 264.633 147.256 264.287 147.465C263.898 147.674 263.595 147.186 263.292 146.838C263.076 146.63 263.206 146.003 263.509 146.142Z" fill="#E0DCD3"/>
<g opacity="0.32">
<path opacity="0.32" d="M260.652 105.009C260.652 104.521 260.652 103.965 260.608 103.478C260.565 102.99 260.522 102.433 260.478 101.946C260.478 101.877 260.478 101.807 260.435 101.807C260.435 101.807 260.392 101.737 260.392 101.668C260.392 101.668 260.392 101.668 260.392 101.598V101.528C260.305 101.25 260.175 100.972 260.002 100.763C259.829 100.554 259.613 100.484 259.44 100.484C259.31 100.484 259.224 100.484 259.137 100.554C259.05 100.624 259.007 100.693 258.92 100.763C258.834 100.832 258.79 100.972 258.747 101.111C258.704 101.25 258.661 101.389 258.574 101.528C258.531 101.668 258.488 101.877 258.488 102.085C258.445 102.294 258.444 102.503 258.444 102.712C258.444 102.921 258.401 103.129 258.401 103.338C258.401 103.547 258.401 103.756 258.401 103.895C258.401 104.174 258.444 104.452 258.444 104.8C258.488 105.078 258.531 105.426 258.574 105.705C258.618 105.983 258.704 106.262 258.834 106.54C258.964 106.818 259.093 106.958 259.266 107.167C259.353 107.236 259.397 107.306 259.483 107.375C259.57 107.445 259.656 107.445 259.743 107.445C259.916 107.445 260.089 107.375 260.219 107.236C260.349 107.097 260.435 106.888 260.522 106.679C260.608 106.471 260.652 106.192 260.652 105.914C260.608 105.496 260.652 105.287 260.652 105.009ZM260.046 105.566C260.046 105.635 260.046 105.705 260.002 105.774C260.002 105.844 259.959 105.983 259.959 106.053C259.959 106.123 259.916 106.192 259.872 106.262C259.829 106.331 259.786 106.331 259.743 106.331C259.7 106.331 259.656 106.331 259.613 106.262C259.57 106.262 259.526 106.192 259.526 106.192C259.397 106.053 259.267 105.844 259.18 105.566C259.094 105.357 259.05 105.078 259.007 104.8C258.964 104.521 258.92 104.243 258.92 103.965C258.92 103.686 258.92 103.408 258.92 103.199C258.92 103.199 258.92 103.129 258.92 103.06C258.92 102.99 258.92 102.921 258.92 102.851C258.92 102.781 258.92 102.712 258.92 102.642C258.92 102.573 258.92 102.503 258.92 102.503C258.92 102.433 258.92 102.294 258.964 102.155C258.964 102.016 259.007 101.877 259.05 101.668C259.094 101.529 259.137 101.389 259.18 101.25C259.224 101.111 259.31 101.111 259.396 101.111C259.44 101.111 259.483 101.111 259.57 101.18C259.656 101.25 259.7 101.25 259.743 101.32C259.786 101.389 259.829 101.459 259.872 101.528C259.916 101.598 259.916 101.737 259.916 101.807C259.916 101.877 259.916 101.946 259.872 101.946C259.829 101.946 259.829 102.085 259.829 102.155V102.294C259.829 102.294 259.829 102.364 259.872 102.503C259.872 102.642 259.916 102.781 259.916 102.921C259.916 103.06 259.959 103.199 259.959 103.338C259.959 103.477 260.002 103.547 260.002 103.547C260.002 103.756 260.046 103.965 260.046 104.173C260.046 104.382 260.046 104.591 260.046 104.8C260.046 104.8 260.046 104.87 260.046 104.939C260.046 105.009 260.046 105.078 260.046 105.148C260.046 105.218 260.046 105.287 260.046 105.357C260.046 105.496 260.046 105.496 260.046 105.566Z" fill="#E0DCD3"/>
<path opacity="0.32" d="M257.968 105.009C257.968 104.521 257.968 103.965 257.925 103.478C257.881 102.99 257.838 102.433 257.795 101.946C257.795 101.877 257.795 101.807 257.751 101.807C257.751 101.807 257.708 101.737 257.708 101.668C257.708 101.668 257.708 101.668 257.708 101.598V101.528C257.622 101.25 257.492 100.972 257.319 100.763C257.146 100.554 256.929 100.484 256.756 100.484C256.626 100.484 256.54 100.484 256.453 100.554C256.367 100.624 256.323 100.693 256.237 100.763C256.194 100.832 256.107 100.972 256.064 101.111C256.02 101.25 255.977 101.389 255.891 101.528C255.848 101.668 255.804 101.877 255.804 102.085C255.761 102.294 255.761 102.503 255.761 102.712C255.761 102.921 255.718 103.129 255.718 103.338C255.718 103.547 255.718 103.756 255.718 103.895C255.718 104.174 255.761 104.452 255.761 104.8C255.804 105.078 255.848 105.426 255.891 105.705C255.934 105.983 256.02 106.262 256.15 106.54C256.28 106.818 256.41 106.958 256.583 107.167C256.669 107.236 256.713 107.306 256.799 107.375C256.886 107.445 256.972 107.445 257.059 107.445C257.232 107.445 257.406 107.375 257.535 107.236C257.665 107.097 257.752 106.888 257.838 106.679C257.925 106.471 257.968 106.192 257.968 105.914C257.968 105.496 257.968 105.287 257.968 105.009ZM257.362 105.566C257.362 105.635 257.362 105.705 257.319 105.774C257.275 105.844 257.275 105.983 257.275 106.053C257.275 106.123 257.232 106.192 257.189 106.262C257.146 106.331 257.102 106.331 257.059 106.331C257.016 106.331 256.973 106.331 256.929 106.262C256.886 106.262 256.843 106.192 256.843 106.192C256.713 106.053 256.583 105.844 256.497 105.566C256.41 105.357 256.367 105.078 256.323 104.8C256.28 104.521 256.237 104.243 256.237 103.965C256.237 103.686 256.237 103.408 256.237 103.199C256.237 103.199 256.237 103.129 256.237 103.06C256.237 102.99 256.237 102.921 256.237 102.851C256.237 102.781 256.237 102.712 256.237 102.642C256.237 102.573 256.237 102.503 256.237 102.503C256.237 102.433 256.237 102.294 256.28 102.155C256.323 102.016 256.324 101.877 256.367 101.668C256.41 101.529 256.453 101.389 256.497 101.25C256.54 101.111 256.626 101.111 256.713 101.111C256.756 101.111 256.8 101.111 256.886 101.18C256.929 101.25 257.016 101.25 257.059 101.32C257.102 101.389 257.146 101.459 257.189 101.528C257.232 101.598 257.232 101.737 257.232 101.807C257.232 101.877 257.232 101.946 257.189 101.946C257.146 101.946 257.145 102.085 257.145 102.155V102.294C257.145 102.294 257.146 102.364 257.189 102.503C257.189 102.642 257.232 102.781 257.232 102.921C257.232 103.06 257.275 103.199 257.275 103.338C257.275 103.477 257.319 103.547 257.319 103.547C257.319 103.756 257.362 103.965 257.362 104.173C257.362 104.382 257.362 104.591 257.362 104.8C257.362 104.8 257.362 104.87 257.362 104.939C257.362 105.009 257.362 105.078 257.362 105.148C257.362 105.218 257.362 105.287 257.362 105.357C257.362 105.496 257.362 105.496 257.362 105.566Z" fill="#E0DCD3"/>
<path opacity="0.32" d="M255.329 105.354C255.329 105.214 255.285 105.145 255.242 105.006C255.199 104.866 255.155 104.866 255.069 104.866C255.025 104.866 254.982 104.866 254.895 104.936C254.852 104.936 254.809 105.006 254.723 105.075C254.679 105.145 254.636 105.214 254.593 105.284C254.549 105.354 254.549 105.423 254.549 105.562C254.549 105.702 254.593 105.771 254.679 105.841C254.766 105.911 254.809 105.91 254.853 105.91C254.939 105.91 255.025 105.841 255.112 105.771C255.285 105.632 255.329 105.493 255.329 105.354ZM255.329 102.778C255.329 102.639 255.285 102.5 255.199 102.43C255.112 102.361 255.025 102.291 254.939 102.291C254.939 102.291 254.896 102.291 254.853 102.361C254.809 102.43 254.809 102.43 254.766 102.5C254.723 102.569 254.723 102.639 254.679 102.639C254.636 102.639 254.636 102.709 254.636 102.778C254.636 102.918 254.636 102.987 254.723 103.057C254.809 103.126 254.852 103.196 254.939 103.196C255.025 103.196 255.112 103.196 255.199 103.126C255.285 103.057 255.285 102.918 255.329 102.778Z" fill="#E0DCD3"/>
<path opacity="0.32" d="M254.247 105.009C254.247 104.521 254.247 103.965 254.204 103.478C254.16 102.99 254.117 102.433 254.074 101.946C254.074 101.877 254.074 101.807 254.03 101.807C254.03 101.807 253.987 101.737 253.987 101.668C253.987 101.668 253.987 101.668 253.987 101.598V101.528C253.9 101.25 253.771 100.972 253.598 100.763C253.424 100.554 253.208 100.484 253.035 100.484C252.905 100.484 252.818 100.484 252.732 100.554C252.645 100.624 252.602 100.693 252.516 100.763C252.472 100.832 252.386 100.972 252.342 101.111C252.299 101.25 252.256 101.389 252.17 101.528C252.126 101.668 252.083 101.877 252.083 102.085C252.04 102.294 252.04 102.503 252.04 102.712C252.04 102.921 251.996 103.129 251.996 103.338C251.996 103.547 251.996 103.756 251.996 103.895C251.996 104.174 252.04 104.452 252.04 104.8C252.083 105.078 252.126 105.426 252.17 105.705C252.213 105.983 252.299 106.262 252.429 106.54C252.559 106.818 252.689 106.958 252.862 107.167C252.948 107.236 252.992 107.306 253.078 107.375C253.165 107.445 253.251 107.445 253.338 107.445C253.511 107.445 253.684 107.375 253.814 107.236C253.943 107.097 254.03 106.888 254.117 106.679C254.203 106.471 254.247 106.192 254.247 105.914C254.247 105.496 254.247 105.287 254.247 105.009ZM253.641 105.566C253.641 105.635 253.641 105.705 253.598 105.774C253.554 105.844 253.554 105.983 253.554 106.053C253.554 106.123 253.511 106.192 253.468 106.262C253.424 106.331 253.381 106.331 253.338 106.331C253.294 106.331 253.252 106.331 253.208 106.262C253.165 106.262 253.122 106.192 253.122 106.192C252.992 106.053 252.862 105.844 252.775 105.566C252.688 105.357 252.646 105.078 252.602 104.8C252.559 104.521 252.516 104.243 252.516 103.965C252.516 103.686 252.516 103.408 252.516 103.199C252.516 103.199 252.516 103.129 252.516 103.06C252.516 102.99 252.516 102.921 252.516 102.851C252.516 102.781 252.516 102.712 252.516 102.642C252.516 102.573 252.516 102.503 252.516 102.503C252.516 102.433 252.516 102.294 252.559 102.155C252.559 102.016 252.602 101.877 252.646 101.668C252.689 101.529 252.732 101.389 252.775 101.25C252.818 101.111 252.905 101.111 252.992 101.111C253.035 101.111 253.078 101.111 253.165 101.18C253.208 101.25 253.294 101.25 253.338 101.32C253.381 101.389 253.424 101.459 253.468 101.528C253.511 101.598 253.511 101.737 253.511 101.807C253.511 101.877 253.511 101.946 253.468 101.946C253.424 102.016 253.424 102.085 253.424 102.155V102.294C253.424 102.294 253.424 102.364 253.468 102.503C253.468 102.642 253.511 102.781 253.511 102.921C253.511 103.06 253.554 103.199 253.554 103.338C253.554 103.477 253.598 103.547 253.598 103.547C253.598 103.756 253.641 103.965 253.641 104.173C253.641 104.382 253.641 104.591 253.641 104.8C253.641 104.8 253.641 104.87 253.641 104.939C253.641 105.009 253.641 105.078 253.641 105.148C253.641 105.218 253.641 105.287 253.641 105.357C253.641 105.496 253.641 105.496 253.641 105.566Z" fill="#E0DCD3"/>
<path opacity="0.32" d="M251.563 105.009C251.563 104.521 251.563 103.965 251.52 103.478C251.477 102.99 251.433 102.433 251.39 101.946C251.39 101.877 251.39 101.807 251.347 101.807C251.347 101.807 251.303 101.737 251.303 101.668C251.303 101.668 251.303 101.668 251.303 101.598V101.528C251.217 101.25 251.087 100.972 250.914 100.763C250.741 100.554 250.524 100.484 250.351 100.484C250.222 100.484 250.135 100.484 250.048 100.554C249.962 100.624 249.919 100.693 249.832 100.763C249.746 100.832 249.702 100.972 249.659 101.111C249.616 101.25 249.572 101.389 249.486 101.528C249.442 101.668 249.399 101.877 249.399 102.085C249.356 102.294 249.356 102.503 249.356 102.712C249.356 102.921 249.313 103.129 249.313 103.338C249.313 103.547 249.313 103.756 249.313 103.895C249.313 104.174 249.356 104.452 249.356 104.8C249.399 105.078 249.442 105.426 249.486 105.705C249.529 105.983 249.616 106.262 249.745 106.54C249.875 106.818 250.005 106.958 250.178 107.167C250.265 107.236 250.308 107.306 250.395 107.375C250.481 107.445 250.568 107.445 250.654 107.445C250.827 107.445 251 107.375 251.13 107.236C251.26 107.097 251.347 106.888 251.433 106.679C251.52 106.471 251.563 106.192 251.563 105.914C251.563 105.496 251.563 105.287 251.563 105.009ZM251.001 105.566C251.001 105.635 251.001 105.705 250.957 105.774C250.957 105.844 250.914 105.983 250.914 106.053C250.871 106.123 250.871 106.192 250.827 106.262C250.784 106.331 250.741 106.331 250.697 106.331C250.654 106.331 250.611 106.331 250.567 106.262C250.524 106.262 250.481 106.192 250.481 106.192C250.351 106.053 250.221 105.844 250.135 105.566C250.048 105.357 250.005 105.078 249.962 104.8C249.919 104.521 249.875 104.243 249.875 103.965C249.875 103.686 249.875 103.408 249.875 103.199C249.875 103.199 249.875 103.129 249.875 103.06C249.875 102.99 249.875 102.921 249.875 102.851C249.875 102.781 249.875 102.712 249.875 102.642C249.875 102.573 249.875 102.503 249.875 102.503C249.875 102.433 249.875 102.294 249.919 102.155C249.919 102.016 249.962 101.877 250.005 101.668C250.049 101.529 250.092 101.389 250.135 101.25C250.178 101.111 250.265 101.111 250.351 101.111C250.395 101.111 250.438 101.111 250.525 101.18C250.611 101.25 250.654 101.25 250.697 101.32C250.741 101.389 250.784 101.459 250.827 101.528C250.871 101.598 250.871 101.737 250.871 101.807C250.871 101.877 250.871 101.946 250.827 101.946C250.784 101.946 250.784 102.085 250.784 102.155V102.294C250.784 102.294 250.784 102.364 250.827 102.503C250.827 102.642 250.871 102.781 250.871 102.921C250.871 103.06 250.914 103.199 250.914 103.338C250.914 103.477 250.957 103.547 250.957 103.547C250.957 103.756 251.001 103.965 251.001 104.173C251.001 104.382 251.001 104.591 251.001 104.8C251.001 104.8 251.001 104.87 251.001 104.939C251.001 105.009 251.001 105.078 251.001 105.148C251.001 105.218 251.001 105.287 251.001 105.357C251.001 105.496 251.001 105.496 251.001 105.566Z" fill="#E0DCD3"/>
<path opacity="0.32" d="M248.966 105.354C248.966 105.214 248.923 105.145 248.88 105.006C248.837 104.866 248.793 104.866 248.707 104.866C248.664 104.866 248.62 104.866 248.534 104.936C248.49 104.936 248.447 105.006 248.361 105.075C248.318 105.145 248.274 105.214 248.231 105.284C248.188 105.354 248.188 105.423 248.188 105.562C248.188 105.702 248.231 105.771 248.318 105.841C248.404 105.911 248.447 105.91 248.49 105.91C248.577 105.91 248.664 105.841 248.75 105.771C248.923 105.632 248.966 105.493 248.966 105.354ZM248.924 102.778C248.924 102.639 248.88 102.5 248.794 102.43C248.707 102.361 248.62 102.291 248.534 102.291C248.534 102.291 248.49 102.291 248.447 102.361C248.404 102.43 248.404 102.43 248.361 102.5C248.318 102.569 248.318 102.639 248.274 102.639C248.231 102.639 248.231 102.709 248.231 102.778C248.231 102.918 248.231 102.987 248.318 103.057C248.404 103.126 248.447 103.196 248.534 103.196C248.62 103.196 248.707 103.196 248.794 103.126C248.837 102.987 248.924 102.918 248.924 102.778Z" fill="#E0DCD3"/>
<path opacity="0.32" d="M247.842 105.009C247.842 104.521 247.842 103.965 247.798 103.478C247.755 102.99 247.712 102.433 247.669 101.946C247.669 101.877 247.668 101.807 247.625 101.807C247.625 101.807 247.582 101.737 247.582 101.668C247.582 101.668 247.582 101.668 247.582 101.598V101.528C247.495 101.25 247.366 100.972 247.193 100.763C247.019 100.554 246.803 100.484 246.63 100.484C246.5 100.484 246.413 100.484 246.327 100.554C246.24 100.624 246.197 100.693 246.111 100.763C246.067 100.832 245.981 100.972 245.937 101.111C245.894 101.25 245.851 101.389 245.764 101.528C245.721 101.668 245.678 101.877 245.678 102.085C245.635 102.294 245.635 102.503 245.635 102.712C245.635 102.921 245.591 103.129 245.591 103.338C245.591 103.547 245.591 103.756 245.591 103.895C245.591 104.174 245.635 104.452 245.635 104.8C245.678 105.078 245.721 105.426 245.764 105.705C245.807 105.983 245.894 106.262 246.024 106.54C246.154 106.818 246.284 106.958 246.457 107.167C246.543 107.236 246.587 107.306 246.673 107.375C246.76 107.445 246.846 107.445 246.933 107.445C247.106 107.445 247.279 107.375 247.409 107.236C247.538 107.097 247.625 106.888 247.712 106.679C247.798 106.471 247.842 106.192 247.842 105.914C247.842 105.496 247.842 105.287 247.842 105.009ZM247.236 105.566C247.236 105.635 247.236 105.705 247.193 105.774C247.193 105.844 247.149 105.983 247.149 106.053C247.106 106.123 247.106 106.192 247.063 106.262C247.019 106.331 246.976 106.331 246.933 106.331C246.889 106.331 246.846 106.331 246.803 106.262C246.759 106.262 246.717 106.192 246.717 106.192C246.587 106.053 246.457 105.844 246.37 105.566C246.283 105.357 246.241 105.078 246.197 104.8C246.154 104.521 246.111 104.243 246.111 103.965C246.111 103.686 246.111 103.408 246.111 103.199C246.111 103.199 246.111 103.129 246.111 103.06C246.111 102.99 246.111 102.921 246.111 102.851C246.111 102.781 246.111 102.712 246.111 102.642C246.111 102.573 246.111 102.503 246.111 102.503C246.111 102.433 246.111 102.294 246.154 102.155C246.154 102.016 246.197 101.877 246.24 101.668C246.283 101.529 246.327 101.389 246.37 101.25C246.413 101.111 246.5 101.111 246.587 101.111C246.63 101.111 246.673 101.111 246.76 101.18C246.846 101.25 246.889 101.25 246.933 101.32C246.976 101.389 247.019 101.459 247.063 101.528C247.106 101.598 247.106 101.737 247.106 101.807C247.106 101.877 247.106 101.946 247.063 101.946C247.019 101.946 247.019 102.085 247.019 102.155V102.294C247.019 102.294 247.019 102.364 247.063 102.503C247.063 102.642 247.106 102.781 247.106 102.921C247.106 103.06 247.149 103.199 247.149 103.338C247.149 103.477 247.193 103.547 247.193 103.547C247.193 103.756 247.236 103.965 247.236 104.173C247.236 104.382 247.236 104.591 247.236 104.8C247.236 104.8 247.236 104.87 247.236 104.939C247.236 105.009 247.236 105.078 247.236 105.148C247.236 105.218 247.236 105.287 247.236 105.357C247.236 105.496 247.236 105.496 247.236 105.566Z" fill="#E0DCD3"/>
<path opacity="0.32" d="M245.202 105.009C245.202 104.521 245.202 103.965 245.158 103.478C245.115 102.99 245.072 102.433 245.029 101.946C245.029 101.877 245.029 101.807 244.986 101.807C244.942 101.807 244.942 101.737 244.942 101.668C244.942 101.668 244.942 101.668 244.942 101.598V101.528C244.856 101.25 244.726 100.972 244.553 100.763C244.38 100.554 244.163 100.484 243.99 100.484C243.86 100.484 243.774 100.484 243.687 100.554C243.601 100.624 243.558 100.693 243.471 100.763C243.428 100.832 243.341 100.972 243.298 101.111C243.254 101.25 243.211 101.389 243.124 101.528C243.081 101.668 243.038 101.877 243.038 102.085C242.995 102.294 242.995 102.503 242.995 102.712C242.995 102.921 242.952 103.129 242.952 103.338C242.952 103.547 242.952 103.756 242.952 103.895C242.952 104.174 242.995 104.452 242.995 104.8C243.038 105.078 243.081 105.426 243.124 105.705C243.168 105.983 243.255 106.262 243.384 106.54C243.514 106.818 243.644 106.958 243.817 107.167C243.904 107.236 243.947 107.306 244.034 107.375C244.12 107.445 244.206 107.445 244.293 107.445C244.466 107.445 244.639 107.375 244.769 107.236C244.899 107.097 244.986 106.888 245.072 106.679C245.159 106.471 245.202 106.192 245.202 105.914C245.158 105.496 245.202 105.287 245.202 105.009ZM244.596 105.566C244.596 105.635 244.596 105.705 244.553 105.774C244.51 105.844 244.51 105.983 244.51 106.053C244.51 106.123 244.466 106.192 244.423 106.262C244.38 106.331 244.336 106.331 244.293 106.331C244.25 106.331 244.206 106.331 244.163 106.262C244.12 106.262 244.076 106.192 244.076 106.192C243.947 106.053 243.817 105.844 243.73 105.566C243.644 105.357 243.6 105.078 243.557 104.8C243.514 104.521 243.471 104.243 243.471 103.965C243.471 103.686 243.471 103.408 243.471 103.199C243.471 103.199 243.471 103.129 243.471 103.06C243.471 102.99 243.471 102.921 243.471 102.851C243.471 102.781 243.471 102.712 243.471 102.642C243.471 102.573 243.471 102.503 243.471 102.503C243.471 102.433 243.471 102.294 243.514 102.155C243.558 102.016 243.557 101.877 243.6 101.668C243.644 101.529 243.687 101.389 243.73 101.25C243.774 101.111 243.86 101.111 243.947 101.111C243.99 101.111 244.033 101.111 244.12 101.18C244.163 101.25 244.25 101.25 244.293 101.32C244.336 101.389 244.38 101.459 244.423 101.528C244.466 101.598 244.466 101.737 244.466 101.807C244.466 101.877 244.466 101.946 244.423 101.946C244.38 101.946 244.38 102.085 244.38 102.155V102.294C244.38 102.294 244.38 102.364 244.423 102.503C244.423 102.642 244.466 102.781 244.466 102.921C244.466 103.06 244.51 103.199 244.51 103.338C244.51 103.477 244.553 103.547 244.553 103.547C244.596 103.756 244.596 103.965 244.596 104.173C244.596 104.382 244.596 104.591 244.596 104.8C244.596 104.8 244.596 104.87 244.596 104.939C244.596 105.009 244.596 105.078 244.596 105.148C244.596 105.218 244.596 105.287 244.596 105.357C244.596 105.496 244.596 105.496 244.596 105.566Z" fill="#E0DCD3"/>
</g>
<g opacity="0.24">
<path opacity="0.24" d="M255.849 121.296C255.562 121.296 255.33 120.922 255.33 120.46C255.33 119.999 255.562 119.625 255.849 119.625C256.136 119.625 256.368 119.999 256.368 120.46C256.368 120.922 256.136 121.296 255.849 121.296Z" fill="#E0DCD3"/>
<path opacity="0.24" d="M251.088 119.898C251.651 119.898 251.651 121.291 251.088 121.291C250.526 121.291 250.526 119.898 251.088 119.898Z" fill="#E0DCD3"/>
</g>
<path d="M220.405 224.767C221.833 220.05 221.011 214.771 218.414 210.616C215.818 206.462 211.49 203.476 206.687 202.35C199.589 200.706 192.189 203.086 185.395 205.726C183.058 206.635 180.634 207.63 179.163 209.621C177.908 211.309 177.518 213.472 177.259 215.55C176.999 217.93 176.956 220.483 178.081 222.604C179.292 224.854 181.586 226.239 183.88 227.364C189.982 230.393 196.819 232.73 203.614 231.822C208.677 231.216 218.761 230.393 220.405 224.767Z" fill="#EBEBEB"/>
<path d="M142.507 445.869C142.551 452.101 142.68 458.679 146.229 464.045C152.591 473.739 167.002 475.816 179.552 476.898C200.238 478.672 220.924 474.864 241.654 476.595C243.688 476.768 245.808 476.941 247.712 476.249C250.222 475.383 251.91 473.176 252.992 470.969C255.848 465.257 255.892 458.765 255.848 452.49C255.805 398.135 255.718 349.363 255.675 295.008C255.675 278.649 255.632 259.521 254.593 243.206C254.377 239.96 254.074 236.542 252.127 233.772C248.535 228.622 240.788 227.497 234.037 226.891C212.009 224.944 188.683 223.645 166.569 223.948C147.182 224.208 144.974 234.681 144.541 249.957C143.373 291.935 142.767 333.956 142.507 375.934C142.378 399.304 142.378 422.586 142.507 445.869Z" fill="#F2F2F2"/>
<path opacity="0.33" d="M199.718 214.648L119.311 178.166L277.053 172.15L209.672 214.604L199.718 214.648Z" fill="#FFE4DF"/>
<path d="M184.183 353.085C185.914 312.838 187.861 272.548 189.679 232.301C189.722 231.608 190.804 231.608 190.761 232.301C189.419 272.548 188.164 312.838 186.779 353.085C185.394 393.072 188.986 432.973 187.861 472.917C187.818 475.124 184.399 475.124 184.443 472.917C185.568 432.929 182.495 393.072 184.183 353.085Z" fill="#EBEBEB"/>
<path d="M200.974 446.523C201.148 446.004 201.537 445.528 202.1 445.398C208.115 444.056 215.991 445.614 222.093 446.177C228.498 446.783 234.86 447.605 241.222 448.644C242.174 447.692 244.337 448.124 244.424 449.899C244.554 452.019 244.813 453.966 244.294 456C244.121 456.606 243.601 457.126 242.996 457.299C237.456 458.77 230.662 457.991 224.906 458.164C217.333 458.424 209.803 458.684 202.23 458.943C201.321 458.987 200.585 458.164 200.585 457.299C200.585 453.837 199.979 449.899 200.974 446.523Z" fill="#BABABA"/>
<path d="M202.229 424.97C202.402 424.364 203.051 423.715 203.743 423.802C215.904 425.316 229.103 422.244 241.047 424.581C247.928 425.965 246.111 433.452 243.557 438.386C242.735 440.03 240.614 439.208 240.312 437.78C233.387 438.515 226.463 438.862 219.496 439.078C213.783 439.295 206.556 440.636 201.017 438.948C200.541 438.818 199.978 438.386 199.892 437.823C199.242 433.625 201.017 428.995 202.229 424.97Z" fill="#BABABA"/>
<defs>
<linearGradient id="paint0_linear_23_7025" x1="260.533" y1="471.604" x2="32.0874" y2="471.604" gradientUnits="userSpaceOnUse">
<stop stop-color="#4D4D4D"/>
<stop offset="1"/>
</linearGradient>
<linearGradient id="paint1_linear_23_7025" x1="260.534" y1="471.604" x2="32.0878" y2="471.604" gradientUnits="userSpaceOnUse">
<stop/>
<stop offset="1"/>
</linearGradient>
</defs>
</svg>
